<?xml version="1.0" standalone="no"?>
<!DOCTYPE svg PUBLIC "-//W3C//DTD SVG 1.1//EN" "http://www.w3.org/Graphics/SVG/1.1/DTD/svg11.dtd" >
<svg>
<metadata>
Created by FontForge 20090914 at Sun Dec 13 09:40:35 2020
 By www-data
Copyright 2015 The Amatic SC Project Authors (https://github.com/googlefonts/AmaticSC)
</metadata>
<defs>
<font id="AmaticSC-Regular" horiz-adv-x="0" >
  <font-face 
    font-family="Amatic SC"
    font-weight="400"
    font-stretch="normal"
    units-per-em="1000"
    panose-1="0 0 5 0 0 0 0 0 0 0"
    ascent="800"
    descent="-200"
    x-height="661.999"
    cap-height="766.002"
    bbox="-411 -233.999 1056 1093"
    underline-thickness="50"
    underline-position="-100"
    unicode-range="U+000D-U+FB4B"
  />
<missing-glyph horiz-adv-x="365" 
d="M33 667h266v-667h-266v667zM266 33v600h-200v-600h200z" />
    <glyph glyph-name="fi" unicode="fi" horiz-adv-x="509" 
d="M73 1c6.66699 60.667 10.001 141.667 10.001 243c0 44.667 2 112 6 202c4.66699 83.333 7 150.333 7 201c0 6 2.83301 10.667 8.5 14s12.167 5 19.5 5c23.333 0 49 -2.66699 77 -8s42 -12.333 42 -21c0 -11.333 -11.667 -17 -35 -17
c-14.667 6.66699 -33.334 10 -56.001 10l-12 -1c-2 -0.666992 -3.5 -1.66699 -4.5 -3s-1.83301 -3.33301 -2.5 -6c-1.33301 -5.33301 -2.66602 -9 -3.99902 -11c0 -30 -1.33301 -65.333 -4 -106c-3.33301 -39.333 -5 -74.333 -5 -105v-35c0 -2.66699 5.33301 -3.66699 16 -3
c34 0 51 -5.33301 51 -16c0 -5.33301 -2.5 -9.83301 -7.5 -13.5s-10.5 -5.5 -16.5 -5.5c-4 0 -9.66699 1 -17 3c-6.66699 2 -12.334 3 -17.001 3c-12 0 -18 -16.333 -18 -49v-113c0 -16 1 -39.667 3 -71c2 -32 3 -56 3 -72c0 -26.667 -8 -40 -24 -40zM371.001 10
c-3.33301 0 -5.99707 -0.334961 -7.99707 -1.00195h-8c-14.667 0 -24 3.33301 -28 10c0 4.66699 2.66699 8.66699 8 12l5 5h29l4 4l2 9l1 12c0 40.667 -1 77 -3 109l-2 37l-2 73c0 26 1 65 3 117l2 116c0 50.667 -1.66699 89.334 -5 116.001c-6 2 -16 3 -30 3l-11 -1
c-4 -0.666992 -8.33301 -1 -13 -1c-12.667 0 -19 5.66699 -19 17c0 2.66699 3 5.33398 9 8.00098s11 4 15 4c25.333 0 50.666 -1.33301 75.999 -4c15.333 -0.666992 30.666 -3.66699 45.999 -9c12 -4 18 -9.66699 18 -17c0 -1.33301 -1 -4 -3 -8l-23 -2
c-4.66699 4 -14.334 6 -29.001 6l-5 -3c2 -6 3 -23.667 3 -53c0 -44 -0.333008 -83.667 -1 -119l-2 -119c0 -30 1.33301 -66.333 4 -109c2 -48.667 3 -85.334 3 -110.001v-13c-0.666992 -4.66699 -1 -10.667 -1 -18c0 -15.333 1 -24.666 3 -27.999l-1 -2
c0 -6.66699 7.33301 -10 22 -10c6 0 11 0.333008 15 1h15c19.333 0 29 -4.66699 29 -14c0 -6 -2 -10.833 -6 -14.5s-9.33301 -5.5 -16 -5.5c-6 0 -11.333 0.666992 -16 2c-5.33301 0.666992 -11 1 -17 1c-4 0 -10 -1.66699 -18 -5c-8 -4 -14 -6 -18 -6
c-15.333 -0 -24.333 3.33301 -27 10z" />
    <glyph glyph-name="fl" unicode="fl" horiz-adv-x="521" 
d="M73 1c6.66699 60.667 10.001 141.667 10.001 243c0 44.667 2 112 6 202c4.66699 83.333 7 150.333 7 201c0 6 2.83301 10.667 8.5 14s12.167 5 19.5 5c23.333 0 49 -2.66699 77 -8s42 -12.333 42 -21c0 -11.333 -11.667 -17 -35 -17
c-14.667 6.66699 -33.334 10 -56.001 10l-12 -1c-2 -0.666992 -3.5 -1.66699 -4.5 -3s-1.83301 -3.33301 -2.5 -6c-1.33301 -5.33301 -2.66602 -9 -3.99902 -11c0 -30 -1.33301 -65.333 -4 -106c-3.33301 -39.333 -5 -74.333 -5 -105v-35c0 -2.66699 5.33301 -3.66699 16 -3
c34 0 51 -5.33301 51 -16c0 -5.33301 -2.5 -9.83301 -7.5 -13.5s-10.5 -5.5 -16.5 -5.5c-4 0 -9.66699 1 -17 3c-6.66699 2 -12.334 3 -17.001 3c-12 0 -18 -16.333 -18 -49v-113c0 -16 1 -39.667 3 -71c2 -32 3 -56 3 -72c0 -26.667 -8 -40 -24 -40zM345.001 10
c1.33301 4 2.00098 14.999 2.00098 32.999c0 61.333 1 152.333 3 273c2 120 3 206.667 3 260l2 36l3 30c0 4.66699 2.33301 7 7 7c3.33301 0 8 -1 14 -3l3 -1c0 -14.667 -0.333008 -28 -1 -40v-39v-109c0.666992 -32 1 -68.333 1 -109
c-0.666992 -3.33301 -1 -10.666 -1 -21.999l-1 -21c-0.666992 -13.333 -1 -27 -1 -41c0 -15.333 0.333008 -29.333 1 -42l1 -43l-3 -8l1 1c0 -2 -0.333008 -3.33301 -1 -4v-4c0 -5.33301 1 -10 3 -14l-3 -96v-6c0 -11.333 0.333008 -18 1 -20c0 -3.33301 1.66699 -5 5 -5
l52 -2c15.333 0 25.833 -0.166992 31.5 -0.5s9.16699 -0.5 10.5 -0.5h3c3.33301 0 6.66602 -1.83301 9.99902 -5.5s5 -7.5 5 -11.5c0 -8 -5.33301 -12.333 -16 -13c-11.333 0.666992 -39 1 -83 1l2 -1c-6.66699 0 -13 -0.333008 -19 -1c-5.33301 -1.33301 -11.333 -2 -18 -2
c-9.33301 0 -15 7.66699 -17 23z" />
    <glyph glyph-name="f_f" unicode="ff" horiz-adv-x="506" 
d="M73 1c6.66699 60.667 10.001 141.667 10.001 243c0 44.667 2 112 6 202c4.66699 83.333 7 150.333 7 201c0 6 2.83301 10.667 8.5 14s12.167 5 19.5 5c23.333 0 49 -2.66699 77 -8s42 -12.333 42 -21c0 -11.333 -11.667 -17 -35 -17
c-14.667 6.66699 -33.334 10 -56.001 10l-12 -1c-2 -0.666992 -3.5 -1.66699 -4.5 -3s-1.83301 -3.33301 -2.5 -6c-1.33301 -5.33301 -2.66602 -9 -3.99902 -11c0 -30 -1.33301 -65.333 -4 -106c-3.33301 -39.333 -5 -74.333 -5 -105v-35c0 -2.66699 5.33301 -3.66699 16 -3
c34 0 51 -5.33301 51 -16c0 -5.33301 -2.5 -9.83301 -7.5 -13.5s-10.5 -5.5 -16.5 -5.5c-4 0 -9.66699 1 -17 3c-6.66699 2 -12.334 3 -17.001 3c-12 0 -18 -16.333 -18 -49v-113c0 -16 1 -39.667 3 -71c2 -32 3 -56 3 -72c0 -26.667 -8 -40 -24 -40zM306.001 1
c6.66699 60.667 10.001 141.667 10.001 243c0 44.667 2 112 6 202c4.66699 83.333 7 150.333 7 201c0 6 2.83301 10.667 8.5 14s12.167 5 19.5 5c23.333 0 49 -2.66699 77 -8s42 -12.333 42 -21c0 -11.333 -11.667 -17 -35 -17c-14.667 6.66699 -33.334 10 -56.001 10
l-12 -1c-2 -0.666992 -3.5 -1.66699 -4.5 -3s-1.83301 -3.33301 -2.5 -6c-1.33301 -5.33301 -2.66602 -9 -3.99902 -11c0 -30 -1.33301 -65.333 -4 -106c-3.33301 -39.333 -5 -74.333 -5 -105v-35c0 -2.66699 5.33301 -3.66699 16 -3c34 0 51 -5.33301 51 -16
c0 -5.33301 -2.5 -9.83301 -7.5 -13.5s-10.5 -5.5 -16.5 -5.5c-4 0 -9.66699 1 -17 3c-6.66699 2 -12.334 3 -17.001 3c-12 0 -18 -16.333 -18 -49v-113c0 -16 1 -39.667 3 -71c2 -32 3 -56 3 -72c0 -26.667 -8 -40 -24 -40z" />
    <glyph glyph-name="f_f_i" unicode="ffi" horiz-adv-x="743" 
d="M73 1c6.66699 60.667 10.001 141.667 10.001 243c0 44.667 2 112 6 202c4.66699 83.333 7 150.333 7 201c0 6 2.83301 10.667 8.5 14s12.167 5 19.5 5c23.333 0 49 -2.66699 77 -8s42 -12.333 42 -21c0 -11.333 -11.667 -17 -35 -17
c-14.667 6.66699 -33.334 10 -56.001 10l-12 -1c-2 -0.666992 -3.5 -1.66699 -4.5 -3s-1.83301 -3.33301 -2.5 -6c-1.33301 -5.33301 -2.66602 -9 -3.99902 -11c0 -30 -1.33301 -65.333 -4 -106c-3.33301 -39.333 -5 -74.333 -5 -105v-35c0 -2.66699 5.33301 -3.66699 16 -3
c34 0 51 -5.33301 51 -16c0 -5.33301 -2.5 -9.83301 -7.5 -13.5s-10.5 -5.5 -16.5 -5.5c-4 0 -9.66699 1 -17 3c-6.66699 2 -12.334 3 -17.001 3c-12 0 -18 -16.333 -18 -49v-113c0 -16 1 -39.667 3 -71c2 -32 3 -56 3 -72c0 -26.667 -8 -40 -24 -40zM306.001 1
c6.66699 60.667 10.001 141.667 10.001 243c0 44.667 2 112 6 202c4.66699 83.333 7 150.333 7 201c0 6 2.83301 10.667 8.5 14s12.167 5 19.5 5c23.333 0 49 -2.66699 77 -8s42 -12.333 42 -21c0 -11.333 -11.667 -17 -35 -17c-14.667 6.66699 -33.334 10 -56.001 10
l-12 -1c-2 -0.666992 -3.5 -1.66699 -4.5 -3s-1.83301 -3.33301 -2.5 -6c-1.33301 -5.33301 -2.66602 -9 -3.99902 -11c0 -30 -1.33301 -65.333 -4 -106c-3.33301 -39.333 -5 -74.333 -5 -105v-35c0 -2.66699 5.33301 -3.66699 16 -3c34 0 51 -5.33301 51 -16
c0 -5.33301 -2.5 -9.83301 -7.5 -13.5s-10.5 -5.5 -16.5 -5.5c-4 0 -9.66699 1 -17 3c-6.66699 2 -12.334 3 -17.001 3c-12 0 -18 -16.333 -18 -49v-113c0 -16 1 -39.667 3 -71c2 -32 3 -56 3 -72c0 -26.667 -8 -40 -24 -40zM605.002 10
c-3.33301 0 -5.99707 -0.334961 -7.99707 -1.00195h-8c-14.667 0 -24 3.33301 -28 10c0 4.66699 2.66699 8.66699 8 12l5 5h29l4 4l2 9l1 12c0 40.667 -1 77 -3 109l-2 37l-2 73c0 26 1 65 3 117l2 116c0 50.667 -1.66699 89.334 -5 116.001c-6 2 -16 3 -30 3l-11 -1
c-4 -0.666992 -8.33301 -1 -13 -1c-12.667 0 -19 5.66699 -19 17c0 2.66699 3 5.33398 9 8.00098s11 4 15 4c25.333 0 50.666 -1.33301 75.999 -4c15.333 -0.666992 30.666 -3.66699 45.999 -9c12 -4 18 -9.66699 18 -17c0 -1.33301 -1 -4 -3 -8l-23 -2
c-4.66699 4 -14.334 6 -29.001 6l-5 -3c2 -6 3 -23.667 3 -53c0 -44 -0.333008 -83.667 -1 -119l-2 -119c0 -30 1.33301 -66.333 4 -109c2 -48.667 3 -85.334 3 -110.001v-13c-0.666992 -4.66699 -1 -10.667 -1 -18c0 -15.333 1 -24.666 3 -27.999l-1 -2
c0 -6.66699 7.33301 -10 22 -10c6 0 11 0.333008 15 1h15c19.333 0 29 -4.66699 29 -14c0 -6 -2 -10.833 -6 -14.5s-9.33301 -5.5 -16 -5.5c-6 0 -11.333 0.666992 -16 2c-5.33301 0.666992 -11 1 -17 1c-4 0 -10 -1.66699 -18 -5c-8 -4 -14 -6 -18 -6
c-15.333 -0 -24.333 3.33301 -27 10z" />
    <glyph glyph-name="f_f_l" unicode="ffl" horiz-adv-x="755" 
d="M73 1c6.66699 60.667 10.001 141.667 10.001 243c0 44.667 2 112 6 202c4.66699 83.333 7 150.333 7 201c0 6 2.83301 10.667 8.5 14s12.167 5 19.5 5c23.333 0 49 -2.66699 77 -8s42 -12.333 42 -21c0 -11.333 -11.667 -17 -35 -17
c-14.667 6.66699 -33.334 10 -56.001 10l-12 -1c-2 -0.666992 -3.5 -1.66699 -4.5 -3s-1.83301 -3.33301 -2.5 -6c-1.33301 -5.33301 -2.66602 -9 -3.99902 -11c0 -30 -1.33301 -65.333 -4 -106c-3.33301 -39.333 -5 -74.333 -5 -105v-35c0 -2.66699 5.33301 -3.66699 16 -3
c34 0 51 -5.33301 51 -16c0 -5.33301 -2.5 -9.83301 -7.5 -13.5s-10.5 -5.5 -16.5 -5.5c-4 0 -9.66699 1 -17 3c-6.66699 2 -12.334 3 -17.001 3c-12 0 -18 -16.333 -18 -49v-113c0 -16 1 -39.667 3 -71c2 -32 3 -56 3 -72c0 -26.667 -8 -40 -24 -40zM306.001 1
c6.66699 60.667 10.001 141.667 10.001 243c0 44.667 2 112 6 202c4.66699 83.333 7 150.333 7 201c0 6 2.83301 10.667 8.5 14s12.167 5 19.5 5c23.333 0 49 -2.66699 77 -8s42 -12.333 42 -21c0 -11.333 -11.667 -17 -35 -17c-14.667 6.66699 -33.334 10 -56.001 10
l-12 -1c-2 -0.666992 -3.5 -1.66699 -4.5 -3s-1.83301 -3.33301 -2.5 -6c-1.33301 -5.33301 -2.66602 -9 -3.99902 -11c0 -30 -1.33301 -65.333 -4 -106c-3.33301 -39.333 -5 -74.333 -5 -105v-35c0 -2.66699 5.33301 -3.66699 16 -3c34 0 51 -5.33301 51 -16
c0 -5.33301 -2.5 -9.83301 -7.5 -13.5s-10.5 -5.5 -16.5 -5.5c-4 0 -9.66699 1 -17 3c-6.66699 2 -12.334 3 -17.001 3c-12 0 -18 -16.333 -18 -49v-113c0 -16 1 -39.667 3 -71c2 -32 3 -56 3 -72c0 -26.667 -8 -40 -24 -40zM579.002 10
c1.33301 4 2.00098 14.999 2.00098 32.999c0 61.333 1 152.333 3 273c2 120 3 206.667 3 260l2 36l3 30c0 4.66699 2.33301 7 7 7c3.33301 0 8 -1 14 -3l3 -1c0 -14.667 -0.333008 -28 -1 -40v-39v-109c0.666992 -32 1 -68.333 1 -109
c-0.666992 -3.33301 -1 -10.666 -1 -21.999l-1 -21c-0.666992 -13.333 -1 -27 -1 -41c0 -15.333 0.333008 -29.333 1 -42l1 -43l-3 -8l1 1c0 -2 -0.333008 -3.33301 -1 -4v-4c0 -5.33301 1 -10 3 -14l-3 -96v-6c0 -11.333 0.333008 -18 1 -20c0 -3.33301 1.66699 -5 5 -5
l52 -2c15.333 0 25.833 -0.166992 31.5 -0.5s9.16699 -0.5 10.5 -0.5h3c3.33301 0 6.66602 -1.83301 9.99902 -5.5s5 -7.5 5 -11.5c0 -8 -5.33301 -12.333 -16 -13c-11.333 0.666992 -39 1 -83 1l2 -1c-6.66699 0 -13 -0.333008 -19 -1c-5.33301 -1.33301 -11.333 -2 -18 -2
c-9.33301 0 -15 7.66699 -17 23z" />
    <glyph glyph-name=".notdef" horiz-adv-x="365" 
d="M33 667h266v-667h-266v667zM266 33v600h-200v-600h200z" />
    <glyph glyph-name="NULL" 
 />
    <glyph glyph-name="NULL" 
 />
    <glyph glyph-name="nonmarkingreturn" unicode="&#xd;" horiz-adv-x="171" 
 />
    <glyph glyph-name="space" unicode=" " horiz-adv-x="171" 
 />
    <glyph glyph-name="exclam" unicode="!" horiz-adv-x="254" 
d="M124 159l-1 2v240l2 85v86c0 30 -1 56.333 -3 79l-2 27l-2 51c0 6.66699 3.5 12.834 10.5 18.501s13.833 8.5 20.5 8.5c8.66699 0 13 -4.33301 13 -13c0 -58.667 -3.33301 -138.334 -10 -239.001c-7.33301 -111.333 -11 -191 -11 -239l1 -20v-24
c0 -28 -2.66699 -47.667 -8 -59l3 -5h-13v2zM124 -8l-13.001 6.00098c-3.33301 2 -8.66602 9 -15.999 21c0 6.66699 3.33301 13.5 10 20.5s13.334 10.5 20.001 10.5c9.33301 0 16.666 -3.5 21.999 -10.5s8 -15.833 8 -26.5c0 -16.667 -8.33301 -25.334 -25 -26.001
c-1.33301 3.33301 -3.33301 5 -6 5z" />
    <glyph glyph-name="quotedbl" unicode="&#x22;" horiz-adv-x="332" 
d="M99 616c1.33301 6 2 26.001 2 60.001v8c0 56.667 3.66699 85 11 85c6.66699 0 12.167 -3.83301 16.5 -11.5s6.5 -16.5 6.5 -26.5c0 -18.667 -3.83301 -42.834 -11.5 -72.501s-14.5 -44.5 -20.5 -44.5zM215 614.001c-8.66699 14 -13.001 38.667 -13.001 74v22
c0 16.667 1 29 3 37c3.33301 11.333 6.33301 18 9 20c2.66699 1.33301 5.33398 2 8.00098 2c4 0 7 -3.66699 9 -11c2.66699 -7.33301 4 -16.333 4 -27c0 -18.667 -2 -43 -6 -73s-7.66699 -45 -11 -45c-2 0 -3 0.333008 -3 1z" />
    <glyph glyph-name="numbersign" unicode="#" horiz-adv-x="400" 
d="M86.5 -25c-3.66699 2 -5.5 4.33301 -5.5 7c0 26.667 4 76 12 148s16 126.333 24 163l-21 -2c-12 -1.33301 -19.333 -2 -22 -2c-20 0 -30 7 -30 21c0 6.66699 11.333 10 34 10h21c11.333 0 18 0.333008 20 1c2 4 5.5 28 10.5 72s7.5 71 7.5 81
c-6 0 -11.333 -0.333008 -16 -1l-17 -1c-25.333 0 -38.666 6 -39.999 18l8 9h21c24.667 0 40 1 46 3l9 65c9.33301 60 14 108 14 144v10l-1 10c0 14.667 5 22 15 22l7 -14c0 -26 -3 -64.667 -9 -116c-5.33301 -45.333 -8 -84 -8 -116c8 -2.66699 22 -4 42 -4h13
c24 0 41.667 2.33301 53 7c20 93.333 32.667 171.666 38 234.999c4 5.33301 8.66699 8 14 8c6 0 10 -3.33301 12 -10c0 -25.333 -6 -63 -18 -113s-18 -88.333 -18 -115l2 -5h37l13 -14c-4 -10.667 -8.33301 -16 -13 -16c-7.33301 0 -14.333 0.333008 -21 1l-21 1
c-10 -40 -15 -90.333 -15 -151l6 -2l8 1h10c18.667 0 28 -6.33301 28 -19c0 -4.66699 -5.33301 -9 -16 -13h-39c-0.666992 -13.333 -5.33398 -59.666 -14.001 -138.999c-9.33301 -78.667 -14 -136.667 -14 -174l-11 -13c-12 0 -18 3.33301 -18 10c0 10 2.33301 30.667 7 62
c4 28 6 49 6 63c0 16 3.33301 47.333 10 94c6 41.333 9 72.333 9 93c-18 2 -45 3 -81 3c-14 0 -25.667 -1.33301 -35 -4c-8 -73.333 -11.333 -104.333 -10 -93l-3 -30c-4.66699 -57.333 -9.66699 -105 -15 -143c-2.66699 -19.333 -5.16699 -33.333 -7.5 -42
s-4.83301 -13 -7.5 -13c-3.33301 0 -6.83301 1 -10.5 3zM254 327l10.999 58c3.33301 22 5.33301 41 6 57c0.666992 6.66699 1 16 1 28c0 6.66699 -25.667 10 -77 10c-15.333 0 -26.333 -2 -33 -6c-3.33301 -7.33301 -7 -29.333 -11 -66s-6 -63 -6 -79v-2l1 -2l16 -2
c34.667 0 65.334 1.33301 92.001 4z" />
    <glyph glyph-name="dollar" unicode="$" horiz-adv-x="254" 
d="M132.5 -2c-1.66699 4.66699 -2.49414 9.00195 -2.49414 13.002l4 3v66l-3 3c-26 0 -42.667 -0.666992 -50 -2c-23.333 16 -35 32.667 -35 50c0 6.66699 3 10 9 10h2c6.66699 -4.66699 11 -10 13 -16c2 -8.66699 5.33301 -15 10 -19s12.667 -6 24 -6
c9.33301 0 18.666 1.33301 27.999 4c0 23.333 -3 70.833 -9 142.5s-11.667 132.834 -17 183.501c-1.33301 6.66699 -5 16 -11 28l-9 19c-6.66699 13.333 -13.334 28 -20.001 44s-12.334 32.667 -17.001 50c-6.66699 22.667 -10 44 -10 64c0 18.667 3.33301 40 10 64
c3.33301 12.667 8.33301 23.167 15 31.5s14.334 12.5 23.001 12.5l-2 21c-1.33301 6 -2 13.333 -2 22c0 17.333 4.66699 26 14 26l8 -9c-0.666992 -2.66699 -1 -10 -1 -22c0 -24.667 5.33301 -37 16 -37c13.333 0 26 -7.33301 38 -22c16.667 -16 25 -26 25 -30
s-1.33301 -7.83301 -4 -11.5s-5.33398 -4.16699 -8.00098 -1.5c-5.33301 5.33301 -10 11.666 -14 18.999c-6 9.33301 -12.167 16.166 -18.5 20.499s-15.166 6.83301 -26.499 7.5l-3 -8c0 -14.667 0.666992 -27.667 2 -39c0.666992 -12 1 -25.333 1 -40
c0 -22 2.83301 -60.667 8.5 -116s10.5 -88 14.5 -98c4.66699 -11.333 13.667 -30.333 27 -57c35.333 -73.333 54.666 -130.333 57.999 -171c0 -15.333 -1.33301 -27.833 -4 -37.5s-7.33398 -18.5 -14.001 -26.5s-13.834 -15.167 -21.501 -21.5s-17.167 -13.5 -28.5 -21.5
l2 -28c1.33301 -8.66699 2 -18.334 2 -29.001c0 -28 -5.66699 -42 -17 -42c-2.66699 0 -4.83398 2.33301 -6.50098 7zM94.0059 604.002c-5.33301 54 -8.33301 92.333 -9 115c-6 -0.666992 -11.333 -12 -16 -34s-7 -40.667 -7 -56c0 -40.667 12.667 -89.334 38 -146.001
c0 -1.33301 1 -2.66602 3 -3.99902c0 28 -3 69.667 -9 125zM184.506 145.502c9 14.333 13.5 28.833 13.5 43.5c0 18 -7.66699 49.667 -23 95s-29.333 77 -42 95c0 -29.333 3 -73 9 -131c5.33301 -62 8 -105.667 8 -131l1 -2c13.333 6 24.5 16.167 33.5 30.5z" />
    <glyph glyph-name="percent" unicode="%" horiz-adv-x="540" 
d="M39 576l0.000976562 3.99902c0 24.667 5.33301 58 16 100c4.66699 22.667 12 41.334 22 56.001s21 22 33 22h2c32.667 0 55 -12.333 67 -37c20.667 -34.667 31 -86.334 31 -155.001l-2 -3c0 -8.66699 0.333008 -16.334 1 -23.001l1 -23
c0 -11.333 -0.333008 -23.166 -1 -35.499s-2.66699 -26.166 -6 -41.499c-4 -18 -8.83301 -32.667 -14.5 -44s-13.834 -21.333 -24.501 -30c-11.333 -8.66699 -25 -13 -41 -13c-56 0 -84 74.333 -84 223zM177.001 14.999c0 13.333 1.5 28.5 4.5 45.5s8.5 41.5 16.5 73.5
c2 6.66699 6.66699 25 14 55c42.667 189.333 84.334 362 125.001 518l2 6c0.666992 4 1.66699 8.16699 3 12.5s2.33301 7.5 3 9.5l5 10c1.33301 2 2.66602 3 3.99902 3c4 0 7.5 -1.16699 10.5 -3.5s4.5 -5.5 4.5 -9.5c0 -3.33301 -1.33301 -11.333 -4 -24l-10 -43
c-2.66699 -14.667 -4.66699 -23 -6 -25l-113 -497l-20 -87l-3 -14c-1.33301 -10 -4 -20.333 -8 -31c-4 -10 -10 -15.667 -18 -17c-6.66699 4.66699 -10 10.667 -10 18zM157.001 394.999c10 10.667 17 25.333 21 44c6 30.667 9 58.667 9 84c0 18 -1.33301 38.667 -4 62
c-2.66699 36 -4 57 -4 63l-2 9c0 20 -6.16699 37.333 -18.5 52s-27.5 22 -45.5 22c-6.66699 0 -12.667 -3.83301 -18 -11.5s-9.33301 -17.5 -12 -29.5c-6 -23.333 -10 -46 -12 -68c-0.666992 -5.33301 -1.16699 -9.66602 -1.5 -12.999s-0.833008 -6 -1.5 -8
c0 -4.66699 -0.666992 -9 -2 -13l-2 -13c0 -9.33301 0.333008 -18.333 1 -27l1 -28c0 -21.333 3 -47.333 9 -78c4 -18.667 10 -33.834 18 -45.501s17.333 -17.5 28 -17.5c14 0 26 5.33301 36 16zM367.501 32.498c-9.66699 13 -17.168 29.832 -22.501 50.499
c-10 38 -15 67.333 -15 88v4c0 148.667 28 223 84 223c14.667 0 27.834 -4.16699 39.501 -12.5s20.5 -18.833 26.5 -31.5c5.33301 -11.333 9.83301 -25.166 13.5 -41.499s5.83398 -30.833 6.50098 -43.5l1 -35l-1 -23l-1 -23l2 -3c0 -38 -5.66699 -74 -17 -108
c-6.66699 -19.333 -17.167 -34.833 -31.5 -46.5s-31.5 -17.5 -51.5 -17.5c-12.667 0 -23.834 6.5 -33.501 19.5zM447 63.9971c9.33301 11.333 16.335 27.0029 21.002 47.0029c3.33301 12 5.66602 31 6.99902 57v29v32c0 23.333 -1.66699 44.666 -5 63.999
c-3.33301 16.667 -7 30 -11 40s-10 18.333 -18 25c-8 8 -18 12 -30 12c-10.667 0 -19.834 -5.66699 -27.501 -17s-13.5 -26 -17.5 -44c-6 -30.667 -9 -56.334 -9 -77.001l-1 -27c-0.666992 -8 -1 -16.667 -1 -26c0 -4.66699 0.666992 -9 2 -13l2 -13
c0 -2.66699 1.33301 -10.334 4 -23.001c2.66699 -17.333 5.16699 -30.833 7.5 -40.5s6.16602 -19.167 11.499 -28.5c6 -10 13 -15 21 -15c18.667 0 33.334 6 44.001 18z" />
    <glyph glyph-name="ampersand" unicode="&#x26;" horiz-adv-x="449" 
d="M420 7c0 -10.667 -15.001 -15.9961 -45.001 -15.9961c-10 0 -20.833 2 -32.5 6s-21.5 8.66699 -29.5 14c-10 6 -19.333 12.667 -28 20c-23.333 -16 -42.666 -26.833 -57.999 -32.5s-34 -8.5 -56 -8.5c-22.667 0 -44 8 -64 24s-35.333 36 -46 60c-11.333 24 -17 47 -17 69
c0 30 2 55 6 75l5 31c0.666992 6.66699 3.66699 16.667 9 30c2 6 3.83301 11.167 5.5 15.5s2.83398 8.16602 3.50098 11.499l13 30l14 27c1.33301 3.33301 3.33301 7.66602 6 12.999l10 20l17 33c0 16 -1 39.333 -3 70c-2.66699 27.333 -4 50.666 -4 69.999v83
c0 20.667 4.66699 37.667 14 51c5.33301 8 11.666 12 18.999 12c16 0 32.5 -5.33301 49.5 -16s25.5 -22.334 25.5 -35.001c0 -11.333 -0.333008 -21.333 -1 -30l-2 -30l1 -12l-22 -65c-7.33301 -20.667 -16 -41 -26 -61
c-0.666992 -1.33301 -4.33398 -6.66602 -11.001 -15.999c-10.667 -14.667 -16 -27 -16 -37c0 -21.333 6.66699 -58.333 20 -111s29.333 -103 48 -151c20.667 -50 38 -77 52 -81c25.333 50 38 114.667 38 194c0 5.33301 -0.666992 9.33301 -2 12c-2 3.33301 -4 4.33301 -6 3
c-7.33301 0 -12.333 2.33301 -15 7v2l-1 6l2 5c12.667 0 32.334 1.33301 59.001 4s43 5.33398 49 8.00098c4.66699 -0.666992 8.66699 -2.33398 12 -5.00098s5 -6 5 -10c0 -4.66699 -5.16699 -8.5 -15.5 -11.5s-21.5 -4.5 -33.5 -4.5h-12
c-3.33301 0.666992 -7.33301 1 -12 1h-7c0 -54 -3 -97.333 -9 -130s-17.333 -65.334 -34 -98.001c22.667 -26.667 48.667 -40 78 -40c6.66699 0 12.667 0.333008 18 1c10.667 1.33301 17 2 19 2zM158.999 676.004c-6.66699 -9.33301 -10 -16.667 -10 -22l1 -124l2 -5
c-1.33301 -5.33301 -2 -11 -2 -17c0 -2.66699 0.666992 -10 2 -22c0.666992 -6 1 -13.333 1 -22c11.333 10 24 35.333 38 76s21 70.667 21 90c0 40 -12.333 60 -37 60c-4 0 -9.33301 -4.66699 -16 -14zM232.999 21.5029c20.667 8.33301 31.334 17.5 32.001 27.5
c-2.66699 5.33301 -9.33398 13 -20.001 23c-20 20 -38.5 51.333 -55.5 94s-30.167 86.667 -39.5 132l-5 40c-2 19.333 -4.66699 34.666 -8 45.999c-22.667 -29.333 -40.167 -63.666 -52.5 -102.999s-18.5 -79.333 -18.5 -120c0 -37.333 8.66699 -71.333 26 -102
c8.66699 -15.333 20.5 -27.5 35.5 -36.5s32.167 -13.5 51.5 -13.5c15.333 0 33.333 4.16699 54 12.5z" />
    <glyph glyph-name="quotesingle" unicode="'" horiz-adv-x="234" 
d="M103 616c1.33301 12 2 32.001 2 60.001v8c0 56.667 3.66699 85 11 85c6.66699 0 12.167 -3.83301 16.5 -11.5s6.5 -16.5 6.5 -26.5c0 -18.667 -3.83301 -42.834 -11.5 -72.501s-14.5 -44.5 -20.5 -44.5z" />
    <glyph glyph-name="parenleft" unicode="(" horiz-adv-x="203" 
d="M160 -155c-4.66699 7.33301 -8.33301 14 -11 20l-3 9c-30 66.667 -53.667 151.667 -71 255s-26 203.333 -26 300c0 26 4.5 67 13.5 123s20.833 109 35.5 159c16 54 32 81.667 48 83l10 -8c-0.666992 -15.333 -8 -36.333 -22 -63l-13 -28c-30 -84 -45 -172.667 -45 -266
c0 -210 25.333 -375.667 76 -497c2 -5.33301 8.66699 -18 20 -38s18.333 -36 21 -48c-4.66699 -8 -9.66699 -12 -15 -12c-8 0 -14 3.66699 -18 11z" />
    <glyph glyph-name="parenright" unicode=")" horiz-adv-x="212" 
d="M14.5 -132.5c-3 2.33301 -4.5 5.16797 -4.5 8.50098s2.33301 9.66602 7 18.999l18 34l10 20c2.66699 5.33301 4.66699 9.66602 6 12.999c25.333 68 46 141.667 62 221s24 151.333 24 216c0 113.333 -15 212 -45 296l-13 28c-14.667 26 -22 47 -22 63l9 8
c14 -1.33301 27.333 -19.333 40 -54c20 -54 37 -139 51 -255c4.66699 -48 7 -76.667 7 -86c0 -73.333 -10.333 -154.333 -31 -243c-12.667 -55.333 -26.667 -108.666 -42 -159.999c-10 -36 -21.333 -67.667 -34 -95c-12.667 -24.667 -23.667 -37 -33 -37
c-3.33301 0 -6.5 1.16699 -9.5 3.5z" />
    <glyph glyph-name="asterisk" unicode="*" horiz-adv-x="430" 
d="M97 364c0 8 12.335 36.334 37.002 85.001c25.333 50 39.333 82.333 42 97c-5.33301 1.33301 -9 2 -11 2h-113c-3.33301 0 -6 -0.333008 -8 -1h-8c-7.33301 0 -11 5.33301 -11 16c0 3.33301 1.16699 6.16602 3.5 8.49902s4.83301 3.5 7.5 3.5h68
c19.333 -0.666992 41.666 -1 66.999 -1l2 2c-8 15.333 -22.167 44.666 -42.5 87.999s-30.5 66.666 -30.5 69.999s1.66699 6 5 8s7 3 11 3s11 -11.667 21 -35l6.5 -15c2.33301 -5.33301 4.5 -11.333 6.5 -18c8 -17.333 13.667 -30.666 17 -39.999
c10.667 -26 19.334 -41 26.001 -45c3.33301 5.33301 9.33301 22.333 18 51c14 38.667 23.667 64.334 29 77.001c10 22.667 18.333 34 25 34c3.33301 0 6.83301 -1.66699 10.5 -5s5.5 -6.66602 5.5 -9.99902c0 -2.66699 -4.33301 -11.667 -13 -27c-8 -16.667 -17 -40 -27 -70
c-10 -30.667 -18 -53 -24 -67l1 -1c18 -2.66699 38 -4 60 -4c9.33301 0 23.666 1 42.999 3l43 2c4.66699 0 9 -2 13 -6s6 -8.33301 6 -13c0 -9.33301 -7.66699 -14 -23 -14l-57 2c-24.667 2 -43.667 3 -57 3h-12c-10 0 -16.333 -1 -19 -3c0 -8.66699 13 -38 39 -88
c25.333 -52 38 -81.333 38 -88c0 -4 -1.5 -7.33301 -4.5 -10s-6.16699 -4 -9.5 -4c-6.66699 0 -11.834 2.83301 -15.501 8.5s-6.5 14.167 -8.5 25.5c-2.66699 8.66699 -4 14.667 -4 18c-18 42 -36 80 -54 114c-2.66699 -3.33301 -6.66699 -12 -12 -26l-39 -92l-6 -16
c-6 -16.667 -11 -28.334 -15 -35.001l-13 -2zM214.002 546.001v1c-0.666992 0 -1 -0.166992 -1 -0.5v-0.5h1z" />
    <glyph glyph-name="plus" unicode="+" horiz-adv-x="400" 
d="M184.5 178.5c-5 3 -7.50098 6.16699 -7.50098 9.5v31c0 9.33301 0.333008 18 1 26l1 26c0 6.66699 -0.166992 11.834 -0.5 15.501s-1.5 7.16699 -3.5 10.5s-5 5.33301 -9 6s-11 1 -21 1l-22 -2c-10 -2 -17.333 -3 -22 -3c-19.333 0 -29 7 -29 21
c0 5.33301 0.666992 9 2 11s4.33301 3 9 3l26 -1l27 -2c27.333 0 41 2.66699 41 8c0 11.333 -1 28 -3 50l-2 50c0 8 1.33301 13.667 4 17s8 5 16 5c12 0 18 -5.66699 18 -17l-4 -10l2 -39l2 -40c0 -9.33301 2.16699 -15.666 6.5 -18.999s11.5 -5 21.5 -5l30 2l30 1
c20.667 0 31 -6 31 -18c0 -10.667 -5.66699 -16 -17 -16s-21.333 0.666992 -30 2c-8.66699 0.666992 -19 1 -31 1h-5c-15.333 0 -25.166 -1.83301 -29.499 -5.5s-6.5 -12.834 -6.5 -27.501c0 -14 1.33301 -28 4 -42c3.33301 -18.667 5 -31.334 5 -38.001
c0 -4.66699 -2 -8.5 -6 -11.5s-9 -4.5 -15 -4.5c-4 0 -8.5 1.5 -13.5 4.5z" />
    <glyph glyph-name="comma" unicode="," horiz-adv-x="199" 
d="M74 -64c0 3.33301 2.66699 8.66797 8 16.001l9 12c4.66699 7.33301 8.66699 16.666 12 27.999c2 6 3.16699 10.833 3.5 14.5s-0.166992 5.83398 -1.5 6.50098c-8 0.666992 -14.5 4 -19.5 10s-7.5 12.333 -7.5 19c0 9.33301 3.83301 16.666 11.5 21.999s16.167 8 25.5 8
c10.667 0 18.167 -3.66699 22.5 -11s6.5 -15.666 6.5 -24.999c0 -16 -5 -34.5 -15 -55.5s-22.667 -37.833 -38 -50.5l-6 -1c-7.33301 1.33301 -11 3.66602 -11 6.99902z" />
    <glyph glyph-name="hyphen" unicode="-" horiz-adv-x="266" 
d="M40.5 337c-4.33301 3.33301 -6.5 7.33301 -6.5 12c0 6.66699 21.167 13.167 63.5 19.5s78.166 9.5 107.499 9.5c5.33301 0 10.333 -1.66699 15 -5s7 -7.33301 7 -12c0 -6.66699 -21 -13.167 -63 -19.5s-78.333 -9.5 -109 -9.5c-5.33301 0 -10.166 1.66699 -14.499 5z" />
    <glyph glyph-name="period" unicode="." horiz-adv-x="147" 
d="M55.5 3.5c-4.33301 5 -6.49902 10.499 -6.49902 16.499c0 6.66699 2.66699 12.834 8 18.501s11.333 8.5 18 8.5c5.33301 0 10.666 -2.83301 15.999 -8.5s8 -11.5 8 -17.5c0 -16.667 -9.33301 -25 -28 -25c-6 0 -11.167 2.5 -15.5 7.5z" />
    <glyph glyph-name="slash" unicode="/" horiz-adv-x="332" 
d="M76 15c0 14 1.66797 29.667 5.00098 47s8.66602 41 15.999 71l14 56c42.667 189.333 84.334 362 125.001 518l2 6c0.666992 4 1.66699 8.16699 3 12.5s2.33301 7.5 3 9.5l5 10c1.33301 2 2.66602 3 3.99902 3c10 0 15 -4.33301 15 -13
c0 -0.666992 -1.66699 -8.66699 -5 -24l-10 -43l-5 -25l-38 -168l-75 -329l-20 -87c-0.666992 -2 -1.66699 -6.66699 -3 -14l-8 -31c-4 -10 -10.333 -15.667 -19 -17c-6 4 -9 10 -9 18z" />
    <glyph glyph-name="zero" unicode="0" horiz-adv-x="321" 
d="M150.5 -2c-8.33301 3.33301 -13.4971 5.99902 -15.4971 7.99902c-32.667 24.667 -54 86.667 -64 186c-4.66699 46.667 -7.83398 93 -9.50098 139s-2.5 104.333 -2.5 175v80c0.666992 24 1 50.667 1 80c0 16.667 1 30.667 3 42c0.666992 7.33301 2.16699 12.833 4.5 16.5
s6.83301 8.83398 13.5 15.501c9.33301 8.66699 26 13 50 13c60 0 96.333 -53.333 109 -160c15.333 -113.333 23 -231 23 -353c0 -40.667 -1 -73.334 -3 -98.001c-2.66699 -30.667 -8.33398 -59.667 -17.001 -87c-4.66699 -14 -10.334 -25.167 -17.001 -33.5
s-15 -15.166 -25 -20.499c-10.667 -5.33301 -22 -8 -34 -8c-2.66699 0 -8.16699 1.66699 -16.5 5zM218.003 62.999c9.33301 32.667 14.667 64 16 94c2 37.333 3 62 3 74c0 21.333 -2 68 -6 140c-4 71.333 -6 117 -6 137v24c-2 40 -6.66699 71.667 -14 95
c-5.33301 20.667 -11.5 38.5 -18.5 53.5s-15.833 27.167 -26.5 36.5c-12 9.33301 -26 14 -42 14s-27.167 -4 -33.5 -12s-9.5 -20.333 -9.5 -37c0 -6 0.333008 -11.333 1 -16v-17l2 -93l2 -94v-98c0 -38.667 2 -80 6 -124c4 -54.667 12.667 -104.667 26 -150
c6 -22.667 14.167 -40.667 24.5 -54s21.5 -20 33.5 -20c18 0 32 15.667 42 47z" />
    <glyph glyph-name="one" unicode="1" horiz-adv-x="275" 
d="M48 7c-2.66699 2.66699 -3.99902 7.66895 -3.99902 15.002c0 2 0.833008 4.16699 2.5 6.5s3.5 3.5 5.5 3.5h29l28 -1c10.667 0 17.5 1.16699 20.5 3.5s4.5 7.83301 4.5 16.5c0 155.333 -7.33301 347.333 -22 576v32l1 32c0 10.667 -1 18.167 -3 22.5
s-6 7.16602 -12 8.49902s-16.333 2 -31 2c-4 0 -7.66699 -0.333008 -11 -1l-12 -1c-11.333 0 -17 3.66699 -17 11c0 3.33301 1.83301 6 5.5 8s8.5 3.33301 14.5 4c9.33301 1.33301 35.666 2 78.999 2c4.66699 0 8.5 -1.66699 11.5 -5s4.5 -7 4.5 -11v-31
c0 -20.667 1 -52 3 -94l2 -95c0 -14 2.33301 -61 7 -141c4 -86.667 6 -151.334 6 -194.001v-13l3 -55l2 -58l-1 -8l-1 -7l4 -3l23 2c6.66699 0.666992 14 1 22 1c20.667 0 31 -4.66699 31 -14s-7.33301 -14 -22 -14l-80 -2c-26.667 -1.33301 -53.667 -2 -81 -2
c-5.33301 0 -9.33301 1.33301 -12 4z" />
    <glyph glyph-name="two" unicode="2" horiz-adv-x="338" 
d="M66 -2.5c-4.66699 3.66699 -6.99805 8.49805 -6.99805 14.498l53 122c39.333 85.333 68.333 165.833 87 241.5s28 153.834 28 234.501c0 96 -20.667 144 -62 144c-8.66699 -4 -15.834 -10.833 -21.501 -20.5s-9.16699 -19.834 -10.5 -30.501
c-2.66699 -24 -8.33398 -36 -17.001 -36c-6.66699 0 -11 3.33301 -13 10v10c0 27.333 7.66699 51 23 71c8 10.667 17.667 16 29 16c27.333 0 49.833 -10.333 67.5 -31s26.834 -46 27.501 -76l-1 -2c0 -13.333 0.333008 -25.666 1 -36.999c0.666992 -10.667 1 -22.667 1 -36
c0 -55.333 -7.5 -122.166 -22.5 -200.499s-32.833 -140.5 -53.5 -186.5l-29 -65l-22 -50c-11.333 -26 -19 -44.333 -23 -55c-2 -4.66699 -3 -8.33398 -3 -11.001c0 -3.33301 2 -5 6 -5c36 6.66699 76 10.334 120 11.001c9.33301 0 14 -5.33301 14 -16
c0 -8.66699 -3 -13 -9 -13l-71 -4c-36.667 -3.33301 -61.667 -5 -75 -5c-6.66699 0 -12.334 1.83301 -17.001 5.5z" />
    <glyph glyph-name="three" unicode="3" horiz-adv-x="332" 
d="M123 9.5c-13.333 7 -19.9922 15.8359 -19.9922 26.5029l7 5c4.66699 0 9.66699 -1.33301 15 -4s10.666 -6 15.999 -10c2 -2 6 -5 12 -9c50.667 0 76 42.333 76 127c0 45.333 -1.33301 82.666 -4 111.999c-2.66699 21.333 -6.33398 40.166 -11.001 56.499
s-11.334 33.5 -20.001 51.5c-8 16.667 -19 32.334 -33 47.001h-4l-6 -1c-4.66699 0 -11 1.33301 -19 4v4l-5 5c2 4 5.66699 9 11 15c2 2.66699 7.83301 9.66699 17.5 21s18.5 25.666 26.5 42.999c6 17.333 9 33.666 9 48.999c0 28.667 -1.66699 55 -5 79
c-2.66699 19.333 -6.16699 35.5 -10.5 48.5s-10.5 24.167 -18.5 33.5c-8.66699 10 -18.667 15 -30 15c-10 0 -18.833 -2.83301 -26.5 -8.5s-12.834 -12.167 -15.501 -19.5c-6.66699 -19.333 -14.334 -29 -23.001 -29c-4 0 -7.83301 1.33301 -11.5 4s-5.83398 6 -6.50098 10
c11.333 22.667 23.666 39.5 36.999 50.5s29.666 16.5 48.999 16.5c8.66699 0 17 -2.16699 25 -6.5s14.667 -10.166 20 -17.499l3 -1c26.667 -38.667 40 -101.667 40 -189c0 -16 -6 -34.667 -18 -56c-2 -1.33301 -7.33301 -9 -16 -23c-5.33301 -8.66699 -11 -17 -17 -25
c26.667 -10 45 -30 55 -60c6.66699 -20.667 13.334 -49.667 20.001 -87c1.33301 -14 3.66602 -27 6.99902 -39c3.33301 -18 5.33301 -29.5 6 -34.5s1 -16.5 1 -34.5c0 -24 -1 -45 -3 -63c-2 -24 -7 -46 -15 -66c-8.66699 -20.667 -22 -35.334 -40 -44.001
c-9.33301 -4.66699 -20.333 -7 -33 -7c-14.667 0 -28.667 3.5 -42 10.5z" />
    <glyph glyph-name="four" unicode="4" horiz-adv-x="299" 
d="M175 -6l-0.00292969 35.999l-1 2c2.66699 10 4 22 4 36c0 11.333 -1 28.333 -3 51c-2.66699 20.667 -4 37.667 -4 51l1 22c0.666992 6.66699 1 14.334 1 23.001c0 25.333 -3.33301 40 -10 44c-7.33301 0 -17 -1 -29 -3c-13.333 -2 -23.333 -3 -30 -3
c-6 0 -10.333 0.333008 -13 1c-4 2.66699 -6.66699 4.66699 -8 6l-6 4v3c0 3.33301 2 14 6 32l-10 20c0 4.66699 1.66699 12.667 5 24c3.33301 12 5 20.333 5 25c0 26 1.33301 58.667 4 98c3.33301 36 5 68.667 5 98v159c0 4.66699 -0.666992 9 -2 13l-2 12
c0 8.66699 4 13 12 13c4.66699 0 8.83398 -1.33301 12.501 -4s5.5 -6 5.5 -10c0 -14.667 -0.666992 -28 -2 -40l-2 -40c0 -11.333 1 -22.666 3 -33.999l-2 -3c1.33301 -8 2 -17.333 2 -28c0 -28 -2 -70 -6 -126s-6 -98 -6 -126c0 -4 1.33301 -9 4 -15c2 -6 3 -10.667 3 -14
s-1 -7.66602 -3 -12.999c-2.66699 -5.33301 -4 -10 -4 -14c0 -12.667 3.33301 -19 10 -19c6 0 14.833 1 26.5 3s19.834 4 24.501 6c0 16 -2.66699 88 -8 216c0 10 -1.33301 23 -4 39c-2.66699 24 -4 37.667 -4 41c0 4 2 7 6 9s8.33301 3 13 3l9 -11
c0 -15.333 1 -38.666 3 -69.999c2 -32 3 -55.667 3 -71c0 -25.333 1 -57 3 -95s4.33301 -58.333 7 -61l18 2c6 1.33301 12.333 2 19 2c12.667 0 19 -3.66699 19 -11c0 -5.33301 -2.66699 -9 -8 -11s-11.666 -2.33301 -18.999 -1c-8 0.666992 -14.833 -0.833008 -20.5 -4.5
s-8.5 -9.5 -8.5 -17.5c0 -26.667 1 -60.334 3 -101.001s4 -63.334 6 -68.001c0 -0.666992 -0.166992 -2.33398 -0.5 -5.00098s-0.5 -6.66699 -0.5 -12c0 -10.667 1.66699 -18.667 5 -24l-4 -12l4 -7v-14l-17 -12z" />
    <glyph glyph-name="five" unicode="5" horiz-adv-x="316" 
d="M125 6c0 7.33301 6.33594 11 19.0029 11c3.33301 0 7.66602 -1.33301 12.999 -4c4.66699 -2.66699 8.66699 -4 12 -4c10 0 19.333 6 28 18s15.667 27 21 45c9.33301 36 14 65.333 14 88c0 47.333 -3.33301 104 -10 170c-4.66699 36.667 -12.334 68.667 -23.001 96
c-10.667 26 -23.667 39 -39 39h-23l-5 -3h-1l-2 1c-0.666992 0 -4.33398 -1.66699 -11.001 -5c-6.66699 -2.66699 -10.334 -4 -11.001 -4c-6 0 -10.833 1.5 -14.5 4.5s-6.16699 6.83301 -7.5 11.5c-0.666992 2 -1 4.5 -1 7.5s-0.333008 5.83301 -1 8.5v15
c2.66699 16.667 4 33.667 4 51c0 22 -3.66699 58 -11 108c-7.33301 44 -11.666 78.667 -12.999 104l11 10l76 1h2c19.333 0 29 -4.66699 29 -14l-12 -9h-21l-2 -2l-41 5l-6 -2l-4 1c0 -12.667 1 -30.667 3 -54c2 -24.667 3.33301 -38.334 4 -41.001
c2 -34.667 6.33301 -90.667 13 -168l-2 -1l18 -2c38 -4.66699 61 -10 69 -16c12 -8.66699 22.833 -30.667 32.5 -66s16.167 -71.333 19.5 -108c3.33301 -28 5 -56 5 -84c0 -26.667 -0.666992 -49.667 -2 -69c-1.33301 -24 -5.33301 -48.333 -12 -73
c-4 -13.333 -8.66699 -24.666 -14 -33.999s-12 -18 -20 -26c-7.33301 -8 -16.333 -15.333 -27 -22h-8c-32.667 0 -49 5.33301 -49 16zM95.0029 653c-0.666992 0 -1 -0.166992 -1 -0.5v-0.5z" />
    <glyph glyph-name="six" unicode="6" horiz-adv-x="313" 
d="M138.5 -3.5c-9.66699 7 -16.8359 16.167 -21.5029 27.5c-9.33301 19.333 -15.333 46.333 -18 81l-2 25c-0.666992 16.667 -2 33.334 -4 50.001c-10 73.333 -15 144.666 -15 213.999v4c0 29.333 0.666992 59 2 89c0.666992 31.333 4.33398 72.333 11.001 123
c4 38 13.333 74.333 28 109c13.333 31.333 31.666 47 54.999 47c2.66699 0 5.5 -1 8.5 -3s4.5 -4 4.5 -6c0 -6 -7.33301 -12.667 -22 -20c-1.33301 -0.666992 -5.66602 -2.66699 -12.999 -6c-9.33301 -8 -18.166 -32.833 -26.499 -74.5s-13.833 -83.167 -16.5 -124.5l-5 -94
c8.66699 5.33301 16 8 22 8c22.667 0 41.334 -10 56.001 -30c16.667 -26 27.667 -51 33 -75c9.33301 -38 15.333 -70 18 -96l2 -25c2.66699 -32 4 -55 4 -69c0.666992 -11.333 1 -24 1 -38v-30c0 -22 -2 -40.333 -6 -55c-6 -17.333 -16.667 -29.333 -32 -36
c-8.66699 -4 -19 -6 -31 -6s-22.833 3.5 -32.5 10.5zM215.998 85c0 37.333 -1.33203 75 -3.99902 113c-2.66699 54 -10 104 -22 150c-5.33301 24 -12.833 42.667 -22.5 56s-20.834 20 -33.501 20c-20 -12.667 -30 -30.667 -30 -54v-15c0 -84.667 8.33301 -176 25 -274l2 -14
l5 -29c2 -8 6.33301 -15.333 13 -22s16.667 -10 30 -10c24.667 0 37 26.333 37 79z" />
    <glyph glyph-name="seven" unicode="7" horiz-adv-x="293" 
d="M81 -2c0 12.667 3.66895 29.001 11.002 49.001l7 23c11.333 48 20.833 98.5 28.5 151.5s16.167 122.5 25.5 208.5l18 162l7 46c6.66699 39.333 10 73.333 10 102c0 4 -11.333 6 -34 6c-11.333 0 -21.333 -0.333008 -30 -1l-29 -2l-15 10l8 9l54 2
c15.333 0.666992 32.666 1 51.999 1c4.66699 0 9.16699 -1.83301 13.5 -5.5s7.5 -7.83398 9.5 -12.501c-4.66699 -11.333 -7 -26.333 -7 -45c0 -10.667 -0.333008 -17.667 -1 -21c-4 -51.333 -19 -168.333 -45 -351s-42 -278.667 -48 -288l1 -8
c0 -10.667 -2.33301 -21.167 -7 -31.5s-10.334 -15.5 -17.001 -15.5z" />
    <glyph glyph-name="eight" unicode="8" horiz-adv-x="291" 
d="M121 -24.5c-9.33301 9 -16.333 21.1689 -21 36.502c-10 29.333 -15 55.666 -15 78.999c0 101.333 11 194 33 278l6 17c5.33301 16 8 28.667 8 38c0 4 -1.33301 11 -4 21l-11 36l-8 22c-30.667 95.333 -46 162.333 -46 201c0 21.333 4.33301 39.666 13 54.999
c8.66699 18 24 27 46 27h18l9 -4c8 -3.33301 14 -7 18 -11s6.33301 -7.33301 7 -10c12.667 -28 19 -65 19 -111c0 -38 -6.66699 -90.667 -20 -158l-14 -68c0 -3.33301 2.66699 -11.666 8 -24.999c2.66699 -6.66699 4 -10.334 4 -11.001c44 -132 66 -244.333 66 -337
c0 -4.66699 -0.333008 -8.66699 -1 -12l-2 -12l1 -5c-10.667 -22 -22 -37.5 -34 -46.5s-28 -13.5 -48 -13.5c-12 0 -22.667 4.5 -32 13.5zM170 652.002c0 34 -4 63 -12 87c-6 16.667 -14 25 -24 25h-5c-1.33301 -0.666992 -3 -1 -5 -1c-5.33301 0 -9.66602 1 -12.999 3
c-15.333 -12 -23 -33.333 -23 -64c0 -14 3.16699 -39.167 9.5 -75.5s13.666 -70 21.999 -101s15.5 -48.5 21.5 -52.5c19.333 62 29 121.667 29 179zM198.5 2.00195c9.66699 14 14.499 32.666 14.499 55.999c0 65.333 -12.667 143.333 -38 234l-7 31
c-6 28.667 -12.667 49.334 -20 62.001c-12 -16.667 -21.667 -57.5 -29 -122.5s-11 -125.167 -11 -180.5c0 -12.667 4.66699 -30.334 14 -53.001l-1 -3c0.666992 -11.333 4 -21.666 10 -30.999s13.333 -14 22 -14c20.667 0 35.834 7 45.501 21z" />
    <glyph glyph-name="nine" unicode="9" horiz-adv-x="288" 
d="M163 -13c6 17.333 9 46.999 9 88.999l2 140c2 62 3 108.333 3 139l-1 54c-0.666992 16 -1 34 -1 54l-7 -2c-22.667 2.66699 -43.334 10 -62.001 22s-34 26.667 -46 44c-24 35.333 -36 74 -36 116c0 40 9.83301 73.167 29.5 99.5s46.167 39.5 79.5 39.5
c11.333 0 23.833 -2.5 37.5 -7.5s22.834 -10.833 27.501 -17.5c4.66699 -7.33301 7 -60.666 7 -159.999v-59c-0.666992 -17.333 -1 -37 -1 -59c0 -6 -1.33301 -12.667 -4 -20c-2 -8 -3 -14.667 -3 -20l-2 -168c-0.666992 -50 -1 -106.333 -1 -169
c0 -9.33301 -1.33301 -21.666 -4 -36.999c-2 -16.667 -3 -29 -3 -37c0 -4.66699 0.333008 -8.33398 1 -11.001v-12c0 -18.667 -5.66699 -28 -17 -28zM176 488.999c3.33301 65.333 4.99902 136.666 4.99902 213.999c0 20 -3.66699 35 -11 45s-19.333 15 -36 15
c-27.333 0 -48 -8.66699 -62 -26s-21 -40.666 -21 -69.999c0 -26 5 -52.333 15 -79s23.333 -49.667 40 -69c18.667 -19.333 37.334 -30 56.001 -32z" />
    <glyph glyph-name="colon" unicode=":" horiz-adv-x="177" 
d="M75 483.5c-4.66699 5 -7 10.499 -7 16.499c0 6.66699 2.66699 12.834 8 18.501s11.333 8.5 18 8.5c6 0 11.667 -2.83301 17 -8.5s8 -11.5 8 -17.5c0 -16.667 -9.66699 -25 -29 -25c-5.33301 0 -10.333 2.5 -15 7.5zM65.5 105.499c-4.33301 5 -6.5 10.499 -6.5 16.499
c0 6.66699 2.5 12.834 7.5 18.501s10.833 8.5 17.5 8.5c6 0 11.5 -2.83301 16.5 -8.5s7.5 -11.5 7.5 -17.5c0 -16.667 -9 -25 -27 -25c-6 0 -11.167 2.5 -15.5 7.5z" />
    <glyph glyph-name="semicolon" unicode=";" horiz-adv-x="189" 
d="M92.5 483.5c-4.33301 5 -6.5 10.499 -6.5 16.499c0 6.66699 2.66699 12.834 8 18.501s11.333 8.5 18 8.5c6 0 11.5 -2.83301 16.5 -8.5s7.5 -11.5 7.5 -17.5c0 -16.667 -9.33301 -25 -28 -25c-6 0 -11.167 2.5 -15.5 7.5zM74 24.999c0 3.33301 2.66699 8.66797 8 16.001
l9 12c4.66699 7.33301 8.66699 16.666 12 27.999c2 6 3.16699 10.833 3.5 14.5s-0.166992 5.83398 -1.5 6.50098c-8 0.666992 -14.5 4 -19.5 10s-7.5 12.333 -7.5 19c0 9.33301 3.83301 16.666 11.5 21.999s16.167 8 25.5 8c10.667 0 18.167 -3.66699 22.5 -11
s6.5 -15.666 6.5 -24.999c0 -16 -5 -34.5 -15 -55.5s-22.667 -37.833 -38 -50.5l-6 -1c-7.33301 1.33301 -11 3.66602 -11 6.99902z" />
    <glyph glyph-name="less" unicode="&#x3c;" horiz-adv-x="342" 
d="M250 1l-6.99805 0.996094h-2c-10.667 16 -24 42 -40 78l-17 38l-50 104l-10 22c-6 10 -10 18 -12 24s-9.33301 17.333 -22 34c-12 16 -18 29 -18 39c0 7.33301 7.66699 30 23 68l52 119c18 39.333 29.333 66.333 34 81c0 2 2 8.33301 6 19
c5.33301 22.667 11.666 40.334 18.999 53.001c4 8 8.33301 12.333 13 13l13 -10c-2.66699 -20 -10.5 -46.167 -23.5 -78.5s-27.833 -65.166 -44.5 -98.499c-16 -32 -29.5 -63.167 -40.5 -93.5s-16.5 -54.166 -16.5 -71.499c0 -5.33301 22.833 -54.666 68.5 -147.999
s74.167 -149.333 85.5 -168l9 -7c-1.33301 -4 -3.33301 -8.16699 -6 -12.5s-5.33398 -6.5 -8.00098 -6.5s-4.66699 0.333008 -6 1z" />
    <glyph glyph-name="equal" unicode="=" horiz-adv-x="371" 
d="M71 363c0 2.66699 0.333008 4.66699 1 6c1.33301 2 31 3 89 3h113c4 0 7.5 -1.16699 10.5 -3.5s4.5 -5.16602 4.5 -8.49902c0 -2.66699 -0.333008 -4.33398 -1 -5.00098c0 -2 -35.333 -3 -106 -3h-97c-9.33301 0 -14 3.66699 -14 11zM70 292
c-2.66699 0 -5 1.49902 -7 4.49902s-3 6.16699 -3 9.5s1.66699 5 5 5h40l157 -1c2 0 3.83301 -1.16699 5.5 -3.5s2.5 -5.16602 2.5 -8.49902c0 -5.33301 -2.33301 -8 -7 -8c0 1.33301 -64.333 2 -193 2z" />
    <glyph glyph-name="greater" unicode="&#x3e;" horiz-adv-x="342" 
d="M73.5 6.5c-3 4.33301 -4.83496 8.50586 -5.50195 12.5059l9 7c14 25.333 43.167 83.166 87.5 173.499s66.5 137.833 66.5 142.5c0 17.333 -5.5 41.166 -16.5 71.499s-24.5 61.5 -40.5 93.5c-16.667 33.333 -31.5 66.166 -44.5 98.499s-20.833 58.5 -23.5 78.5l13 10
c4 -0.666992 8.33301 -4.83398 13 -12.501s8.33398 -15.834 11.001 -24.501c0.666992 -2.66699 3.33398 -12 8.00098 -28l6 -20c4.66699 -14.667 16 -41.667 34 -81l18 -42l33 -77c16 -36.667 24 -59.334 24 -68.001c0 -10 -6 -23 -18 -39c-12.667 -16.667 -20 -28 -22 -34
l-12 -25c-6 -10.667 -9.33301 -17.667 -10 -21l-86 -178l-21 -42l-8 -1l-7 -1c-2.66699 0 -5.5 2.16699 -8.5 6.5z" />
    <glyph glyph-name="question" unicode="?" horiz-adv-x="241" 
d="M96 127c0 102 6.33398 192.998 19.001 272.998c3.33301 20.667 8.66602 45 15.999 73c8.66699 36 15 66.667 19 92s6 49 6 71c0 34 -4 63.333 -12 88c-6 16.667 -14 25 -24 25h-11c-23.333 0 -35 -20.667 -35 -62c0 -12 2.33301 -32.333 7 -61
c-6 -2.66699 -11.667 -4 -17 -4c-4.66699 0 -7.33398 1.33301 -8.00098 4c-4.66699 23.333 -7 44 -7 62c0 20.667 4 39.334 12 56.001c4 8 10 14.5 18 19.5s17.333 7.5 28 7.5c27.333 0 45.333 -7.33301 54 -22c6.66699 -13.333 11.834 -30.5 15.501 -51.5
s5.5 -41.167 5.5 -60.5c0 -59.333 -10.667 -125.666 -32 -198.999c-8.66699 -30.667 -16.167 -69.667 -22.5 -117s-9.5 -96.333 -9.5 -147l1 -56c0 0.666992 -0.166992 1 -0.5 1h-0.5c-5.33301 -2.66699 -9 -4 -11 -4c-6 0 -9.66699 4 -11 12zM91.501 3.49805
c-4.33301 5 -6.5 10.499 -6.5 16.499c0 6.66699 2.66699 12.834 8 18.501s11.333 8.5 18 8.5c6 0 11.5 -2.83301 16.5 -8.5s7.5 -11.5 7.5 -17.5c0 -16.667 -9.33301 -25 -28 -25c-6 0 -11.167 2.5 -15.5 7.5z" />
    <glyph glyph-name="at" unicode="@" horiz-adv-x="519" 
d="M100 78c0 7.33301 -2.66992 16.3301 -8.00293 26.9971c-3.33301 8 -5 12.333 -5 13c-6.66699 18.667 -13.834 68 -21.501 148s-11.5 138.667 -11.5 176c0 91.333 5.66699 165.333 17 222c5.33301 26.667 10.5 48 15.5 64s11.5 31 19.5 45
c8.66699 15.333 18.834 27.333 30.501 36s26.5 15.667 44.5 21c20 4.66699 40.667 7 62 7s41.5 -3.33301 60.5 -10s35.167 -15.334 48.5 -26.001c11.333 -9.33301 22.666 -22.833 33.999 -40.5s20.333 -35.167 27 -52.5c5.33301 -13.333 11 -32.166 17 -56.499
s10.333 -44.5 13 -60.5c0.666992 -5.33301 1.83398 -12.666 3.50098 -21.999s3.5 -22 5.5 -38l3 -16c10 -72 15 -116 15 -132c0 -110 -24.667 -165 -74 -165c-10 0 -19.667 3.66699 -29 11c-8.66699 6.66699 -16 11.334 -22 14.001c-8.66699 -20.667 -22.167 -38 -40.5 -52
s-37.5 -21 -57.5 -21c-12.667 0 -24.167 3 -34.5 9s-18.833 13.667 -25.5 23c-12.667 16.667 -22.667 42 -30 76c-4.66699 24.667 -7.66699 54.334 -9 89.001c-0.666992 8 -1 21.667 -1 41v25c0 26.667 1.33301 55 4 85c2.66699 28 8.33398 54.667 17.001 80
c5.33301 13.333 11.5 24 18.5 32s15.833 14.333 26.5 19c10.667 5.33301 22.667 8 36 8c26 0 47.667 -9.66699 65 -29c3.33301 -4 7.33301 -17 12 -39c5.33301 -30 13.333 -87.333 24 -172l9 -87c2.66699 -30 4.66699 -47.667 6 -53l11 -5c8 -16.667 15 -25 21 -25
c26 0 39 47.333 39 142c0 108 -18.667 211.333 -56 310c-15.333 39.333 -33.666 67.333 -54.999 84s-50.333 25 -87 25c-32 0 -58 -6.66699 -78 -20c-16 -10.667 -29.333 -28.667 -40 -54c-8 -20.667 -13.333 -46 -16 -76l-3 -42l-1 -15l-1 -18c0 -4 -0.333008 -9 -1 -15
s-1.66699 -11.667 -3 -17c-0.666992 -2.66699 -1.66699 -7.16699 -3 -13.5s-3 -11.833 -5 -16.5l2 -39c0 -13.333 -1.33301 -24 -4 -32c1.33301 -4 2 -8.33301 2 -13c0 -32 1.33301 -59.333 4 -82l5 -46c4.66699 -39.333 7.66699 -74 9 -104c2 -30.667 4 -52.167 6 -64.5
s6.66699 -28.5 14 -48.5c10 -26 24 -50.5 42 -73.5s36.667 -34.5 56 -34.5c36 0 67.667 6.16699 95 18.5s55 32.5 83 60.5c12.667 12.667 20 19 22 19l9 -9c-4.66699 -16 -15.167 -31.5 -31.5 -46.5s-35.166 -27.167 -56.499 -36.5s-42.333 -16.5 -63 -21.5
s-38.667 -7.5 -54 -7.5c-48.667 0 -91 39 -127 117zM286.497 216.997c11 12 20.166 26.666 27.499 43.999s11 32.333 11 45v75v21l-2 20l-2 21c-1.33301 4.66699 -2 8.66699 -2 12s-0.333008 6 -1 8c-2 20.667 -4.33301 34 -7 40c0 -0.666992 -1.33301 6.33301 -4 21
c-2 12 -3.33301 18.667 -4 20l-3 20c-0.666992 4.66699 -1.66699 10.334 -3 17.001s-3.33301 13.667 -6 21c-2.66699 6.66699 -5.66699 11.667 -9 15s-7.66602 6.33301 -12.999 9c-8 2.66699 -14.667 4 -20 4c-10.667 0 -20.167 -3.5 -28.5 -10.5s-14.5 -15.833 -18.5 -26.5
c-4 -9.33301 -7.16699 -21.5 -9.5 -36.5s-3.83301 -28.833 -4.5 -41.5v-39v-128c0 -22 0.5 -39.833 1.5 -53.5s3.5 -28.167 7.5 -43.5c8 -34.667 27 -52 57 -52c10.667 0 21.5 6 32.5 18z" />
    <glyph glyph-name="A" unicode="A" horiz-adv-x="353" 
d="M249.5 5c-3.66699 3.33301 -5.50195 7.33398 -5.50195 12.001v131c0 8 -17 15.333 -51 22s-62 10 -84 10c-1.33301 0 -3.5 -5 -6.5 -15l-6.5 -22c-8.66699 -34.667 -17.334 -71.667 -26.001 -111l-5 -22c-1.33301 -5.33301 -4.66602 -8 -9.99902 -8
s-10.166 1.66699 -14.499 5s-6.5 7.33301 -6.5 12l1 2v1l11 50c8 31.333 15 62 21 92c6.66699 34 11.667 56 15 66c5.33301 22 16 77 32 165l6 33c17.333 102.667 29.333 167.334 36 194.001c3.33301 16 9.33301 39.667 18 71c3.33301 13.333 8 26.666 14 39.999
c6 11.333 11 17 15 17c10.667 0 18.334 -3.33301 23.001 -10c3.33301 -6 8.5 -39 15.5 -99s13.167 -120.667 18.5 -182l13 -166c0 -28.667 2 -72 6 -130c4 -58.667 6 -102.334 6 -131.001v-4c0 -7.33301 -1 -14 -3 -20c-2.66699 -5.33301 -9 -8 -19 -8
c-5.33301 0 -9.83301 1.66699 -13.5 5zM242.998 203.001c0 41.333 -2.33301 97.8311 -7 169.498s-9.66699 134.834 -15 189.501c-1.33301 23.333 -4 49 -8 77l-4 39c0 -0.666992 -0.666992 3 -2 11l-2 12c-5.33301 -14.667 -10.5 -35 -15.5 -61s-10.167 -56.667 -15.5 -92
c-16 -99.333 -29.667 -174 -41 -224l-9 -34c-10 -33.333 -15 -58.666 -15 -75.999v-6c29.333 -9.33301 63 -14 101 -14h6c2 -0.666992 4.33301 -1 7 -1c13.333 0 20 3.33301 20 10z" />
    <glyph glyph-name="B" unicode="B" horiz-adv-x="322" 
d="M75 8c0 28 1.00195 70.3301 3.00195 126.997l2 126c0 46.667 -1 116.334 -3 209.001c-2.66699 82 -4 151.333 -4 208c0 48 8.66699 72 26 72c44.667 0 79.167 -14.333 103.5 -43s36.5 -66.667 36.5 -114c0 -53.333 -21.333 -108.666 -64 -165.999
c35.333 -35.333 60.166 -69 74.499 -101s21.5 -70.333 21.5 -115c0 -27.333 -0.833008 -49.166 -2.5 -65.499s-4.83398 -31.5 -9.50098 -45.5c-4.66699 -14.667 -11.167 -27.334 -19.5 -38.001s-19.5 -20.667 -33.5 -30c-13.333 -9.33301 -30.666 -18.666 -51.999 -27.999
l-20 -5c-8.66699 -3.33301 -15.334 -5 -20.001 -5h-2c-24.667 0 -37 4.66699 -37 14zM153.002 450.997c13.333 12.667 24.332 29.333 32.999 50c8.66699 19.333 15.334 39.5 20.001 60.5s7 40.167 7 57.5c0 23.333 -8.5 45.333 -25.5 66s-36.167 31 -57.5 31
c-17.333 0 -26 -14.333 -26 -43c0 -44.667 0.666992 -84.667 2 -120l2 -120l3 -1c14.667 0 28.667 6.33301 42 19zM181.501 53.4961c19 13.667 34 31.833 45 54.5s16.5 47 16.5 73c0 119.333 -28.667 191 -86 215c-5.33301 0 -14 -1.66699 -26 -5c-11.333 -4 -19 -6 -23 -6
c3.33301 -108.667 5 -225.667 5 -351h3l3 -1c22.667 0 43.5 6.83301 62.5 20.5z" />
    <glyph glyph-name="C" unicode="C" horiz-adv-x="330" 
d="M143 6c-20.667 14.667 -35.335 31.3369 -44.002 50.0039c-8 17.333 -16.167 72.333 -24.5 165s-12.5 161.667 -12.5 207v53c-0.666992 15.333 -1 32.333 -1 51c0 34.667 2 69 6 103c2.66699 16.667 6.16699 31 10.5 43s10.5 23.667 18.5 35
c14.667 22.667 36.667 37.667 66 45c15.333 4 32.333 6 51 6c12.667 0 25.5 -3.66699 38.5 -11s19.5 -16 19.5 -26c0 -7.33301 -5.33301 -11 -16 -11c-4 0 -11.667 2.33301 -23 7c-10 4.66699 -19 7 -27 7c-18.667 0 -35.5 -3.83301 -50.5 -11.5
s-26.833 -17.834 -35.5 -30.501c-7.33301 -10.667 -13.666 -25.334 -18.999 -44.001s-8.66602 -37.334 -9.99902 -56.001c-2 -16.667 -3 -36.667 -3 -60l1 -56c0.666992 -16 1 -33.333 1 -52c0 -46 4.66699 -113.667 14 -203s18.333 -141 27 -155
c8 -12.667 19.833 -22.334 35.5 -29.001s32.167 -10 49.5 -10c30.667 0 54 9.66699 70 29c6 8 12.333 12 19 12c6 0 9 -4.66699 9 -14c0 -12 -3.66699 -22.5 -11 -31.5s-17.333 -15.833 -30 -20.5c-21.333 -9.33301 -44.666 -14 -69.999 -14
c-18.667 0 -38.334 7.33301 -59.001 22z" />
    <glyph glyph-name="D" unicode="D" horiz-adv-x="381" 
d="M92 4c-8 4 -11.9971 8.66504 -11.9971 13.998c0 4 2.66699 10.667 8 20c5.33301 8.66699 7.66602 15.334 6.99902 20.001l-3 88l-7 273l-2 121c-0.666992 74 -2.33398 120.333 -5.00098 139c-1.33301 7.33301 -4 15.666 -8 24.999c-4.66699 12.667 -7 21.667 -7 27
c0 16 25.333 24 76 24h5c34 0 63.333 -11.667 88 -35c19.333 -18 36.666 -46.333 51.999 -85c10.667 -30.667 18.667 -65 24 -103c2.66699 -20 5 -50.667 7 -92v-31c0 -41.333 -5.5 -86.166 -16.5 -134.499s-26.5 -93.5 -46.5 -135.5c-12 -26.667 -27.5 -50.667 -46.5 -72
s-37.167 -38.166 -54.5 -50.499s-29 -18.5 -35 -18.5c-8 0 -16 2 -24 6zM131.003 48.998c24.667 12.667 46.667 31.1689 66 55.502s34.666 51.166 45.999 80.499c10 24.667 18.333 52.834 25 84.501s11.334 61.167 14.001 88.5c2 24 3 47 3 69
c0 194.667 -53.667 292 -161 292c-14 0 -21 -3.66699 -21 -11c0 -23.333 1.33301 -51 4 -83c2.66699 -32.667 4 -60.334 4 -83.001c0 -36.667 2.66699 -100.334 8 -191.001c4.66699 -78.667 7 -142 7 -190v-112h5z" />
    <glyph glyph-name="E" unicode="E" horiz-adv-x="249" 
d="M80.5 -1.5c-6.33301 3 -9.49902 8.83203 -9.49902 17.499v19c-0.666992 5.33301 -1 11.333 -1 18v2l1 146l-1 413c0 42.667 -0.666992 79.667 -2 111c0 8 1.66699 14.667 5 20s7.66602 8 12.999 8h62c9.33301 0 16.333 -0.666992 21 -2c6.66699 -2 10 -7.66699 10 -17
c0 -5.33301 -2 -9.66602 -6 -12.999s-8.33301 -5.33301 -13 -6h-17l-16 1l-16 1c-4.66699 0 -7.83398 -0.833008 -9.50098 -2.5s-2.5 -4.83398 -2.5 -9.50098c0 -31.333 0.333008 -59.666 1 -84.999v-85v-125c0 -1.33301 0.666992 -2 2 -2h1h1c16.667 1.33301 34.667 2 54 2
c10.667 0 16 -4.66699 16 -14c0 -6.66699 -1.16699 -11.167 -3.5 -13.5s-6.16602 -3.5 -11.499 -3.5h-57c-2.66699 0 -4 -1.66699 -4 -5l2 -148c1.33301 -46 2 -99 2 -159v-37h43h42h9c12 0 18 -4.33301 18 -13c0 -10.667 -3 -17 -9 -19c-8 -2.66699 -24.333 -4 -49 -4h-42
c-16 0 -27.167 1.5 -33.5 4.5z" />
    <glyph glyph-name="F" unicode="F" horiz-adv-x="256" 
d="M95 24v73.999l-3 61c-6 109.333 -9 189.666 -9 240.999c0 28 -3.66699 115.333 -11 262c-1.33301 32 -2.33301 52.5 -3 61.5s-1 13.833 -1 14.5v7c0 4.66699 3.33301 7.66699 10 9c4 1.33301 15.667 2 35 2h22h28c5.33301 0 9.33301 -2.16699 12 -6.5s4 -9.83301 4 -16.5
s-6 -10 -18 -10l-23 1h-26c-5.33301 0 -8.66602 -1 -9.99902 -3s-2 -7.33301 -2 -16c0 -13.333 2.33301 -62 7 -146s7 -133 7 -147c8 0 19.333 2 34 6c15.333 4 26.666 6 33.999 6c4 0 7.5 -2.33301 10.5 -7s4.5 -9 4.5 -13c0 -7.33301 -5.33301 -12.166 -16 -14.499
s-26 -4.16602 -46 -5.49902c-14 -2 -21 -6 -21 -12c0 -30 3.33301 -86 10 -168c6 -74.667 9 -131 9 -169l-3 -5c2 -4.66699 3 -9 3 -13c0 -12.667 -7.33301 -19 -22 -19c-10.667 0 -16 8.66699 -16 26z" />
    <glyph glyph-name="G" unicode="G" horiz-adv-x="384" 
d="M97 92c-24 72 -35.998 184.001 -35.998 336.001c0 32.667 0.666992 61.667 2 87c1.33301 30.667 6 63.667 14 99c3.33301 18 7.5 33.667 12.5 47s11.833 27.333 20.5 42c15.333 26.667 36.666 45.334 63.999 56.001c14.667 5.33301 30 8 46 8c20 0 30 -5.66699 30 -17
c0 -8 -5 -12 -15 -12c-2.66699 0 -7.33398 1 -14.001 3l-14 2c-22 0 -41 -9 -57 -27c-11.333 -13.333 -22.333 -36.333 -33 -69c-7.33301 -26.667 -12.333 -56.334 -15 -89.001c-2 -18 -4 -47.333 -6 -88l-1 -66v-55c0 -64.667 4.66699 -123.667 14 -177
c6.66699 -33.333 14.5 -61 23.5 -83s21.167 -40 36.5 -54c16.667 -15.333 34.667 -23 54 -23c35.333 0 63.666 16.667 84.999 50c0 18 -1.33301 41.667 -4 71c-2 14.667 -4.66699 28.334 -8 41.001c-4 11.333 -8.66699 17 -14 17l-19 -2l-21 -2
c-15.333 0 -23 5.66699 -23 17c0 5.33301 9.33301 10.333 28 15s34.334 7 47.001 7c10.667 0 18.5 -3.83301 23.5 -11.5s7.5 -17.834 7.5 -30.501c0 -14.667 3.33301 -44.334 10 -89.001c6.66699 -37.333 10 -67 10 -89c0 -10.667 -4.33301 -16 -13 -16
c-16 0 -24 7.33301 -24 22l1 3v2c-38 -22 -71.667 -33 -101 -33c-50 0 -87 36 -111 108z" />
    <glyph glyph-name="H" unicode="H" horiz-adv-x="327" 
d="M229 -6c-2 2.66699 -3 6.66406 -3 11.9971v12c0.666992 2.66699 1 6.33398 1 11.001c0 91.333 -3.33301 207 -10 347h-7h-19h-19c-37.333 0 -60.666 -1 -69.999 -3c0 -48.667 2.66699 -109 8 -181c6 -82 9 -142.333 9 -181c0 -10 -3.66699 -15 -11 -15
c-10 0 -15 4.66699 -15 14c-0.666992 32.667 -2.16699 77.834 -4.5 135.501s-4.5 106.5 -6.5 146.5c-12.667 158.667 -19 310.667 -19 456c0 6.66699 4.33301 10 13 10c4 0 7.16699 -1.16699 9.5 -3.5s3.16602 -5.5 2.49902 -9.5v-74c0 -18 1.66699 -52 5 -102l2 -34
c1.33301 -37.333 2 -59.666 2 -66.999v-49c0 -17.333 1.66699 -26 5 -26l38 2l20 2c33.333 2.66699 52.333 4 57 4l1 2c0 29.333 -1.66699 85.666 -5 168.999c-3.33301 84.667 -5 141.334 -5 170.001c0 8 4.66699 12 14 12c4.66699 0 8.66699 -1.16699 12 -3.5
s5 -5.5 5 -9.5c0 -130 2.33301 -273 7 -429c4.66699 -156.667 7 -252.667 7 -288v-14c0 -5.33301 -1.16699 -10 -3.5 -14s-5.5 -6 -9.5 -6c-5.33301 0 -9 1.33301 -11 4z" />
    <glyph glyph-name="I" unicode="I" horiz-adv-x="270" 
d="M82 5c-4.66699 0 -8.83105 1.66797 -12.498 5.00098s-5.5 7 -5.5 11c0 8.66699 5.66699 13 17 13h39c0 76.667 -2.33301 173.334 -7 290.001c-2.66699 93.333 -5.33398 166.666 -8.00098 219.999l1 51v66c0 33.333 -0.666992 54.666 -2 63.999h-35
c-6.66699 0 -10 4.66699 -10 14c0 6 2.66699 10.667 8 14c4.66699 2 17 3 37 3h28c10 -0.666992 22.667 -1 38 -1c5.33301 0 9.66602 -1.16699 12.999 -3.5s5 -5.83301 5 -10.5c0 -4 -1 -7.66699 -3 -11s-5 -5 -9 -5c-4.66699 0 -8.66699 0.333008 -12 1h-12h-10
c-6.66699 0 -10.667 -0.666992 -12 -2l-2 -4c0 -52 4.33301 -157 13 -315c8 -146 12 -251 12 -315v-28c-0.666992 -8.66699 -1 -17.667 -1 -27h36c15.333 0 23 -4.66699 23 -14c0 -4 -1.5 -7.83301 -4.5 -11.5s-6.16699 -5.5 -9.5 -5.5h-54c-16 0.666992 -36.333 1 -61 1z
" />
    <glyph glyph-name="J" unicode="J" horiz-adv-x="232" 
d="M34 -78c0.666992 6.66699 8.66699 14.6689 24 24.002l12 9c29.333 28.667 44 79.667 44 153c0 45.333 -1.66699 94.666 -5 147.999c-3.33301 71.333 -5 116.333 -5 135l-6 155c-3.33301 88 -5 148.333 -5 181c-10.667 0 -20.667 -0.333008 -30 -1l-30 -1
c-4 0 -7.16699 1.5 -9.5 4.5s-3.5 6.5 -3.5 10.5c0 8 2.66699 13 8 15c5.33301 2.66699 18 4 38 4l38 -1h53c4.66699 0 8.5 -1.66699 11.5 -5s4.5 -7 4.5 -11c0 -6 -1.83301 -10 -5.5 -12s-10.834 -3 -21.501 -3h-22c0 -90 3.66699 -202.333 11 -337
c1.33301 -18 2.66602 -48.667 3.99902 -92c4.66699 -83.333 7 -133 7 -149c0 -28 -0.5 -50 -1.5 -66s-3.16699 -33.333 -6.5 -52c-3.33301 -19.333 -8.16602 -35.833 -14.499 -49.5s-15.166 -27.167 -26.499 -40.5c-11.333 -14.667 -25.333 -27.334 -42 -38.001
c-14 0 -21 6.33301 -21 19z" />
    <glyph glyph-name="K" unicode="K" horiz-adv-x="315" 
d="M278 -9c-0.666992 4 -8.66504 32 -23.998 84l-35 122c-36.667 126.667 -60.334 205 -71.001 235l-6 17c-0.666992 -1.33301 -1.83398 -3.33301 -3.50098 -6l-8.5 -13c-8 -14.667 -14.667 -26 -20 -34l-14 -23v-356c0 -11.333 -1 -19.166 -3 -23.499
s-6.33301 -6.5 -13 -6.5s-11.167 2.33301 -13.5 7s-3.5 13 -3.5 25v302c0 39.333 1 103.333 3 192l2 192c0 12.667 0.666992 24.334 2 35.001c2 8 5.66699 12 11 12c10 0 16 -2.33301 18 -7c2.66699 -4.66699 4 -16.667 4 -36l-2 -166l-2 -121h1c12.667 28 30.667 70 54 126
l37 93c37.333 92.667 61 139 71 139c4.66699 0 8.66699 -1.33301 12 -4s5 -6.33398 5 -11.001c-2 -12.667 -7.33301 -26 -16 -40l-10 -18l-50 -120c-26.667 -64.667 -41 -98.667 -43 -102c-0.666992 -4.66699 -0.333984 -8.66699 0.999023 -12
c13.333 -34 28.333 -76 45 -126s30.334 -93.333 41.001 -130l34.5 -122c11.667 -41.333 19.834 -71 24.501 -89c1.33301 -4 2 -6.33301 2 -7c0 -4.66699 -1.83301 -8.33398 -5.5 -11.001s-7.83398 -4 -12.501 -4c-6 0 -10 2.33301 -12 7z" />
    <glyph glyph-name="L" unicode="L" horiz-adv-x="247" 
d="M92.5 0c-3 4 -4.5 9 -4.5 15v16v24c0 42 -1.66699 89.333 -5 142c-2.66699 56 -4 103.333 -4 142c0 36 -1.66699 105.667 -5 209c-4 93.333 -6 163 -6 209c0 3.33301 1.5 6.16602 4.5 8.49902s6.5 3.5 10.5 3.5c12 0 18 -5 18 -15c0 -123.333 1 -215.666 3 -276.999
l5 -179c0 -28 2 -73.667 6 -137l6 -124c0 -2 1 -3 3 -3c0.666992 -0.666992 5 -1 13 -1h62c8.66699 0 13 -6 13 -18c0 -5.33301 -1 -9.83301 -3 -13.5s-5 -5.5 -9 -5.5l-7 -1h-8c-14 -0.666992 -41 -1 -81 -1c-4.66699 0 -8.5 2 -11.5 6z" />
    <glyph glyph-name="M" unicode="M" horiz-adv-x="458" 
d="M352.5 -16.5c-3 4.33301 -4.50195 11.5 -4.50195 21.5v91c0 45.333 -1.33301 100.333 -4 165c-0.666992 12 -1 29.333 -1 52c-2 47.333 -3 84.666 -3 111.999l1 56c0.666992 16.667 1 35.334 1 56.001c0 18 -0.333008 34 -1 48c-0.666992 10 -1.16699 18.333 -1.5 25
s-0.833008 12 -1.5 16l-2 -7c-7.33301 -48.667 -18.333 -112.667 -33 -192l-36 -191c-9.33301 -42.667 -15.333 -73 -18 -91c-1.33301 -8.66699 -4.16602 -15.667 -8.49902 -21s-9.16602 -8 -14.499 -8s-10 2.66699 -14 8s-6.33301 13 -7 23
c-4.66699 32 -21.667 121.333 -51 268s-45.666 222.667 -48.999 228c-2 -60 -3 -127.333 -3 -202c0 -58.667 0.333008 -111.667 1 -159s1 -100.333 1 -159c0 -10 1 -25.667 3 -47l2 -48c0 -12.667 -2.33301 -21.334 -7 -26.001c-19.333 0 -29 17.333 -29 52v167l1 101
c0.666992 30 1 64 1 102c0 44 0.333008 83.333 1 118l2 119v88c0 3.33301 1.5 6.33301 4.5 9s6.16699 4 9.5 4c5.33301 0 9 -2.66699 11 -8c6 -20 21 -79 45 -177s42 -173.667 54 -227c6 -31.333 15.667 -86.666 29 -165.999l7 39c2 12 5 28.667 9 50c8 52 13 81.333 15 88
l46 245l9 52l11 56l5 30c0.666992 6.66699 2.66699 11.834 6 15.501s7 5.5 11 5.5c3.33301 0 6.33301 -1.66699 9 -5s4 -8 4 -14v-99c0 -50 3 -125.667 9 -227c4.66699 -93.333 7 -168.333 7 -225c0 -18 1 -45.667 3 -83c1.33301 -48 2 -81.333 2 -100
c0 -14.667 -1 -24.334 -3 -29.001c-2.66699 -4 -6.33398 -6 -11.001 -6c-8.66699 0 -14.5 2.16699 -17.5 6.5z" />
    <glyph glyph-name="N" unicode="N" horiz-adv-x="380" 
d="M259 -4c-4 4.66699 -6.66504 9.99902 -7.99805 15.999l-3 19c-2 8 -3 13 -3 15c-74.667 267.333 -115.667 417.333 -123 450c-6 24 -19.667 90.667 -41 200c-0.666992 -4 -1 -17.667 -1 -41v-362l2 -143l2 -142l-6 -8h-23l-3 8c1.33301 6.66699 2 20 2 40l-1 174l-2 174
v131v95c-0.666992 28 -1 59.333 -1 94c0 4 -0.333008 7.66699 -1 11v10c0 8 2.16699 13.5 6.5 16.5s11.166 4.5 20.499 4.5c4 0 8.5 -2 13.5 -6s8.16699 -8.33301 9.5 -13l21 -98c9.33301 -46.667 17.333 -82 24 -106l72 -272c19.333 -82.667 36.666 -146 51.999 -190
c4 10 6 26 6 48c0 64.667 0.666992 122.667 2 174l2 174c0 28.667 0.333008 54.667 1 78v77l-1 141c3.33301 9.33301 10.333 14 21 14c5.33301 0 8 -9.66699 8 -29c0 -8.66699 -0.333008 -15.667 -1 -21c0 -5.33301 -0.166992 -9.16602 -0.5 -11.499
s-0.5 -3.83301 -0.5 -4.5v-64c0 -88.667 -0.333008 -167.667 -1 -237c-0.666992 -70 -1 -148.667 -1 -236c0 -16.667 -1 -43 -3 -79l-2 -79c0 -19.333 -8.66699 -29 -26 -29c-4.66699 0 -9 2.33301 -13 7z" />
    <glyph glyph-name="O" unicode="O" horiz-adv-x="368" 
d="M61 460v39.998c0 56 3.33301 104.667 10 146c4 26 9.5 47.333 16.5 64s16.5 30 28.5 40c11.333 11.333 26 17 44 17c16 0 30.667 -3.16699 44 -9.5s24.333 -14.5 33 -24.5c7.33301 -9.33301 14 -21.666 20 -36.999s10.667 -30 14 -44l8 -47c16 -114 24 -215 24 -303v-3
c0 -33.333 -0.666992 -64 -2 -92c-1.33301 -33.333 -5 -68.333 -11 -105c-2.66699 -18 -6.5 -33.667 -11.5 -47s-11.5 -26.666 -19.5 -39.999c-14 -24 -33.667 -36 -59 -36c-92.667 0 -139 160.333 -139 481zM231 25.498c8.66699 12.333 15.332 29.5 19.999 51.5
c10.667 46.667 17.334 92.334 20.001 137.001c1.33301 36 2 71 2 105v4l-1 100c-1.33301 36 -5.33301 82.667 -12 140c-5.33301 40.667 -16.333 82.334 -33 125.001c-6.66699 16.667 -15.5 29.667 -26.5 39s-22.833 14 -35.5 14c-11.333 0 -21.333 -5.33301 -30 -16
s-15.667 -25.667 -21 -45c-12 -44.667 -18.667 -86 -20 -124c-2 -32.667 -3 -66.334 -3 -101.001v-49c0 -44.667 4.33301 -101.334 13 -170.001c5.33301 -43.333 12 -81 20 -113s18.667 -59 32 -81c13.333 -23.333 28.666 -35 45.999 -35
c10.667 0 20.334 6.16699 29.001 18.5z" />
    <glyph glyph-name="P" unicode="P" horiz-adv-x="276" 
d="M76 29c0 33.333 -0.333008 63.001 -1 89.001l-2 90v81c-0.666992 24 -1 51 -1 81c0 89.333 -1.66699 172 -5 248l-1 36c-2 39.333 -3 71.333 -3 96l3 4c0.666992 1.33301 2 3 4 5c0.666992 2 2.33398 3.33301 5.00098 4c1.33301 0.666992 3.66602 1 6.99902 1
c23.333 0 44.5 -5.33301 63.5 -16s34.5 -25.334 46.5 -44.001c23.333 -36.667 35 -78.334 35 -125.001c0 -30 -4.83301 -60.667 -14.5 -92s-24.167 -59.666 -43.5 -84.999c-20 -27.333 -42.333 -43.333 -67 -48l2 -111l2 -54c2.66699 -64 4 -118.667 4 -164
c0 -10.667 -1.5 -18.5 -4.5 -23.5s-8.83301 -7.5 -17.5 -7.5c-8 0 -12 11.667 -12 35zM120 399.001c1.33301 0.666992 3.66699 3.33203 7 7.99902l7 7c43.333 43.333 65 97.666 65 162.999c0 37.333 -7.33301 72 -22 104c-8 16.667 -19.667 29.834 -35 39.501
s-33.333 14.5 -54 14.5c0 -38 2 -95 6 -171s6 -133 6 -171l2 -2c6 0.666992 12 3.33398 18 8.00098z" />
    <glyph glyph-name="Q" unicode="Q" horiz-adv-x="369" 
d="M276 -132c-7.33301 4.66699 -12 7.00098 -14 7.00098c-12 5.33301 -21.333 15 -28 29s-12 34.333 -16 61c-4 26 -7.33301 42 -10 48c-18.667 0 -35.667 3.16699 -51 9.5s-28.333 15.166 -39 26.499c-18 18.667 -32.333 47.334 -43 86.001c-4 13.333 -7 29.666 -9 48.999
s-3 36.333 -3 51c-0.666992 8.66699 -1 23.667 -1 45v45c-0.666992 14 -1 30.333 -1 49c0 40 1 85.333 3 136c2 44 6.33301 86.667 13 128c6.66699 38.667 17 70 31 94c14 25.333 33 38 57 38c23.333 0 46.5 -9.5 69.5 -28.5s36.167 -39.833 39.5 -62.5
c18.667 -106.667 28 -236.334 28 -389.001c0 -116.667 -20.667 -204.667 -62 -264c0 -4 1.66699 -10.333 5 -19l5 -14l3 -27c2 -18 3.83301 -30.667 5.5 -38s5.16699 -14.666 10.5 -21.999c6 -8 14.333 -12 25 -12h4c21.333 0 32 -4.33301 32 -13
c0 -12.667 -12.667 -19 -38 -19c-2.66699 0 -8 2 -16 6zM250 133.001c11.333 64.667 16.998 164.669 16.998 300.002v26l-1 63l-1 27c-0.666992 16 -2.33398 31.5 -5.00098 46.5l-8 45.5c-4.66699 25.333 -15 49.333 -31 72c-13.333 19.333 -32.666 29 -57.999 29
c-10.667 0 -20 -7.33301 -28 -22c-13.333 -23.333 -24.333 -70 -33 -140c-6 -46.667 -9.66699 -103.334 -11 -170.001c-0.666992 -14.667 -1 -35.334 -1 -62.001v-60c0 -38 4 -76.333 12 -115c4.66699 -26.667 10.834 -49.167 18.501 -67.5s17.834 -33.833 30.501 -46.5
c13.333 -13.333 28.666 -20 45.999 -20c24.667 0 42.334 31.333 53.001 94z" />
    <glyph glyph-name="R" unicode="R" horiz-adv-x="283" 
d="M219 10l-12.001 44.002c-18.667 62 -32.334 114.333 -41.001 157c-5.33301 23.333 -12 55.666 -20 96.999c-9.33301 48 -18 87 -26 117l-10 -6l-13 -6l2 -385v-15c0 -13.333 -6 -20 -18 -20c-5.33301 0 -9.66602 1.66699 -12.999 5s-5 7.33301 -5 12v15l2 202l2 97
c2.66699 116.667 4 216 4 298v129c0 6 6 9 18 9c17.333 0 33.5 -4.66699 48.5 -14s26.833 -22 35.5 -38c18 -32.667 27 -68.334 27 -107.001c0 -30.667 -6.66699 -64 -20 -100c-4 -10 -9 -21.5 -15 -34.5s-11.333 -21.833 -16 -26.5c14 -51.333 34.333 -130.333 61 -237
l47 -180c0.666992 -2 1 -5.66699 1 -11c0 -6 -1.16699 -11.167 -3.5 -15.5s-5.83301 -6.5 -10.5 -6.5c-13.333 0 -21.666 6.66699 -24.999 20zM122.999 465.002c12.667 12.667 21.666 23.332 26.999 31.999c4.66699 9.33301 8.66699 23.333 12 42s5 35.334 5 50.001
c0 27.333 -4.66699 55.333 -14 84c-4.66699 16.667 -11.667 30.167 -21 40.5s-19.666 15.5 -30.999 15.5h-2c-0.666992 -0.666992 -1.66699 -1 -3 -1v-282c5.33301 0 14.333 6.33301 27 19z" />
    <glyph glyph-name="S" unicode="S" horiz-adv-x="303" 
d="M87.5 -20.5c-6.33301 1 -13.167 3.16797 -20.5 6.50098c-8 4 -14 9.66699 -18 17c0 8 3.66699 12 11 12s16.666 -2.33301 27.999 -7c10.667 -5.33301 19.667 -8 27 -8c14.667 0 28.167 6 40.5 18s21.833 27.667 28.5 47c13.333 38 20 71.667 20 101
c0 32.667 -4.66699 65.667 -14 99s-21.666 64.666 -36.999 93.999c-3.33301 7.33301 -9 18.333 -17 33l-38 78c-8.66699 18.667 -16.334 39.334 -23.001 62.001c-9.33301 30 -14 62.333 -14 97c0 22 3.5 43.167 10.5 63.5s18.167 37.833 33.5 52.5
c16.667 15.333 35.334 23 56.001 23c8 0 17.667 -3.16699 29 -9.5s17 -12.5 17 -18.5c0 -5.33301 -2 -8 -6 -8s-9.33301 1.66699 -16 5c-6 3.33301 -11.667 5 -17 5c-15.333 0 -28.833 -5.66699 -40.5 -17s-20.167 -25.333 -25.5 -42c-4.66699 -14 -7 -29.333 -7 -46
c0 -26 3.33301 -52.833 10 -80.5s15.667 -53.5 27 -77.5l35 -73l10 -21c14 -28.667 24.833 -52.334 32.5 -71.001s14.167 -39.667 19.5 -63c7.33301 -31.333 11 -61.333 11 -90c0 -38.667 -10 -78 -30 -118c-10 -19.333 -23.333 -35 -40 -47s-35 -18 -55 -18
c-12 0 -21.167 0.5 -27.5 1.5z" />
    <glyph glyph-name="T" unicode="T" horiz-adv-x="319" 
d="M150 1.5c-3.33301 5 -5 11.167 -5 18.5v89v89l-2 160c-2 71.333 -3 124.666 -3 159.999l1 29v65c0 72 -0.666992 108 -2 108h-113c-5.33301 0 -10.166 1.33301 -14.499 4s-6.5 6.33398 -6.5 11.001c0 5.33301 1 9 3 11s7.33301 3.66699 16 5c9.33301 2 22.666 3 39.999 3
h100l110 1c8 0 13.5 -1.33301 16.5 -4s4.5 -7 4.5 -13c0 -10 -6.33301 -15 -19 -15h-45h-44l-9 -1l1 -58v-78v-406v-83l1 -74v-2c0 -5.33301 -0.333008 -9.83301 -1 -13.5s-2 -6.5 -4 -8.5c-2 -3.33301 -5.33301 -5 -10 -5c-6.66699 0 -11.667 2.5 -15 7.5z" />
    <glyph glyph-name="U" unicode="U" horiz-adv-x="372" 
d="M164 -9c-13.333 6.66699 -24.333 15.334 -33 26.001c-8.66699 10 -16.334 22.333 -23.001 37s-12 29.334 -16 44.001c-6.66699 22.667 -11.667 51 -15 85l-2 31c0 6.66699 -0.166992 11 -0.5 13s-0.5 3.33301 -0.5 4c-3.33301 32.667 -7.5 104.667 -12.5 216
s-7.5 198 -7.5 260v7v8c0 17.333 5 26 15 26c14 0 21 -8 21 -24v-7l-1 -8c0 -77.333 2.33301 -168.833 7 -274.5s9.33398 -181.834 14.001 -228.501c3.33301 -29.333 9 -59.333 17 -90c5.33301 -20.667 11.166 -38 17.499 -52s14.5 -25.667 24.5 -35
c12 -10.667 23.667 -16 35 -16s21.5 2.66699 30.5 8s15.833 12.333 20.5 21c4.66699 7.33301 8.5 16.833 11.5 28.5s4.83301 22.834 5.5 33.501c0.666992 6.66699 1 17.667 1 33v114c0 50.667 -1.33301 113 -4 187l-4 128l-2 85c-2 37.333 -3 65.666 -3 84.999
c0 7.33301 2 13 6 17s8.66699 6 14 6s9.83301 -2 13.5 -6s5.5 -9.66699 5.5 -17v-76c0 -33.333 0.333008 -63.333 1 -90v-90c0 -64.667 0.666992 -121.334 2 -170.001c0.666992 -49.333 1 -104.666 1 -165.999c0 -16.667 -0.666992 -31.334 -2 -44.001s-4 -26 -8 -40
c-4 -16 -9.5 -29.5 -16.5 -40.5s-16.167 -20.167 -27.5 -27.5c-12.667 -7.33301 -26.667 -11 -42 -11s-29.666 3.33301 -42.999 10z" />
    <glyph glyph-name="V" unicode="V" horiz-adv-x="325" 
d="M171 -8c-8 2 -11.665 2.99902 -10.998 2.99902c-12 49.333 -25.333 123 -40 221l-55 357l-9 44c-14.667 57.333 -22 97.666 -22 120.999c0 4.66699 1.5 8.83398 4.5 12.501s6.16699 5.5 9.5 5.5c2 0 4.33301 -0.666992 7 -2c3.33301 -1.33301 6.33301 -5 9 -11
c2.66699 -5.33301 4 -10.333 4 -15l2 -14l14 -77l9 -53l50 -343l13 -95c5.33301 -32 9.66602 -62.333 12.999 -91l7 71l11 115l24 219c6 62 10.333 102.667 13 122l5 52l7 50c3.33301 20 5.66602 38.667 6.99902 56c1.33301 12.667 7.66602 19 18.999 19l6 -4h-2l10 -8
c0 -19.333 -2.66699 -47.666 -8 -84.999l-6 -39l-3 -25c-8.66699 -72.667 -14 -118 -16 -136l-31.5 -275c-11 -98.667 -16.833 -156.667 -17.5 -174c-5.33301 -14.667 -11.666 -22 -18.999 -22zM170.002 48.999l-1 3l-2 -3h3z" />
    <glyph glyph-name="W" unicode="W" horiz-adv-x="461" 
d="M132 9l-0.00390625 11.998c0.666992 2.66699 1 6 1 10v5l-18 121c-4.66699 25.333 -7.66699 43.666 -9 54.999c-6 46.667 -12.333 98.667 -19 156c-5.33301 45.333 -14.666 120 -27.999 224l-3 23c-10 75.333 -17.333 116.666 -22 123.999c2 3.33301 5 6.33301 9 9
s8 4 12 4c10 0 16.833 -1.66699 20.5 -5s5.5 -9.33301 5.5 -18v-9v-10v-11c20.667 -218 42.334 -422 65.001 -612h2c2 19.333 6 72.333 12 159l2 29c4.66699 84.667 7.33398 129.334 8.00098 134.001c2 20 6 49.333 12 88l12 81l3 46c0.666992 8 1.16699 14.833 1.5 20.5
s0.833008 9.83398 1.5 12.501l1 13c0 0.666992 0.5 1.66699 1.5 3s2.5 2.66602 4.5 3.99902c9.33301 0 15.333 -2.33301 18 -7c2 -2 3.33301 -4.16699 4 -6.5s1 -5.16602 1 -8.49902l2 -9c6.66699 -35.333 21 -127.333 43 -276s35.333 -246.667 40 -294l3 -2l37 405
c1.33301 25.333 5.66602 65.333 12.999 120c6.66699 55.333 10 100.333 10 135l-1 10v9c0 8.66699 2 14.834 6 18.501s10.667 5.5 20 5.5c4 0 8.16699 -1.66699 12.5 -5s6.5 -7 6.5 -11c0 -6.66699 -3.66699 -13 -11 -19c0.666992 -0.666992 1 -2.66699 1 -6
c0 -4 -0.5 -8.16699 -1.5 -12.5s-1.83301 -7.5 -2.5 -9.5c-7.33301 -60 -16.333 -148.333 -27 -265l-20 -207l-8 -79l-12 -101l-5 -51c0 -8 -1.16699 -14 -3.5 -18s-7.16602 -6 -14.499 -6c-10.667 0 -17 4 -19 12c-1.33301 4 -2.66602 13.333 -3.99902 28l-1 15
c-16 102.667 -40 285.334 -72 548.001l-3 2l-1 -1v-1l-50 -546v-18c0 -26 -5.66699 -39 -17 -39c-12.667 0 -19 7.33301 -19 22z" />
    <glyph glyph-name="X" unicode="X" horiz-adv-x="280" 
d="M39.5 -2c-3.66699 2.66699 -5.49609 5.32812 -5.49609 7.99512c0 6 6.33301 31.667 19 77c16.667 62.667 32 127 46 193l10 50c4 17.333 6.66699 34.333 8 51c0.666992 6 1 14 1 24c0 22 -1.83301 44.833 -5.5 68.5s-9.83398 53.834 -18.501 90.501l-16 69
c-1.33301 8.66699 -3.66602 17.334 -6.99902 26.001l-6 20c-6.66699 22.667 -10.667 41 -12 55c6 8.66699 11.333 13 16 13c5.33301 0 9.66602 -1.5 12.999 -4.5s5.33301 -6.5 6 -10.5c0.666992 -2 1 -7 1 -15c0.666992 -4 1 -8.33301 1 -13l24 -119l7 -35
c2.66699 -16 5.66699 -32.333 9 -49s6.33301 -32.334 9 -47.001c4 30.667 17 105.334 39 224.001l2 15c2 15.333 4.66699 30 8 44c2 8 4.83301 14.167 8.5 18.5s7.5 6.5 11.5 6.5c12 0 18 -3.66699 18 -11c0 -5.33301 -2 -13 -6 -23l-7 -17
c-9.33301 -36.667 -23 -99.667 -41 -189l-10 -54c-4.66699 -30 -7.33398 -48 -8.00098 -54c-1.33301 -12 -2 -20 -2 -24l53 -270l11 -51l2 -12c1.33301 -5.33301 2 -11.666 2 -18.999c0 -14 -5.33301 -21 -16 -21c-3.33301 0 -6.16602 0.166992 -8.49902 0.5
s-4.5 1.5 -6.5 3.5s-3 5 -3 9c0 12 -1.66699 30.333 -5 55c0 0.666992 -1.66699 10.334 -5 29.001c0.666992 -2.66699 -1 6 -5 26l-7 36c-15.333 77.333 -25 122.333 -29 135c-2.66699 -4.66699 -12.334 -45.167 -29.001 -121.5s-27.334 -128.166 -32.001 -155.499l-1 -7
l-2 -12c-1.33301 -3.33301 -3 -6.66602 -5 -9.99902c-0.666992 -2 -2 -3.33301 -4 -4s-3.66699 -1.33398 -5 -2.00098l-8 -1c-2.66699 0 -5.83398 1.33301 -9.50098 4z" />
    <glyph glyph-name="Y" unicode="Y" horiz-adv-x="252" 
d="M119 -4.5c-2.66699 5 -3.99902 10.4971 -3.99902 16.4971c0 21.333 1 53.333 3 96l2 97c0 9.33301 -1 23 -3 41c-2.66699 16 -4 29.333 -4 40c0 11.333 -2 27 -6 47c-4 21.333 -6 36.666 -6 45.999c0 8 -3.33301 27 -10 57c-2 6 -3.33301 10.833 -4 14.5
s-1.33398 6.16699 -2.00098 7.5c-2.66699 18.667 -7 41.667 -13 69c-11.333 62 -22.333 111 -33 147c-10 32 -15 53.667 -15 65c0 4.66699 2 8.5 6 11.5s8.66699 4.5 14 4.5l12 -8c2 -30 11 -83.5 27 -160.5s28 -121.167 36 -132.5
c1.33301 3.33301 4.66602 32.333 9.99902 87c4.66699 48.667 11.334 97 20.001 145c8 44 17.667 66 29 66c3.33301 0 6 -0.166992 8 -0.5s3.66699 -1.16602 5 -2.49902s2 -4 2 -8c0 -6 -1.33301 -13 -4 -21l-4 -20l-26 -149c-3.33301 -19.333 -6.33301 -43.166 -9 -71.499
s-4 -53.166 -4 -74.499c0 -6 0.333008 -11.333 1 -16c0.666992 -5.33301 1 -11 1 -17l-6 -15v-8l2 -39l2 -21c2 -26.667 3 -46.667 3 -60c0 -105.333 -0.666992 -172.666 -2 -201.999l3 -3c0 -1.33301 0.333008 -2.33301 1 -3v-4c0 -8 -1.83301 -14.833 -5.5 -20.5
s-9.16699 -8.5 -16.5 -8.5c-4 0 -7.33301 2.5 -10 7.5z" />
    <glyph glyph-name="Z" unicode="Z" horiz-adv-x="247" 
d="M34 4c13.333 23.333 23.498 50.333 30.498 81s13.167 68.667 18.5 114c4 40 8 69.333 12 88l46 332c2 13.333 3.66699 25 5 35c5.33301 36 8 62 8 78c-7.33301 0 -18.333 -1 -33 -3l-34 -2c-30 0 -45 6.66699 -45 20l7 8c4 -1.33301 12 -2 24 -2
c9.33301 0 25 1.66699 47 5c17.333 3.33301 33 5 47 5c10.667 0 16 -6 16 -18c-7.33301 -16 -12.666 -48 -15.999 -96c-1.33301 -23.333 -2.66602 -38 -3.99902 -44l-30 -227c-16.667 -130.667 -30 -225 -40 -283c-0.666992 -6.66699 -4.66699 -18.667 -12 -36
c-7.33301 -18 -11 -31.333 -11 -40l33 2c14 2 24.667 3 32 3c28 0 42 -6.66699 42 -20l-9 -9c-22 0 -41.667 -0.666992 -59 -2l-60 -2c-5.33301 0 -10.333 4.33301 -15 13z" />
    <glyph glyph-name="bracketleft" unicode="[" horiz-adv-x="260" 
d="M98 -35.5c-26 5 -39.001 11.1689 -39.001 18.502c0 30.667 3.33301 71.667 10 123c7.33301 57.333 11 98.666 11 123.999c0 58.667 4.33301 141 13 247c8 109.333 12 191.333 12 246c0 3.33301 -1.33301 7.33301 -4 12c-3.33301 5.33301 -5 9 -5 11l20 12
c19.333 0 35.333 -0.333008 48 -1c28 -1.33301 47 -4 57 -8c6 -2.66699 9 -6.33398 9 -11.001c0 -3.33301 -1.5 -6 -4.5 -8s-6.5 -3 -10.5 -3c-6.66699 0 -16 1 -28 3c-13.333 2 -22.666 3 -27.999 3c-20.667 0 -31 -7 -31 -21c0 -38.667 -0.666992 -82.667 -2 -132
s-3 -91 -5 -125l-10 -149l-2 -29c-4 -54.667 -6 -86.667 -6 -96c-5.33301 -93.333 -9.66602 -145.333 -12.999 -156v-24l-5 -8l34 -2c21.333 -1.33301 37.666 -3.66602 48.999 -6.99902c13.333 -2.66699 20 -8.33398 20 -17.001c0 -6.66699 -5.66699 -10 -17 -10
c-22.667 0 -47 2.5 -73 7.5z" />
    <glyph glyph-name="backslash" unicode="\" horiz-adv-x="332" 
d="M228 14c-4 10.667 -6.66699 21 -8 31l-3 14l-20 87c-5.33301 19.333 -10 39 -14 59l-15 63l-11 47c-18 74 -33.667 141 -47 201c-12 56.667 -20.667 99 -26 127c-0.666992 1.33301 -1.33398 4 -2.00098 8s-2 9.66699 -4 17l-10 43c-2.66699 12.667 -4 20.667 -4 24
c0 4 1.5 7.16699 4.5 9.5s6.5 3.5 10.5 3.5c2 0 3.33301 -1 4 -3c2 -2.66699 4.66699 -9.66699 8 -21l3 -11l2 -6c32.667 -126 74.334 -298.667 125.001 -518l14 -56c14 -54.667 21 -94 21 -118c0 -7.33301 -3.33301 -13.333 -10 -18c-8 1.33301 -14 7 -18 17z" />
    <glyph glyph-name="bracketright" unicode="]" horiz-adv-x="250" 
d="M71 -33c0 8.66699 7 14.332 21 16.999c11.333 3.33301 28 5.66602 50 6.99902l32 2l-4 8v24c-4.66699 10 -10.667 84.667 -18 224s-12.333 252.333 -15 339c0 12.667 -1 32.334 -3 59.001c-2 28 -3 49.667 -3 65c0 7.33301 -1.16699 12.5 -3.5 15.5
s-6.83301 4.5 -13.5 4.5l-28 -2l-28 -2h-5c-16 0 -24 3.33301 -24 10c0 4 3.33301 7.66699 10 11c10 4 29 6.66699 57 8c12.667 0.666992 28.667 1 48 1l20 -12c0 -2 -1.66699 -5.66699 -5 -11s-5 -9.33301 -5 -12c0 -49.333 4.66699 -128.333 14 -237
c8.66699 -101.333 13 -180.333 13 -237c0 -23.333 3.33301 -67.666 10 -132.999c6.66699 -56 10 -100.333 10 -133c0 -7.33301 -13 -13.5 -39 -18.5s-50.667 -7.5 -74 -7.5c-11.333 0 -17 3.33301 -17 10z" />
    <glyph glyph-name="asciicircum" unicode="^" horiz-adv-x="304" 
d="M220 208c-4 12.667 -8 30.3281 -12 52.9951c-2.66699 10.667 -4 16.334 -4 17.001c-16 61.333 -35 167.666 -57 318.999c-5.33301 -16 -9.66602 -34 -12.999 -54s-7.33301 -47.333 -12 -82l-9 -62c-10 -61.333 -23.333 -132.666 -40 -213.999l-13 -5
c-2.66699 0.666992 -5.16699 2 -7.5 4s-3.5 4 -3.5 6c0 12.667 5 41.334 15 86.001l6 33l8 52c4.66699 34.667 8.5 60.334 11.5 77.001s6 30.834 9 42.501s5.16699 19.834 6.5 24.501c6 24.667 10 43.667 12 57c1.33301 5.33301 2 13 2 23c2.66699 26 5.66699 46.667 9 62
c2.66699 10.667 6.66699 19 12 25s11.666 9 18.999 9l11 -9c0 -22 1.33301 -47 4 -75s6 -53.333 10 -76l10 -75c6 -36 17.333 -87.333 34 -154l9 -31c2.66699 -10 5.16699 -18.833 7.5 -26.5s4.16602 -14.5 5.49902 -20.5c3.33301 -15.333 5 -24 5 -26s-1.5 -4.5 -4.5 -7.5
s-5.83301 -4.5 -8.5 -4.5c-9.33301 0 -16.666 10.667 -21.999 32zM149 601.994l-1 2v-4z" />
    <glyph glyph-name="underscore" unicode="_" horiz-adv-x="364" 
d="M55 -19.5c-4 3 -6 7.16699 -6 12.5c0 2 46 3 138 3h143c5.33301 0 10.333 -1.66699 15 -5s7 -7.33301 7 -12h-31c0 -2 -34.667 -3 -104 -3h-148c-5.33301 0 -10 1.5 -14 4.5z" />
    <glyph glyph-name="grave" unicode="`" horiz-adv-x="332" 
d="M110.5 579c-27 9.33301 -41.832 15 -44.499 17c-4 -1.33301 -9.33301 -2 -16 -2c-22.667 0 -34 6.66699 -34 20c0 12 2 19.333 6 22h6c20 0 33 -3.66699 39 -11c0 -0.666992 4 -2 12 -4c6.66699 -2 20 -7 40 -15c16 -6.66699 29.667 -13 41 -19
c12.667 -7.33301 19 -13.666 19 -18.999c0 -2 -1.33301 -3.83301 -4 -5.5s-5.33398 -2.5 -8.00098 -2.5c-10.667 3.33301 -29.5 9.66602 -56.5 18.999z" />
    <glyph glyph-name="a" unicode="a" horiz-adv-x="313" 
d="M250 -5.5c-2.66699 2.33301 -4.66602 8.5 -5.99902 18.5c-6 48.667 -9.66699 79 -11 91l-5 40c-14.667 3.33301 -31.334 5 -50.001 5l-36 2c-16 2 -27.667 3 -35 3c-4 0 -6.33301 -1.66699 -7 -5c0 -2 -0.333008 -3 -1 -3l-2 -20c-0.666992 -12 -4.33398 -36 -11.001 -72
c-3.33301 -18 -7.33301 -32 -12 -42c-5.33301 -11.333 -10.333 -17 -15 -17c-4 0 -8.33301 1.83301 -13 5.5s-7 7.5 -7 11.5l1 3l1 3c12 47.333 22 94.333 30 141l12 62l12 76l11 66c3.33301 18 9.33301 47 18 87c9.33301 45.333 15 76.333 17 93c0.666992 2 2 14.333 4 37
c2.66699 25.333 5 44 7 56c2 17.333 4 27.333 6 30h7c2 -0.666992 4.33301 -1 7 -1c8 0 14 2 18 6c4.66699 0 8.83398 -1.5 12.501 -4.5s5.5 -6.5 5.5 -10.5c0 -32 2.33301 -68.667 7 -110c2.66699 -21.333 4.66699 -39 6 -53c7.33301 -86 26 -247.333 56 -484v-3
c0 -6.66699 -2.66699 -11.667 -8 -15c-10 0 -16.333 1.16699 -19 3.5zM223.001 171c-6.66699 96 -19.332 237.667 -37.999 425l-54 -267c-15.333 -76.667 -23 -125 -23 -145c0 -3.33301 12.667 -6.33301 38 -9s47.666 -4 66.999 -4h10z" />
    <glyph glyph-name="b" unicode="b" horiz-adv-x="283" 
d="M74.5 -5c-3.66699 4 -5.50098 8.99805 -5.50098 14.998l-1 31c0 24 2 59.333 6 106c3.33301 52 5 87 5 105l-1 45c-0.666992 13.333 -1 28 -1 44c0 26.667 1 66.334 3 119.001c2 54 3 94 3 120l-1 58l-4 5v6c0 17.333 7 26 21 26c10.667 0 28.167 -4.16699 52.5 -12.5
s36.5 -15.166 36.5 -20.499v-3c12 -19.333 20.167 -38.666 24.5 -57.999s6.5 -44 6.5 -74c0 -48.667 -5.33301 -88.334 -16 -119.001h1c-2.66699 -5.33301 -8 -14 -16 -26l-14 -21c12 -9.33301 22.167 -23 30.5 -41s13.5 -35.333 15.5 -52
c0.666992 -6 1.33398 -13.333 2.00098 -22s1.33398 -19 2.00098 -31l1 -26v-14c0 -64 -20 -111.333 -60 -142c-20.667 -16 -46.334 -24 -77.001 -24c-5.33301 0 -9.83301 2 -13.5 6zM118.999 360.998c44 0 66 44.334 66 133.001c0 7.33301 -0.666992 21.666 -2 42.999l-1 19
l-2 2c-2.66699 22 -6.33398 39.333 -11.001 52c-3.33301 9.33301 -8.66602 16.833 -15.999 22.5s-15.333 8.5 -24 8.5c-14.667 0 -22 -43.667 -22 -131c0 -16.667 0.333008 -28 1 -34v-20v-34c-0.666992 -10.667 -1 -22.667 -1 -36v-12l2 -6l2 -7h8zM148.499 43.999
c13.667 10.667 24.501 24.498 32.501 41.498s12 33.833 12 50.5l1 4v8v11c0 28 -2.33301 54.667 -7 80c-7.33301 34 -20.333 58.667 -39 74c-10.667 8.66699 -23.334 13 -38.001 13c-3.33301 -55.333 -5 -100.666 -5 -135.999v-23c0 -19.333 1 -34.666 3 -45.999
c-3.33301 -6 -5 -22 -5 -48v-26l1 -19c16 0 30.833 5.33301 44.5 16z" />
    <glyph glyph-name="c" unicode="c" horiz-adv-x="285" 
d="M146 -7c-12.667 4 -23.501 9.66699 -32.501 17s-17.5 18.333 -25.5 33c-14 26.667 -22.333 65 -25 115c-1.33301 22.667 -2 42.667 -2 60v114c0 43.333 1.33301 85.333 4 126c2 30 5 55.333 9 76s10.333 41.334 19 62.001c9.33301 21.333 19.666 36.333 30.999 45
c4.66699 4 13.667 8.66699 27 14c8.66699 3.33301 17 7 25 11h40h3c0.666992 -0.666992 1.66699 -1 3 -1l5 -1l4 -3c2 -2 3 -3.33301 3 -4c0.666992 -1.33301 1 -3.33301 1 -6l-13 -15h-42c-12.667 0 -24.167 -6.16699 -34.5 -18.5s-18.166 -27.833 -23.499 -46.5
c-5.33301 -16.667 -9.66602 -36.334 -12.999 -59.001s-5.33301 -42.334 -6 -59.001c-1.33301 -21.333 -2 -36 -2 -44l-2 -5c0 -37.333 -0.666992 -71 -2 -101l-2 -101c0 -29.333 2 -56.333 6 -81c3.33301 -26.667 13 -50.667 29 -72c15.333 -21.333 39 -32 71 -32
c10 0 18.333 3 25 9c10 0 15 -3.66699 15 -11c0 -4.66699 -4.16699 -10.167 -12.5 -16.5s-16.833 -11.166 -25.5 -14.499h-33z" />
    <glyph glyph-name="d" unicode="d" horiz-adv-x="348" 
d="M83 22c-2.66699 46 -4 103.999 -4 173.999c0 44 0.333008 83.333 1 118l1 118c0 50.667 -1.33301 113.334 -4 188.001c-6 5.33301 -9 12 -9 20c0 4.66699 2.83301 9.5 8.5 14.5s10.834 7.5 15.501 7.5c5.33301 0 10.333 -2.66699 15 -8l11 -9c4 -2 11.667 -4 23 -6
s19.333 -4 24 -6c10 -5.33301 23.333 -15.666 40 -30.999c16 -16 27 -26 33 -30l-1 -2c0.666992 -4 5.66699 -12.667 15 -26c7.33301 -10 13.333 -19.333 18 -28c10.667 -30.667 16 -70.334 16 -119.001c0 -8.66699 -0.333008 -16.334 -1 -23.001v-24v-8l-1 -10
c0 -12.667 2 -22.667 6 -30c-4 -21.333 -9 -61.666 -15 -120.999c-2 -17.333 -5.33301 -35.666 -10 -54.999s-10.334 -35.333 -17.001 -48c-17.333 -32.667 -46.333 -60.334 -87 -83.001h-70c-5.33301 0 -8 9 -8 27zM157 23.999c4.66699 5.33301 9 9.66699 13 13l7 5l8 7
c46.667 42 70 122 70 240v19c-0.666992 5.33301 -1 11 -1 17l-4 101c-2 38.667 -13.667 78.667 -35 120c-10 20.667 -23.5 37.5 -40.5 50.5s-34.833 19.5 -53.5 19.5c-8 0 -12 -61.667 -12 -185c0 -142.667 4 -267 12 -373l-1 -19l4 -2l2 -13h31z" />
    <glyph glyph-name="e" unicode="e" horiz-adv-x="256" 
d="M71 8v13.002c0.666992 3.33301 1 7.33301 1 12l-4 4c5.33301 14 8 27.667 8 41c0 15.333 -1 37.333 -3 66l-2 66c0 33.333 1 83.333 3 150c2.66699 59.333 4 109.666 4 150.999l-2 60c-1.33301 18 -2 38 -2 60c0 10 2.33301 17.167 7 21.5s12 6.5 22 6.5
c6.66699 0 12 -2 16 -6c1.33301 -0.666992 11 -2 29 -4c16.667 -2 31 -5 43 -9c12.667 -4 19 -9 19 -15c0 -6.66699 -6.33301 -13.334 -19 -20.001c-38 12.667 -65 19 -81 19l-5 -6c0.666992 -6 1 -20.333 1 -43c0 -28.667 -0.666992 -54.334 -2 -77.001
c-0.666992 -23.333 -1 -49.333 -1 -78c0 -18.667 4.66699 -28 14 -28l16 1c5.33301 0.666992 11 1 17 1c26 0 39 -6 39 -18c0 -7.33301 -1.66699 -13.5 -5 -18.5s-8.33301 -7.5 -15 -7.5c-10 0 -17.667 2.66699 -23 8l-32 5h-5l-5 -5v-3
c1.33301 -11.333 2 -37.666 2 -78.999c0 -26 -0.333008 -49.667 -1 -71l-1 -71c0 -26 1 -52.667 3 -80c0.666992 -15.333 4 -25.5 10 -30.5s17 -7.5 33 -7.5l18 1c6 0.666992 12.667 1 20 1c19.333 0 29 -4.33301 29 -13c0 -12 -14.667 -18 -44 -18h-82
c-12 0 -18.667 7 -20 21z" />
    <glyph glyph-name="f" unicode="f" horiz-adv-x="272" 
d="M73 1c6.66699 60.667 10.001 141.667 10.001 243c0 44.667 2 112 6 202c4.66699 83.333 7 150.333 7 201c0 6 2.83301 10.667 8.5 14s12.167 5 19.5 5c23.333 0 49 -2.66699 77 -8s42 -12.333 42 -21c0 -11.333 -11.667 -17 -35 -17
c-14.667 6.66699 -33.334 10 -56.001 10l-12 -1c-2 -0.666992 -3.5 -1.66699 -4.5 -3s-1.83301 -3.33301 -2.5 -6c-1.33301 -5.33301 -2.66602 -9 -3.99902 -11c0 -30 -1.33301 -65.333 -4 -106c-3.33301 -39.333 -5 -74.333 -5 -105v-35c0 -2.66699 5.33301 -3.66699 16 -3
c34 0 51 -5.33301 51 -16c0 -5.33301 -2.5 -9.83301 -7.5 -13.5s-10.5 -5.5 -16.5 -5.5c-4 0 -9.66699 1 -17 3c-6.66699 2 -12.334 3 -17.001 3c-12 0 -18 -16.333 -18 -49v-113c0 -16 1 -39.667 3 -71c2 -32 3 -56 3 -72c0 -26.667 -8 -40 -24 -40z" />
    <glyph glyph-name="g" unicode="g" horiz-adv-x="339" 
d="M122 4c-14.667 7.33301 -25.4951 21.501 -32.4951 42.501s-13.167 54.5 -18.5 100.5c-8 67.333 -12 119.666 -12 156.999c0 22.667 1.33301 48.667 4 78l6 63c3.33301 50 7.16602 87.833 11.499 113.5s14 48.334 29 68.001s38.167 31.167 69.5 34.5
c3.33301 0.666992 8.66602 1 15.999 1c20.667 0 31 -4.66699 31 -14c0 -4 -2.16699 -7.5 -6.5 -10.5s-8.83301 -4.5 -13.5 -4.5l-10 1l-9 1c-11.333 0 -21.5 -3.66699 -30.5 -11s-16.5 -18 -22.5 -32c-14 -33.333 -23 -66 -27 -98
c-5.33301 -42 -8.66602 -78.667 -9.99902 -110l-1 -77c0 -32.667 1 -57 3 -73c4.66699 -7.33301 7.83398 -18.5 9.50098 -33.5s3.16699 -35.5 4.5 -61.5c1.33301 -23.333 4.33301 -43.166 9 -59.499s13 -29.833 25 -40.5c13.333 -11.333 31.666 -17 54.999 -17
c19.333 0 33 10.667 41 32c9.33301 22.667 14.666 46 15.999 70c2 30 3 55.333 3 76v55c-6.66699 6.66699 -18.334 10 -35.001 10h-8c-3.33301 -0.666992 -7 -1 -11 -1c-16 0 -24 4 -24 12c0 11.333 8 17 24 17c11.333 0 20.666 -0.333008 27.999 -1l22 -1
c12.667 -2 22.667 -4.33301 30 -7c8 -2.66699 12 -6.33398 12 -11.001c0 -8.66699 -2 -21 -6 -37c-3.33301 -18.667 -5 -31.334 -5 -38.001c0 -28 0.666992 -53.333 2 -76c0.666992 -23.333 1 -49 1 -77c-34 -34.667 -68 -52 -102 -52c-30.667 0 -53.334 3.66699 -68.001 11
z" />
    <glyph glyph-name="h" unicode="h" horiz-adv-x="327" 
d="M222 -1c-3.33301 123.333 -5.00195 212.667 -5.00195 268l-3 4l4 9c0 12 -1.33301 24.333 -4 37l-15 4c-6 -2 -12.667 -3 -20 -3c-5.33301 0 -16.333 1.66699 -33 5c-11.333 3.33301 -21.666 5 -30.999 5l-11 -4c0 -23.333 -0.333008 -44.333 -1 -63s-1 -39.667 -1 -63
l2 -4c0 -18.667 1 -46.667 3 -84c2 -36.667 3 -64.334 3 -83.001c0 -7.33301 -1.33301 -13.5 -4 -18.5s-6.66699 -7.5 -12 -7.5c-14.667 0 -22 20 -22 60c0 34 0.333008 64.667 1 92l1 91c0 60.667 -1 93.334 -3 98.001c3.33301 6.66699 5 28.667 5 66
c0 32 -1.33301 71 -4 117l-2 39l-2 78c0 4.66699 1.66699 9 5 13s7.33301 6 12 6c13.333 0 20 -19.333 20 -58c0 -45.333 -0.333008 -86.333 -1 -123c-1.33301 -36.667 -2 -77 -2 -121c0 -8 25.333 -12 76 -12h4c12.667 0 21.834 2.5 27.501 7.5s8.5 13.5 8.5 25.5
c0 35.333 -2.33301 81.333 -7 138c-4 61.333 -6 107.333 -6 138c0 4 1.66699 7.5 5 10.5s7.33301 4.5 12 4.5l9 -3c4.66699 -0.666992 7.66699 -1.66699 9 -3c0 -52 2 -129.667 6 -233c4 -104 6 -182 6 -234c0 -78.667 2.33301 -144.667 7 -198l-7 -11
c0 6.66699 -10 10 -30 10zM188.998 361.001l2 -2h-2v2z" />
    <glyph glyph-name="i" unicode="i" horiz-adv-x="237" 
d="M99 10c-3.33301 0 -5.99707 -0.334961 -7.99707 -1.00195h-8c-14.667 0 -24 3.33301 -28 10c0 4.66699 2.66699 8.66699 8 12l5 5h29l4 4l2 9l1 12c0 40.667 -1 77 -3 109l-2 37l-2 73c0 26 1 65 3 117l2 116c0 50.667 -1.66699 89.334 -5 116.001c-6 2 -16 3 -30 3
l-11 -1c-4 -0.666992 -8.33301 -1 -13 -1c-12.667 0 -19 5.66699 -19 17c0 2.66699 3 5.33398 9 8.00098s11 4 15 4c25.333 0 50.666 -1.33301 75.999 -4c15.333 -0.666992 30.666 -3.66699 45.999 -9c12 -4 18 -9.66699 18 -17c0 -1.33301 -1 -4 -3 -8l-23 -2
c-4.66699 4 -14.334 6 -29.001 6l-5 -3c2 -6 3 -23.667 3 -53c0 -44 -0.333008 -83.667 -1 -119l-2 -119c0 -30 1.33301 -66.333 4 -109c2 -48.667 3 -85.334 3 -110.001v-13c-0.666992 -4.66699 -1 -10.667 -1 -18c0 -15.333 1 -24.666 3 -27.999l-1 -2
c0 -6.66699 7.33301 -10 22 -10c6 0 11 0.333008 15 1h15c19.333 0 29 -4.66699 29 -14c0 -6 -2 -10.833 -6 -14.5s-9.33301 -5.5 -16 -5.5c-6 0 -11.333 0.666992 -16 2c-5.33301 0.666992 -11 1 -17 1c-4 0 -10 -1.66699 -18 -5c-8 -4 -14 -6 -18 -6
c-15.333 -0 -24.333 3.33301 -27 10z" />
    <glyph glyph-name="j" unicode="j" horiz-adv-x="240" 
d="M8 -100l-0.000976562 2.00195l-1 2c0 2 5.66699 6.66699 17 14c10.667 8 22.667 16 36 24c14.667 10 22.334 15.667 23.001 17c10 11.333 17.833 29.166 23.5 53.499s8.5 48.166 8.5 71.499c0 71.333 -1.33301 160 -4 266c-3.33301 98.667 -5 187 -5 265l-6 11
c-4.66699 1.33301 -12.667 3 -24 5c-12.667 0.666992 -24 3.33398 -34 8.00098c-10 3.33301 -15 7.66602 -15 12.999c0 2.66699 2.66699 5.33398 8 8.00098s9.66602 4 12.999 4c12.667 0 32.834 -2.33301 60.501 -7s52.334 -10.334 74.001 -17.001s32.5 -12.667 32.5 -18
c0 -4 -1.5 -7.16699 -4.5 -9.5s-6.83301 -3.5 -11.5 -3.5s-13.667 1.66699 -27 5c-10 3.33301 -19 5 -27 5c-6 0 -9 -6.66699 -9 -20c0 -36.667 1.66699 -106 5 -208c3.33301 -76.667 5 -145.667 5 -207v-110c-4 -8.66699 -6 -22.667 -6 -42c0 -28 -8 -59.667 -24 -95
c-8.66699 -18 -19.834 -32.5 -33.501 -43.5s-28.5 -16.5 -44.5 -16.5h-7z" />
    <glyph glyph-name="k" unicode="k" horiz-adv-x="330" 
d="M234 72c-20.667 55.333 -38.667 115.331 -54 179.998s-23.666 110 -24.999 136l-3 4l-15 -32c-7.33301 -14 -12.833 -25.5 -16.5 -34.5s-7.16699 -20.167 -10.5 -33.5c-4 -12.667 -6 -25.667 -6 -39s-0.666992 -25.333 -2 -36l-2 -36v-128c0 -6 1 -15.667 3 -29
c2 -12 3 -21.333 3 -28c0 -3.33301 -1.66699 -6.16602 -5 -8.49902s-7 -3.5 -11 -3.5c-8.66699 0 -14.5 1.33301 -17.5 4s-4.5 8.33398 -4.5 17.001v188c0 10.667 1.66699 31.667 5 63s5 52.333 5 63c0 28 1.66699 60.333 5 97c2.66699 37.333 4 69.333 4 96v139
c4 7.33301 10.333 11 19 11c5.33301 0 9.83301 -1.83301 13.5 -5.5s5.5 -8.16699 5.5 -13.5c-5.33301 -12 -8 -28 -8 -48l-2 -105c-1.33301 -32 -2 -67.333 -2 -106c6.66699 2 32.667 48 78 138c45.333 89.333 70.333 134 75 134c17.333 0 26 -5.66699 26 -17
c-42.667 -63.333 -78 -125 -106 -185l-1 -32c-0.666992 -9.33301 -1 -20 -1 -32c0 -29.333 11.333 -84.333 34 -165s42 -136.667 58 -168c7.33301 -10 11.666 -15.667 12.999 -17c6.66699 -9.33301 11.5 -17.166 14.5 -23.499s4.5 -12.833 4.5 -19.5
c0 -4.66699 -1.66699 -8.33398 -5 -11.001s-7.33301 -4 -12 -4c-16 0 -35 30 -57 90z" />
    <glyph glyph-name="l" unicode="l" horiz-adv-x="249" 
d="M73 10c1.33301 4 2.00098 14.999 2.00098 32.999c0 61.333 1 152.333 3 273c2 120 3 206.667 3 260l2 36l3 30c0 4.66699 2.33301 7 7 7c3.33301 0 8 -1 14 -3l3 -1c0 -14.667 -0.333008 -28 -1 -40v-39v-109c0.666992 -32 1 -68.333 1 -109
c-0.666992 -3.33301 -1 -10.666 -1 -21.999l-1 -21c-0.666992 -13.333 -1 -27 -1 -41c0 -15.333 0.333008 -29.333 1 -42l1 -43l-3 -8l1 1c0 -2 -0.333008 -3.33301 -1 -4v-4c0 -5.33301 1 -10 3 -14l-3 -96v-6c0 -11.333 0.333008 -18 1 -20c0 -3.33301 1.66699 -5 5 -5
l52 -2c15.333 0 25.833 -0.166992 31.5 -0.5s9.16699 -0.5 10.5 -0.5h3c3.33301 0 6.66602 -1.83301 9.99902 -5.5s5 -7.5 5 -11.5c0 -8 -5.33301 -12.333 -16 -13c-11.333 0.666992 -39 1 -83 1l2 -1c-6.66699 0 -13 -0.333008 -19 -1c-5.33301 -1.33301 -11.333 -2 -18 -2
c-9.33301 0 -15 7.66699 -17 23z" />
    <glyph glyph-name="m" unicode="m" horiz-adv-x="567" 
d="M447 12l0.00195312 66.001c0 96 -2 171 -6 225l-3 37c-2.66699 16.667 -4 31.334 -4 44.001c0 22.667 0.666992 43.334 2 62.001l2 62c0 20.667 -1.33301 36.334 -4 47.001c-13.333 -9.33301 -53.666 -149.666 -120.999 -420.999l-1 -15c-2 -16.667 -4.66699 -30 -8 -40
c-2 -7.33301 -4.83301 -13 -8.5 -17s-7.83398 -6 -12.501 -6c-10.667 0 -18.334 2.66699 -23.001 8s-7 13.666 -7 24.999c0 18 -8.5 64.667 -25.5 140s-35.333 147.666 -55 216.999s-33.167 107.666 -40.5 114.999c-0.666992 -23.333 -3.33398 -78.333 -8.00098 -165
c-9.33301 -153.333 -14 -274 -14 -362l1 -40c-2.66699 -8.66699 -9.66699 -13 -21 -13c-2 0 -5.33301 1.83301 -10 5.5s-7 6.5 -7 8.5c0 60 5.33301 165.333 16 316c10 140 15 245 15 315c0 3.33301 -0.666992 6.66602 -2 9.99902c-2 4 -3 7 -3 9c0 10 8.66699 15 26 15
c11.333 0 18 -5 20 -15c2.66699 -13.333 4 -23.333 4 -30l1 -12c3.33301 -17.333 13 -44 29 -80c12.667 -28.667 22.334 -53.667 29.001 -75c4 -16 7.66699 -29 11 -39c10.667 -38.667 17.667 -67.334 21 -86.001l13 -26c2 -10 6 -26.333 12 -49
c6 -25.333 10.333 -46 13 -62s4 -31.333 4 -46c7.33301 11.333 28.166 79.5 62.499 204.5s54.5 204.833 60.5 239.5c0.666992 1.33301 1.16699 3.16602 1.5 5.49902s0.833008 5.5 1.5 9.5c1.33301 8.66699 4.33301 21.667 9 39c5.33301 13.333 13.333 20 24 20
c4.66699 0 10 -2 16 -6s9 -8 9 -12c0 -278 4.33301 -425 13 -441v-52c-0.666992 -15.333 -1 -33 -1 -53c0 -42.667 2.33301 -74.667 7 -96c0.666992 -0.666992 1.16699 -1.66699 1.5 -3s0.833008 -3 1.5 -5c0.666992 -2.66699 1 -5.66699 1 -9
c0 -7.33301 -2.16699 -14.666 -6.5 -21.999s-9.5 -11 -15.5 -11c-13.333 0 -20 21.333 -20 64zM434.002 561.001h-1l-2 -1l3 -1v2z" />
    <glyph glyph-name="n" unicode="n" horiz-adv-x="460" 
d="M315.5 2c-2.33301 4 -4.50293 10.0039 -6.50293 18.0039c-0.666992 5.33301 -2 10 -4 14l1 3c-5.33301 31.333 -16.666 69.666 -33.999 114.999l-18 52c-1.33301 1.33301 -7.66602 18.333 -18.999 51l-8 24c-60 185.333 -97.667 285.666 -113 300.999
c-5.33301 -18 -8 -41.333 -8 -70c0 -15.333 0.333008 -28.666 1 -39.999l1 -39l-1 -24c-0.666992 -7.33301 -1 -15.333 -1 -24c0 -14.667 0.666992 -27.334 2 -38.001l2 -32h-3c0 -111.333 2.33301 -172.666 7 -183.999v-90c2.66699 -5.33301 4 -12.333 4 -21
c0 -5.33301 -1.83301 -10 -5.5 -14s-8.16699 -6 -13.5 -6c-14 0 -21 18 -21 54l2 32c1.33301 10 2 21 2 33c0 32 -1 80 -3 144s-3 112 -3 144c0 19.333 1 49 3 89c2 39.333 3 68.666 3 87.999v13c0 32.667 6 54 18 64l3 -3l10 2c2.66699 -0.666992 5.66699 -2.66699 9 -6
c2.66699 -2.66699 4 -5.66699 4 -9l2 -6c0 -1.33301 0.166992 -2.5 0.5 -3.5l0.5 -1.5c10.667 -47.333 34.667 -113.666 72 -198.999c38 -90 61.667 -149.667 71 -179c6.66699 -23.333 12 -44 16 -62c12.667 -56.667 27.667 -100.334 45 -131.001l2 3
c15.333 148 23 329.667 23 545l-1 12c-0.666992 3.33301 -1 7.66602 -1 12.999c0 14 4.66699 21 14 21c6 0 11.167 -3 15.5 -9s6.5 -12.667 6.5 -20v-67l-5 -8c0 -63.333 -3.66699 -167.333 -11 -312s-14.333 -223.334 -21 -236.001l-17 -4v-1l-1 1l-10 -3
c-5.33301 0 -9.16602 2 -11.499 6z" />
    <glyph glyph-name="o" unicode="o" horiz-adv-x="346" 
d="M59 349l-0.000976562 34.999c0 186 24 279 72 279c3.33301 0 8 -1 14 -3c21.333 -7.33301 42.333 -12 63 -14c12.667 -2.66699 25.334 -15.667 38.001 -39c14 -24 24.5 -55.667 31.5 -95s10.5 -79.666 10.5 -120.999l-2 -5c0 -22 0.333008 -41.667 1 -59l1 -60
c0 -34 -1.33301 -64.667 -4 -92c-4 -41.333 -10.667 -77 -20 -107c-6 -18 -12.833 -33 -20.5 -45s-17.167 -22 -28.5 -30c-10.667 -8 -23.667 -12 -39 -12c-78 0 -117 122.667 -117 368zM229.999 64.999c12.667 37.333 20.3311 75.335 22.998 114.002c2.66699 40 4 72 4 96
c0 26.667 -2 66 -6 118c-3.33301 58 -5 97.333 -5 118l-4 8l2 5c0 29.333 -8.16699 54.666 -24.5 75.999s-36.166 32 -59.499 32c-30.667 0 -49 -14.667 -55 -44c-1.33301 -10 -2.66602 -24.333 -3.99902 -43c0 -49.333 -2 -83 -6 -101c0 -10 -1 -25.667 -3 -47l-2 -47
c0 -14.667 0.333008 -27.667 1 -39l1 -40c0 -31.333 2.66699 -67.333 8 -108c4 -30 8.66699 -55.333 14 -76s13 -38.334 23 -53.001c10 -16 21.667 -24 35 -24c26 0 45.333 18.333 58 55z" />
    <glyph glyph-name="p" unicode="p" horiz-adv-x="263" 
d="M86 -12c-7.33301 42 -11 89.9961 -11 143.996c0 21.333 1 52.333 3 93l2 93c-4.66699 9.33301 -7 17 -7 23c6.66699 10.667 10 41.334 10 92.001c0 121.333 -1.66699 186 -5 194c6 16.667 10.667 25 14 25h44c7.33301 0 17.833 -3.5 31.5 -10.5s25.167 -14.5 34.5 -22.5
c16.667 -15.333 25 -54.666 25 -117.999c0 -34 -1 -60 -3 -78c-1.33301 -12.667 -3.5 -22.667 -6.5 -30s-7.5 -15.666 -13.5 -24.999c-10 -15.333 -27 -28.666 -51 -39.999c-10 -5.33301 -24 -10.666 -42 -15.999v-119c0 -16.667 1.66699 -49.334 5 -98.001l2 -32l2 -65
c0 -12 -6.33301 -18 -19 -18zM167 372.996c4.66699 6.66699 9 15.667 13 27s6.66699 22.333 8 33c4 19.333 6 41.666 6 66.999v27c0 9.33301 -0.333008 18.333 -1 27s-2 17 -4 25c-2.66699 8.66699 -6.16699 15.834 -10.5 21.501s-10.166 10.5 -17.499 14.5
c-8 4 -17.667 6 -29 6c-8 0 -13.667 -2 -17 -6s-5 -11 -5 -21c0 -16 1 -40 3 -72l2 -72c0 -17.333 -0.666992 -33 -2 -47l-2 -47l7 -10c19.333 0 35.666 9 48.999 27z" />
    <glyph glyph-name="q" unicode="q" horiz-adv-x="344" 
d="M227.5 -208c-13.667 2.66699 -22.499 6.66602 -26.499 11.999c0 28 -2.66699 54.667 -8 80c0 -0.666992 -2.33301 14 -7 44l-8 39c-18.667 4 -33.5 8.5 -44.5 13.5s-21.167 12.833 -30.5 23.5c-18 20 -29 55.667 -33 107c-7.33301 78.667 -11 156.667 -11 234v5
c0 208 33 314 99 318c5.33301 -2 12.666 -4 21.999 -6l21 -7c30 -15.333 51.333 -37.666 64 -66.999c14 -32.667 22.667 -64.334 26 -95.001c2.66699 -32.667 4 -64 4 -94v-47c0 -47.333 -5 -113 -15 -197c-5.33301 -44 -12.833 -82.167 -22.5 -114.5
s-20.5 -52.166 -32.5 -59.499c-0.666992 -0.666992 -3 -1.66699 -7 -3c-8 -4 -12 -8 -12 -12c0 -23.333 2.66699 -47 8 -71c0.666992 -6 3.33398 -19 8.00098 -39c2.66699 -10.667 5 -22 7 -34c4.66699 -4.66699 15 -7 31 -7c13.333 0 20 -4.66699 20 -14
c0 -8.66699 -4.33301 -13 -13 -13c-12.667 0 -25.834 1.33301 -39.501 4zM180.001 -4.00098c7.33301 2 12.333 2.99902 15 2.99902c12.667 0 24.834 17.5 36.501 52.5s20.167 74.167 25.5 117.5c5.33301 40.667 8 68 8 82v175c0 144 -36.667 216 -110 216
c-10.667 0 -20 -6 -28 -18s-14.333 -28.333 -19 -49c-10.667 -43.333 -17.334 -87.666 -20.001 -132.999c-2.66699 -43.333 -4 -76.333 -4 -99l2 -10l2 -9v-43c0 -192 26 -288 78 -288c3.33301 0 8 1 14 3z" />
    <glyph glyph-name="r" unicode="r" horiz-adv-x="290" 
d="M225 -12c-8 8.66699 -16.668 31.667 -26.001 69s-18 79.333 -26 126c-5.33301 38 -13 75.667 -23 113c-8 33.333 -15.667 50 -23 50h-3c-14.667 0 -22 -4.66699 -22 -14c0 -48 2.66699 -121 8 -219c2.66699 -60 5.66699 -95 9 -105l-8 -17h-14l-8 8
c-10.667 308 -16 518 -16 630c0 7.33301 0.5 13.333 1.5 18s3.16699 9 6.5 13c2.66699 4.66699 7.33398 7 14.001 7c34 0 61.333 -8.33301 82 -25s31 -40.667 31 -72v-73c0 -12.667 -4.16699 -29.667 -12.5 -51s-17.5 -41 -27.5 -59l-13 -25
c7.33301 -34 21.833 -95.167 43.5 -183.5s33.5 -135.166 35.5 -140.499c0.666992 -0.666992 1.5 -2.33398 2.5 -5.00098s3.16699 -6.66699 6.5 -12c4.66699 -9.33301 7 -17.333 7 -24c0 -9.33301 -3.66699 -14 -11 -14zM140.999 390c10 12.667 18 29 24 49
c10.667 40.667 16 73 16 97c0 15.333 -0.833008 28 -2.5 38s-4.5 20.667 -8.5 32c-8 23.333 -27 35 -57 35c-3.33301 0 -6 -2.83301 -8 -8.5s-3 -11.5 -3 -17.5c0 -44.667 0.666992 -85 2 -121c0.666992 -36 1 -76.333 1 -121l2 -2c12.667 0 24 6.33301 34 19z" />
    <glyph glyph-name="s" unicode="s" horiz-adv-x="246" 
d="M62 -3.5c-6.66699 4.33301 -10.3359 9.5 -11.0029 15.5l5 8c2.66699 0 8.66699 -1 18 -3c7.33301 -2.66699 13.333 -4 18 -4c14.667 0 27.667 5.83301 39 17.5s20 26.834 26 45.501c9.33301 34.667 14 67.334 14 98.001c0 46 -14 95.333 -42 148
c-17.333 30.667 -30.666 55 -39.999 73s-17.666 38.667 -24.999 62c-8.66699 27.333 -13 53.666 -13 78.999c0 24 6 52.333 18 85c6 15.333 14.5 27.833 25.5 37.5s22.833 14.5 35.5 14.5c8.66699 0 17.167 -3 25.5 -9s12.5 -12.333 12.5 -19c0 -5.33301 -4.33301 -8 -13 -8
c-2.66699 0 -6 1 -10 3s-7.66699 3 -11 3c-10 0 -19 -4 -27 -12s-14 -18.333 -18 -31c-8 -24.667 -12 -47.334 -12 -68.001c0 -12.667 1.66699 -25.667 5 -39c0.666992 -4 1.33398 -7.33301 2.00098 -10s1 -4.66699 1 -6l6 -20l5 -18l8 -18
c2 -4.66699 4.16699 -8.83398 6.5 -12.501l6.5 -10.5l12 -21c2.66699 -4 8.33398 -13.5 17.001 -28.5s16.667 -30.833 24 -47.5c6.66699 -14 11.667 -27.167 15 -39.5s6.33301 -27.166 9 -44.499c2 -16.667 3 -35 3 -55c0 -32 -4.33301 -62 -13 -90
c-12 -33.333 -29.333 -56.666 -52 -69.999c-12.667 -8 -27.334 -12 -44.001 -12l-5 -2c-7.33301 1.33301 -14.333 4.16602 -21 8.49902zM162.998 640c0 0.666992 -0.333008 1 -1 1v-1h1z" />
    <glyph glyph-name="t" unicode="t" horiz-adv-x="297" 
d="M138 14l-0.998047 37c-0.666992 10.667 -1 22.667 -1 36c0 6.66699 0.333008 12.334 1 17.001l1 18c0 6.66699 -1.33301 14.667 -4 24c0 44.667 -3.33301 127.667 -10 249c-6.66699 117.333 -10.334 197 -11.001 239c-41.333 0 -69 1 -83 3
c-13.333 3.33301 -20 8.66602 -20 15.999c3.33301 7.33301 9.66602 11 18.999 11c20 0 49 -1.33301 87 -4c34.667 -3.33301 63.667 -5 87 -5h21l21 1c12 0 18 -4.33301 18 -13c0 -4 -2.16699 -7.16699 -6.5 -9.5s-9.5 -3.5 -15.5 -3.5c-13.333 0 -27.333 0.666992 -42 2
l-43 2c-2.66699 0 -4 -1 -4 -3c-0.666992 -2 -1 -8.33301 -1 -19c0 -64.667 4 -162.667 12 -294c7.33301 -136 11 -233.667 11 -293c0 -4.66699 -2.83301 -9 -8.5 -13s-11.167 -6 -16.5 -6z" />
    <glyph glyph-name="u" unicode="u" horiz-adv-x="366" 
d="M142.5 -4.5c-12.333 7 -22.5029 15.1689 -30.5029 24.502c-9.33301 12 -16.666 45.667 -21.999 101s-8.66602 118.666 -9.99902 189.999c0 16 -0.333008 28 -1 36c-1.33301 167.333 -4 266.333 -8 297l6 14c15.333 -2 23 -20.333 23 -55l3 -265
c0 -18.667 1.66699 -54 5 -106c4 -46.667 6 -82 6 -106c0 -76 25 -114 75 -114c30.667 0 50.334 70 59.001 210l1 20c4.66699 183.333 7 319 7 407l-1 9c-0.666992 2.66699 -1 5.66699 -1 9c0 7.33301 5.66699 11 17 11c8 0 13 -2 15 -6
c1.33301 -6.66699 2 -18.334 2 -35.001c0 -50.667 -2 -84.667 -6 -102l1 -6c0 -8.66699 -1 -22 -3 -40l-2 -40v-10c0.666992 -2.66699 1 -6 1 -10c-1.33301 -16 -2 -31.333 -2 -46c-0.666992 -4.66699 -1 -12 -1 -22c-1.33301 -63.333 -2.66602 -118.333 -3.99902 -165
c-2 -58 -10 -107 -24 -147c-14.667 -42.667 -38.334 -64 -71.001 -64c-10.667 0 -22.167 3.5 -34.5 10.5z" />
    <glyph glyph-name="v" unicode="v" horiz-adv-x="356" 
d="M150 -3c0 51.333 -8.16406 126.999 -24.4971 226.999s-37.833 209.333 -64.5 328l-8 31l-13 46c-4 14 -6 22.667 -6 26c0 2 1.5 4.5 4.5 7.5s5.83301 4.5 8.5 4.5c9.33301 0 16.666 -10.333 21.999 -31c2.66699 -8.66699 5.16699 -18.5 7.5 -29.5
s4.16602 -18.833 5.49902 -23.5c1.33301 -10 2.33301 -16 3 -18c12.667 -51.333 20.334 -84 23.001 -98l10 -51l9 -48l9 -51c2 -18 4.66699 -33.667 8 -47l15 -98c0 -2.66699 2.33301 -19.667 7 -51l7 -49c13.333 43.333 24.666 109.333 33.999 198
c9.33301 82.667 22.666 165.667 39.999 249c14.667 72 25 124.333 31 157l13 5c2.66699 -0.666992 5.16699 -2 7.5 -4s3.5 -4 3.5 -6c0 -14.667 -3 -34.667 -9 -60l-6 -26l-17 -79c-10 -43.333 -16.833 -76.666 -20.5 -99.999s-7.83398 -57 -12.501 -101l-2 -23
c-3.33301 -36 -5.83301 -60.333 -7.5 -73s-5.5 -29 -11.5 -49c-5.33301 -20 -9.66602 -37.667 -12.999 -53l-2 -23c-1.33301 -23.333 -4 -44 -8 -62c-5.33301 -22.667 -16 -34 -32 -34zM172.003 68.999l-1 -2l1 -2v4z" />
    <glyph glyph-name="w" unicode="w" horiz-adv-x="410" 
d="M274 -21c-2 8 -3.00195 15.666 -3.00195 22.999v9c-2.66699 26.667 -6.33398 51.667 -11.001 75c-6 32.667 -10 58 -12 76s-5 50.667 -9 98c-6 74.667 -11.667 131.334 -17 170.001c-6 49.333 -12.333 77.333 -19 84l-6 -54c-3.33301 -32 -5 -54.667 -5 -68
c0 -28 -1.33301 -56 -4 -84s-7.33398 -63.667 -14.001 -107l-12 -83c-0.666992 -1.33301 -1.16699 -3.83301 -1.5 -7.5s-0.833008 -8.16699 -1.5 -13.5c-1.33301 -18.667 -5 -43.334 -11 -74.001c-2 -13.333 -5 -24 -9 -32c-2.66699 -8 -6.66699 -12 -12 -12
c-9.33301 0 -17 15 -23 45c-4.66699 26.667 -9 69 -13 127c-2 36.667 -3.66699 64 -5 82s-4 39.333 -8 64l-4 31c-5.33301 36 -8.66602 61.667 -9.99902 77s-2.66602 37.666 -3.99902 66.999c-0.666992 22 -1.66699 41.833 -3 59.5s-3.66602 36.167 -6.99902 55.5
c-2.66699 16.667 -7 34.334 -13 53.001c2.66699 5.33301 8 8 16 8s13.667 -7.66699 17 -23c0.666992 -2.66699 1.66699 -16 3 -40v-13c0.666992 -14 8.33398 -80 23.001 -198c13.333 -106.667 21 -193.667 23 -261c2.66699 -6 4.33398 -15 5.00098 -27
c1.33301 -13.333 3 -22.333 5 -27h1l16 105c0 9.33301 2 25.333 6 48c4.66699 35.333 8.66699 70 12 104c3.33301 40.667 5.33301 76 6 106c2 48 4.33301 80 7 96l3 25c2.66699 25.333 4 37.666 4 36.999l18 8c4.66699 0 8.66699 -1.33301 12 -4s5 -6 5 -10
c0 -2 -1 -4.66699 -3 -8c26.667 -90 44.667 -197.667 54 -323l2 -37c0.666992 -30 3 -55.667 7 -77c4 -17.333 7.66699 -30 11 -38c8 22.667 14.667 78 20 166s8 164.333 8 229c0 12 2.33301 37.667 7 77c4.66699 32.667 7 58.667 7 78c0 6 -1.33301 11.667 -4 17
c0 10.667 6.66699 16 20 16c5.33301 0 8.83301 -0.666992 10.5 -2s2.5 -4.66602 2.5 -9.99902c0 -18.667 -1.66699 -33 -5 -43l2 -6c-5.33301 -28.667 -8 -60 -8 -94c0 -6 0.666992 -9.66699 2 -11l-6 -20l3 -7c-2 -4 -3 -8 -3 -12l3 -19l-3 -4
c0 -23.333 -2.66699 -75.333 -8 -156s-9.33301 -132 -12 -154l-6 -27c-4 -14 -6 -25 -6 -33c0 -21.333 -1 -41.666 -3 -60.999c-0.666992 -13.333 -3.33398 -25 -8.00098 -35c-4.66699 -8.66699 -9.66699 -13 -15 -13c-7.33301 0 -12 4 -14 12zM290.998 85.999l-1 1v-1h1z
" />
    <glyph glyph-name="x" unicode="x" horiz-adv-x="249" 
d="M54 9c0 33.333 9.33594 85.3301 28.0029 155.997c18.667 70 28 122.333 28 157c0 18.667 -9 69.334 -27 152.001s-30 127.667 -36 135v4c0.666992 0.666992 1 1.33398 1 2.00098v1c0 4 -1.66699 8.66699 -5 14l-4 12c0 2.66699 2.16699 5 6.5 7s8.16602 3 11.499 3
c5.33301 0 9.83301 -4 13.5 -12s6.16699 -16.333 7.5 -25l1 -23c9.33301 -27.333 17.666 -60.666 24.999 -99.999c8.66699 -44 15.667 -75 21 -93c4 8 9.16699 34 15.5 78s10.5 77 12.5 99c4 54 8.33301 81.667 13 83l8 2l8 1l9 -12
c-10.667 -15.333 -16 -44.666 -16 -87.999v-6l1 -6l-1 -1c-2.66699 -24 -9.33398 -60.667 -20.001 -110c-11.333 -54.667 -17 -96 -17 -124c0 -10.667 8.66699 -55 26 -133s28.666 -123.667 33.999 -137c0 -0.666992 1.66699 -3.33398 5 -8.00098
c4.66699 -8.66699 7 -15.667 7 -21c0 -4 -1.5 -7.33301 -4.5 -10s-6.5 -4 -10.5 -4c-4.66699 0 -9 1 -13 3l-18 76c-16 60 -28.667 115.667 -38 167c-8 -12 -15.333 -46.667 -22 -104c-6.66699 -59.333 -12.667 -96 -18 -110c1.33301 -2.66699 2 -6.66699 2 -12
c0 -6.66699 -1.16699 -12.5 -3.5 -17.5s-6.16602 -7.5 -11.499 -7.5c-12.667 0 -19 4 -19 12z" />
    <glyph glyph-name="y" unicode="y" horiz-adv-x="267" 
d="M130 -11c-3.33301 2.66699 -5.33496 4.99902 -6.00195 6.99902c6 16 9 74.333 9 175c0 19.333 -1 47 -3 83l-5 71l-6 13l3 12c-4 9.33301 -10 25 -18 47l-24 67c-24 63.333 -39.667 109 -47 137c-4 13.333 -7 25.666 -9 36.999l14 11
c6.66699 -1.33301 16.334 -22.666 29.001 -63.999c10 -29.333 19 -58.333 27 -87l12 -38c12 -41.333 20.667 -62.666 26 -63.999l4 18l-2 5c5.33301 6.66699 12 30.334 20 71.001c8.66699 46.667 17 86 25 118c8.66699 37.333 17.334 56 26.001 56
c3.33301 0 6.33301 -1 9 -3s4 -4.33301 4 -7c0 -10 -10 -49.333 -30 -118c-10 -32.667 -18.333 -63.334 -25 -92.001c-8 -34 -12 -64.333 -12 -91c3.33301 -6.66699 5 -12.334 5 -17.001c0 -3.33301 -1 -8 -3 -14s-3 -11 -3 -15c0 -3.33301 1.33301 -18.333 4 -45
c2.66699 -18 4 -33.333 4 -46c0 -29.333 0.333008 -55.666 1 -78.999v-80v-4c0 -45.333 -7 -68 -21 -68c-2 0 -4.66699 1.33301 -8 4z" />
    <glyph glyph-name="z" unicode="z" horiz-adv-x="256" 
d="M39 13c0 8 3.33301 25.333 10 52l9 34c9.33301 32 14.333 50.667 15 56c4.66699 14.667 11 42 19 82c8.66699 41.333 15.167 70.666 19.5 87.999s13.5 47 27.5 89c16 52.667 28 96.167 36 130.5s12 64.833 12 91.5c-10 0 -25.667 -1 -47 -3
c-20.667 -2 -36.334 -3 -47.001 -3c-4 0 -7.33301 1.66699 -10 5s-4 7 -4 11c0 6 12 10.333 36 13c24 2 49 3 75 3c4.66699 0 8.66699 -0.333008 12 -1s6.33301 -2 9 -4c2.66699 -4 4 -7.66699 4 -11c0 -23.333 -8.33301 -59.666 -25 -108.999
c-16 -50.667 -24 -80.667 -24 -90c-2 -10.667 -9.66699 -39.667 -23 -87l-7 -24c-42 -138 -63.333 -239.667 -64 -305c4.66699 -1.33301 14.334 -2 29.001 -2c8 0 15 0.666992 21 2c6 0.666992 13 1 21 1c19.333 0 29 -4.33301 29 -13s-7.66699 -13 -23 -13
c-10.667 0 -20.334 0.333008 -29.001 1l-30 2c-7.33301 0 -14.666 -2 -21.999 -6c-8 -3.33301 -12.667 -5 -14 -5c-10 0 -15 5 -15 15z" />
    <glyph glyph-name="braceleft" unicode="{" horiz-adv-x="235" 
d="M101.5 6c-11.667 20.667 -17.5 49.3252 -17.5 85.9922l2 53c0.666992 14 1 31.333 1 52c0 10.667 0.666992 33.334 2 68.001c1.33301 16.667 2 33.334 2 50.001c0 28.667 -9.33301 44 -28 46c-2.66699 0.666992 -4 4 -4 10c0 4.66699 2.33301 7.33398 7 8.00098
c8 0 14.167 4.33301 18.5 13s6.5 20 6.5 34l-3 92c-2.66699 44.667 -4 84.334 -4 119.001c0 36.667 5.83301 65.334 17.5 86.001s27.167 31 46.5 31c8 0 16.5 -1.83301 25.5 -5.5s13.5 -7.5 13.5 -11.5c0 -6.66699 -3 -10 -9 -10
c-0.666992 -0.666992 -3.33398 -1 -8.00098 -1l-7 2c-5.33301 1.33301 -9.66602 2 -12.999 2c-23.333 0 -35 -32.333 -35 -97v-123c0 -14.667 0.333008 -27.667 1 -39l2 -38c0 -17.333 -1.83301 -30.666 -5.5 -39.999s-10.834 -17 -21.501 -23
c10.667 -5.33301 17.834 -12.666 21.501 -21.999s5.5 -22.666 5.5 -39.999l-2 -50c-0.666992 -15.333 -1 -33 -1 -53v-109c0 -64.667 11.667 -97 35 -97c11.333 0 20 -0.333008 26 -1c7.33301 -2 11 -6 11 -12c0 -7.33301 -13 -11 -39 -11
c-19.333 0 -34.833 10.333 -46.5 31z" />
    <glyph glyph-name="bar" unicode="|" horiz-adv-x="152" 
d="M45.5 -42c-1 0.666992 -1.5 3 -1.5 7c0 30 2 74.333 6 133c4 58 6 102 6 132c0 47.333 2.66699 129.666 8 246.999s8 200.333 8 249c0 6.66699 0.333008 12.334 1 17.001c2 6 5 10.333 9 13c2.66699 1.33301 6 2 10 2s6 -3.66699 6 -11c0 -62 -3 -156 -9 -282
c-6.66699 -141.333 -10 -236 -10 -284c0 -74 -1 -126 -3 -156v-24l-3 -34c0 -6.66699 -5.66699 -10 -17 -10c-6 0 -9.5 0.333008 -10.5 1z" />
    <glyph glyph-name="braceright" unicode="}" horiz-adv-x="235" 
d="M61.5 -21c-8.33301 2.66699 -12.5 6.00293 -12.5 10.0029c0 7.33301 5.33301 11 16 11h7c2.66699 -0.666992 7 -1 13 -1c24 0 36 32.333 36 97v123l-2 39c-0.666992 11.333 -1 24 -1 38c0 18 1.66699 31.5 5 40.5s10.333 16.5 21 22.5
c-10.667 5.33301 -17.667 12.5 -21 21.5s-5 22.5 -5 40.5c0 18.667 0.333008 35.667 1 51l2 52v109c0 64.667 -12 97 -36 97h-15c-14 0 -21 3.33301 -21 10c0 4 4.16699 7.33301 12.5 10s16.833 4 25.5 4c19.333 0 34.833 -10.333 46.5 -31s17.5 -49.334 17.5 -86.001
l-2 -52c-0.666992 -14.667 -1 -32.334 -1 -53.001c0 -10.667 -0.666992 -33.334 -2 -68.001l-2 -50c0 -28.667 9.66699 -44 29 -46c2.66699 -1.33301 4 -4.66602 4 -9.99902c0 -4 -2.66699 -6.66699 -8 -8c-8 0 -14.167 -4.33301 -18.5 -13s-6.5 -20 -6.5 -34l3 -92
c2.66699 -45.333 4 -85 4 -119c0 -36.667 -5.83301 -65.334 -17.5 -86.001s-27.167 -31 -46.5 -31c-8.66699 0 -17.167 1.33301 -25.5 4z" />
    <glyph glyph-name="asciitilde" unicode="~" horiz-adv-x="391" 
d="M211 509c-12 6.66699 -21.6641 13.666 -28.9971 20.999c-5.33301 4.66699 -14 14 -26 28c-2.66699 2.66699 -6.33398 4 -11.001 4c-8 0 -15.5 -3.16699 -22.5 -9.5s-10.5 -12.5 -10.5 -18.5c0 -2.66699 1 -6 3 -10c1.33301 -5.33301 2 -9 2 -11
c-6.66699 -8.66699 -13.334 -13 -20.001 -13s-10 5 -10 15c0 21.333 5.33301 38.5 16 51.5s25.667 19.5 45 19.5c14 0 29 -10 45 -30c6.66699 -8.66699 13.667 -16 21 -22s13.666 -9 18.999 -9c4 0 6.66699 0.333008 8 1l7 -2c2 4.66699 6.66699 9.33398 14 14.001
c6 3.33301 9 11 9 23l-2 10l-4 9c2 4 5.33301 6 10 6c7.33301 0 13 -3.33301 17 -10s6 -14.667 6 -24c0 -14 -5.33301 -26.333 -16 -37s-23 -16 -37 -16c-10.667 0 -22 3.33301 -34 10z" />
    <glyph glyph-name="uni00A0" unicode="&#xa0;" horiz-adv-x="171" 
 />
    <glyph glyph-name="exclamdown" unicode="&#xa1;" horiz-adv-x="273" 
d="M121 703.5c-6.66699 7 -9.99805 13.834 -9.99805 20.501c5.33301 10.667 10.666 17.667 15.999 21c3.33301 2.66699 7.66602 4.66699 12.999 6c2.66699 0 4.66699 1.66699 6 5c16.667 -0.666992 25 -9.33398 25 -26.001c0 -10.667 -2.66699 -19.5 -8 -26.5
s-12.666 -10.5 -21.999 -10.5c-6.66699 0 -13.334 3.5 -20.001 10.5zM144.002 -4.49902c-6.66699 5.66699 -10 11.8359 -10 18.5029c0 20.667 1.33301 46.667 4 78c2 34 3 60.333 3 79c0 31.333 -0.333008 59.666 -1 84.999s-1 54 -1 86v240v2l1 2h13l-3 -5
c5.33301 -14 8 -33.667 8 -59c0 -8.66699 -0.333008 -16.334 -1 -23.001v-21c0 -58.667 3.33301 -138.334 10 -239.001c7.33301 -111.333 11 -191 11 -239c0 -8.66699 -4.33301 -13 -13 -13c-7.33301 0 -14.333 2.83301 -21 8.5z" />
    <glyph glyph-name="cent" unicode="&#xa2;" horiz-adv-x="302" 
d="M176 7.5c-2 1.66699 -3.00195 3.16992 -3.00195 4.50293l-2 -1c-1.33301 24.667 -2 54 -2 88v62c-2.66699 0.666992 -9 3 -19 7s-21 9.66699 -33 17c-10 5.33301 -18 10.666 -24 15.999s-11.333 12.333 -16 21c-6 9.33301 -9.33301 18.666 -10 27.999
c-8.66699 37.333 -13 91 -13 161c0 101.333 26.667 166.666 80 195.999c0 6.66699 -1 17 -3 31l-2 31c0 21.333 4.33301 32 13 32l6 -4c-0.666992 -4 -1 -12.667 -1 -26c0 -24 1.66699 -46 5 -66l21 -7c10.667 -3.33301 20.834 -6.83301 30.501 -10.5
s18.167 -8.16699 25.5 -13.5c8 -6 12 -12.667 12 -20c0 -2 -1 -4.66699 -3 -8s-4 -5 -6 -5c-5.33301 0 -11 4 -17 12c-1.33301 2 -3.16602 5 -5.49902 9s-5 6.83301 -8 8.5s-6.83301 3.16699 -11.5 4.5c-8.66699 2 -14 4.66699 -16 8h-18l-1 2c0 -42 5 -104.667 15 -188
c10 -82 15 -144.333 15 -187c0 -2.66699 -0.333008 -5 -1 -7v-7c0 -5.33301 2.66699 -10.666 8 -15.999c18.667 0 34 4.5 46 13.5s25 24.167 39 45.5c7.33301 0 11 -6 11 -18c0 -8.66699 -5.5 -17.834 -16.5 -27.501s-23.833 -17.834 -38.5 -24.501s-27 -10 -37 -10h-9v-26
c-0.666992 -7.33301 -1 -15.666 -1 -24.999l2 -47l1 -48c0 -5.33301 -2 -8 -6 -8c-2.66699 0 -5 0.833008 -7 2.5zM161.998 196.003c0 42 -5.33301 118.334 -16 229.001c-4 66 -9.33301 113.333 -16 142c-8 -1.33301 -15.5 -8.33301 -22.5 -21s-12.5 -26.334 -16.5 -41.001
s-5.33301 -24 -4 -28c-5.33301 -48 -8 -78.667 -8 -92v-4c0 -124.667 26.333 -187 79 -187z" />
    <glyph glyph-name="sterling" unicode="&#xa3;" horiz-adv-x="343" 
d="M47 24c0 10 12.6699 20.6699 38.0029 32.0029c12 5.33301 18.667 8.66602 20 9.99902c11.333 8 20 23.833 26 47.5s9 47.5 9 71.5s-2.66699 49.333 -8 76s-13.666 58.667 -24.999 96l-10 35l-12 42h-2l-2 -1c-4 0 -7.5 1.33301 -10.5 4s-4.5 6 -4.5 10
c0 9.33301 4.33301 14 13 14c0 15.333 -2 39 -6 71c-4 31.333 -6 55 -6 71c0 25.333 1 47 3 65c1.33301 22.667 6 44.667 14 66c4 11.333 9 20.166 15 26.499s14 11.833 24 16.5c8.66699 4.66699 19 7 31 7c14.667 0 28.167 -6.33301 40.5 -19
s21.166 -27.334 26.499 -44.001c5.33301 -16 8 -28.667 8 -38l-10 -10c-5.33301 0 -9 0.833008 -11 2.5s-4.33301 5.16699 -7 10.5l-5 10c0 16.667 -4.83301 32 -14.5 46s-21.167 21 -34.5 21c-8.66699 0 -16.834 -5.33301 -24.501 -16s-13.5 -24 -17.5 -40
c-8.66699 -34.667 -13 -64 -13 -88c0 -28.667 1.66699 -61.667 5 -99s7 -56 11 -56c14 0 31.667 2.33301 53 7c23.333 4 40.666 6 51.999 6c4 0 7.5 -1.16699 10.5 -3.5s4.5 -5.5 4.5 -9.5c0 -10.667 -4.33301 -16 -13 -16c-39.333 0 -75 -3 -107 -9
c15.333 -34 28.666 -75.833 39.999 -125.5s17 -93.167 17 -130.5c0 -13.333 -1.16699 -25.5 -3.5 -36.5s-6.5 -25.167 -12.5 -42.5l-12 -34c15.333 0 39.666 -3.66699 72.999 -11s57.333 -11 72 -11c15.333 0 30 2.66699 44 8l14 -10c0 -14.667 -15.667 -22 -47 -22
c-8 0 -15.333 0.333008 -22 1l-23 2l-4 -2c-6 4 -16.167 7.5 -30.5 10.5s-27.833 5.16699 -40.5 6.5l-17 2c-17.333 0 -32.166 -2.16699 -44.499 -6.5s-28.5 -12.5 -48.5 -24.5c-10.667 2 -16 5.66699 -16 11z" />
    <glyph glyph-name="currency" unicode="&#xa4;" horiz-adv-x="459" 
d="M347 126l-21.002 36.999c-29.333 -33.333 -69 -50 -119 -50c-15.333 0 -30.833 4.33301 -46.5 13s-29.5 19.667 -41.5 33c-4 0 -7.66699 -4 -11 -12c-5.33301 -11.333 -10.5 -20.166 -15.5 -26.499s-10.5 -9.5 -16.5 -9.5c-7.33301 0 -12.5 2 -15.5 6
s-4.5 10.333 -4.5 19c0 2 7 10.333 21 25c13.333 15.333 21 26 23 32c-4.66699 8 -8.5 18 -11.5 30s-4.83301 22.667 -5.5 32v34c0 60.667 4.66699 117.334 14 170.001c6 34.667 13.333 56.667 22 66c0 7.33301 -8 19.333 -24 36c-16 17.333 -24 27.666 -24 30.999
c0 7.33301 4 11 12 11c7.33301 0 13.833 -2.33301 19.5 -7s11.834 -11.667 18.501 -21c5.33301 -8 10 -14 14 -18c2.66699 2 9 8.33301 19 19l28 28c8 8.66699 13.667 13 17 13c20 0 38.333 -2.83301 55 -8.5s34.334 -14.834 53.001 -27.501
c4 0.666992 9.66699 6.66699 17 18c18.667 33.333 34 50 46 50l14 -15c0 -4.66699 -7.66699 -16.667 -23 -36s-23 -32.666 -23 -39.999c0 -2 5.66699 -20 17 -54c18 -56.667 27 -98.667 27 -126c0 -29.333 -6.33301 -69 -19 -119c0 -2 -1.66699 -8.66699 -5 -20
c-6 -20 -9 -35 -9 -45c0 -14.667 9.66699 -33 29 -55c6 -8 9 -14 9 -18c0 -9.33301 -4.33301 -14 -13 -14c-18 0 -27 6.33301 -27 19zM269.498 150.499c13.667 8.33301 24.833 19.835 33.5 34.502c18 30 30 63.333 36 100c5.33301 34 8 66 8 96
c0 25.333 -3.66699 55.666 -11 90.999s-15.666 56 -24.999 62c-6 0 -10.667 2.33301 -14 7s-5 10 -5 16c-6.66699 9.33301 -16.834 16.833 -30.501 22.5s-27.167 8.5 -40.5 8.5c-9.33301 0 -22.333 -6.83301 -39 -20.5s-25.334 -24.834 -26.001 -33.501l9 -9
c0 -8.66699 -1.16699 -14.5 -3.5 -17.5s-5.83301 -4.16699 -10.5 -3.5c-3.33301 0 -6.33301 -1.33301 -9 -4c-5.33301 -8 -11.166 -32 -17.499 -72s-9.5 -69.333 -9.5 -88c0 -1.33301 0.666992 -7.33301 2 -18c-2 -8.66699 -3 -20.667 -3 -36
c0 -20.667 1.83301 -37.667 5.5 -51s10.5 -24.666 20.5 -33.999c0 -20.667 8 -36.334 24 -47.001s36.333 -16 61 -16c16 0 30.833 4.16699 44.5 12.5z" />
    <glyph glyph-name="yen" unicode="&#xa5;" horiz-adv-x="449" 
d="M192 20c2 4 4.66309 24.001 7.99609 60.001s5 59.333 5 70l2 75l2 39l1 35c2 34 3 60.333 3 79c0 2 -0.666992 5.66699 -2 11c-26.667 0 -68.334 -1.66699 -125.001 -5c-6 2.66699 -11.667 9 -17 19l4 13c57.333 0 105 1.33301 143 4c1.33301 13.333 2 28.666 2 45.999
c0 8.66699 -3.66699 13 -11 13c-13.333 0 -25.333 -0.666992 -36 -2l-36 -2c-37.333 0 -56 6 -56 18l7 11c14 0 27 -0.333008 39 -1h39c32 0 50 2.33301 54 7v19c-7.33301 3.33301 -23.666 28 -48.999 74l-89 155.5c-24.667 41 -44.334 67.5 -59.001 79.5v15l13 4
c4.66699 0 10.334 -3.33301 17.001 -10c11.333 -10.667 27 -31 47 -61l9.5 -14.5l12.5 -19.5c6.66699 -11.333 11.334 -18.333 14.001 -21c0 -4.66699 9.66699 -21.334 29 -50.001c8 -12.667 15 -24.334 21 -35.001l25 -46c7.33301 -11.333 12.333 -18 15 -20
c4 -5.33301 7 -8 9 -8c8.66699 16.667 17 39.334 25 68.001c2.66699 12 12.334 43.667 29.001 95c14 47.333 26.333 85 37 113c5.33301 14.667 9.83301 24.334 13.5 29.001s8.83398 7 15.501 7c4.66699 0 8.66699 -1.5 12 -4.5s5 -6.5 5 -10.5
c-13.333 -28.667 -28.666 -73.667 -45.999 -135c-17.333 -60 -30.333 -102 -39 -126c0 -10.667 -5.33301 -27.334 -16 -50.001s-16 -38.334 -16 -47.001c8 -4 16.333 -6 25 -6l54 2c24 2 42 3 54 3c4 0 10 -7 18 -21c-0.666992 -8.66699 -24.334 -13 -71.001 -13h-80l-1 -27
c-0.666992 -8 -1 -17 -1 -27h111h10c2.66699 0.666992 5.66699 1 9 1c14 0 21 -7.33301 21 -22c0 -3.33301 -2.16699 -6.66602 -6.5 -9.99902s-8.16602 -5 -11.499 -5h-4l2 1l-7 2c-3.33301 1.33301 -7 2 -11 2h-111l-4 -2c0 -40 -2.33301 -93 -7 -159
c-5.33301 -63.333 -8 -116.666 -8 -159.999v-13c0.666992 -4 1 -8.33301 1 -13c0 -24 -7.66699 -36 -23 -36c-13.333 0 -20 4 -20 12z" />
    <glyph glyph-name="brokenbar" unicode="&#xa6;" horiz-adv-x="153" 
d="M68 420.5c-1.33301 1 -2.00098 3.16504 -2.00098 6.49805l2 108c2 47.333 3 83 3 107l1 46c0 16 0.166992 26.167 0.5 30.5s0.5 6.83301 0.5 7.5c0 6.66699 0.333008 12.334 1 17.001c2 6 5 10.333 9 13c2.66699 1.33301 6 2 10 2s6 -3.66699 6 -11l-2 -85l-3 -69
c0 -51.333 -1 -86.666 -3 -105.999v-24l-3 -34c0 -6.66699 -3.33301 -10 -10 -10c-5.33301 0 -8.66602 0.5 -9.99902 1.5zM55.999 -21.502c-1.33301 1 -2 3.16699 -2 6.5c0 22.667 1 55.334 3 98.001l2 97c0 3.33301 0.166992 9 0.5 17s0.5 19.667 0.5 35l1 42
c0 3.33301 0.666992 10.333 2 21c2 7.33301 8 11 18 11c1.33301 0 2.5 -0.166992 3.5 -0.5s1.5 -1.16602 1.5 -2.49902c0.666992 -0.666992 1 -3.33398 1 -8.00098l-3 -90l-2 -74c0 -41.333 -1 -70 -3 -86v-24l-3 -34c0 -2.66699 -0.5 -4.83398 -1.5 -6.50098
s-2.16699 -2.5 -3.5 -2.5c-0.666992 -0.666992 -2.33398 -1 -5.00098 -1c-5.33301 0 -8.66602 0.5 -9.99902 1.5z" />
    <glyph glyph-name="section" unicode="&#xa7;" horiz-adv-x="242" 
d="M86 -19c-8.66699 6 -13 12.332 -13 18.999c0 5.33301 4.33301 8 13 8c2.66699 0 6.33398 -1 11.001 -3c4 -2 7.33301 -3 10 -3c10 0 19 3.33301 27 10s14 15.334 18 26.001c8 20 12 38.333 12 55c0 22.667 -4.33301 43.667 -13 63s-22.334 43.333 -41.001 72l-35 51
c-9.33301 13.333 -16.833 29 -22.5 47s-8.5 37 -8.5 57c0 34.667 7.33301 63.334 22 86.001c-9.33301 22.667 -14 45 -14 67c0 26.667 6 55 18 85c6.66699 15.333 15.334 27.833 26.001 37.5s22.334 14.5 35.001 14.5c8 0 16.333 -3 25 -9s13 -12.333 13 -19
c0 -5.33301 -4.33301 -8 -13 -8c-2.66699 0 -6 1 -10 3c-5.33301 2 -9 3 -11 3c-10 0 -19 -4 -27 -12s-14 -18.333 -18 -31c-8 -24.667 -12 -47.334 -12 -68.001c0 -22.667 4.5 -43.5 13.5 -62.5s22.5 -40.833 40.5 -65.5l34 -47c9.33301 -12.667 17 -27.167 23 -43.5
s9 -33.5 9 -51.5c0 -34 -7.66699 -63.667 -23 -89c10 -22 15 -43.333 15 -64c0 -26.667 -6 -55 -18 -85c-6.66699 -15.333 -15.334 -27.833 -26.001 -37.5s-22.334 -14.5 -35.001 -14.5c-8 0 -16.333 3 -25 9zM172 253.999c0 16 -3 33 -9 51s-13.333 33.333 -22 46l-31 45
c-4 7.33301 -8 13.333 -12 18l-16 24c-8 -20 -12 -42.333 -12 -67c0 -16.667 3 -33.667 9 -51s13 -32 21 -44c8.66699 -14 18.667 -28.667 30 -44l29 -41c8.66699 22 13 43 13 63z" />
    <glyph glyph-name="dieresis" unicode="&#xa8;" horiz-adv-x="449" 
d="M274 539c-4 4.66699 -6 9.66602 -6 14.999c0 6 2.5 11.667 7.5 17s10.5 8 16.5 8s11.167 -2.66699 15.5 -8s6.5 -10.666 6.5 -15.999c0 -15.333 -8.66699 -23 -26 -23c-5.33301 0 -10 2.33301 -14 7zM141.5 535.999c-3.66699 5.33301 -5.5 11.001 -5.5 17.001
s2.5 11.667 7.5 17s10.5 8 16.5 8c6.66699 0 11.667 -3.33301 15 -10s5 -14.334 5 -23.001c0 -5.33301 -2.5 -9.5 -7.5 -12.5s-10.833 -4.5 -17.5 -4.5c-5.33301 0 -9.83301 2.66699 -13.5 8z" />
    <glyph glyph-name="copyright" unicode="&#xa9;" horiz-adv-x="605" 
d="M156.5 30.5c-30.333 19.667 -51.833 46.8301 -64.5 81.4971s-21 79.334 -25 134.001c-2 23.333 -3.33301 49 -4 77c-1.33301 12.667 -2.83301 33.5 -4.5 62.5s-2.5 50.833 -2.5 65.5c0 44.667 3 91.334 9 140.001c4.66699 31.333 10 59.333 16 84s14 49 24 73
c10.667 26 23 47.833 37 65.5s31 31.834 51 42.501c18.667 11.333 41 17 67 17s50.333 -4.83301 73 -14.5s42.667 -23.5 60 -41.5c36 -37.333 63.333 -82.333 82 -135c20.667 -60 34.667 -115.333 42 -166c7.33301 -52 11 -101 11 -147c0 -245.333 -81.333 -368 -244 -368
c-54.667 0 -97.167 9.83301 -127.5 29.5zM418 82.9961c16 18 29.1699 38.332 39.5029 60.999s19.5 50.334 27.5 83.001l-1 5c0 6.66699 2 16 6 28c3.33301 13.333 5 22.333 5 27v149c0 15.333 -3 37 -9 65l-10 48c-21.333 130.667 -68 220.667 -140 270l-13 9l-6 4l-14 8
c-2.66699 2 -5.33398 3.33301 -8.00098 4s-4.66699 1.33398 -6 2.00098c-4 1.33301 -9.66699 2 -17 2c-21.333 0 -41 -5 -59 -15s-33.333 -23.667 -46 -41c-24 -32.667 -42.333 -76.334 -55 -131.001c-10 -48 -16.333 -96 -19 -144c-1.33301 -26.667 -2 -46 -2 -58
c0 -31.333 2 -70 6 -116c0 -7.33301 0.666992 -17 2 -29l1 -24c2.66699 -41.333 6 -75.666 10 -102.999c2.66699 -20.667 6.16699 -37.167 10.5 -49.5s11.166 -26.833 20.499 -43.5c8 -14.667 17.5 -26.334 28.5 -35.001s25.5 -16 43.5 -22c17.333 -6 36.666 -9 57.999 -9
c65.333 0 114.333 18.333 147 55zM259.003 130.995c-2.66699 1.33301 -5.82715 3 -9.49414 5l-11.5 6l-21 10c-26 32.667 -42.333 70.667 -49 114c-3.33301 21.333 -5.5 39.833 -6.5 55.5s-1.5 37.5 -1.5 65.5v4c0 27.333 0.666992 53.333 2 78
c2 34.667 5.33301 66.667 10 96c5.33301 32.667 14 62.667 26 90s29.333 46.333 52 57c11.333 6 26.666 9 45.999 9c13.333 0 24.333 -2.66699 33 -8s20.667 -18.333 36 -39c18.667 -24.667 28 -41.667 28 -51c0 -4 -1.16699 -7.33301 -3.5 -10s-5.5 -4 -9.5 -4
c-11.333 0 -23 13.333 -35 40c-5.33301 11.333 -12.833 20.833 -22.5 28.5s-19.834 11.5 -30.501 11.5c-14 0 -26.333 -4.5 -37 -13.5s-19.334 -20.5 -26.001 -34.5c-5.33301 -12.667 -10 -28.5 -14 -47.5s-7 -37.167 -9 -54.5l-4 -52l-4 -39l2 -4
c-2.66699 -12 -4 -26 -4 -42v-18c0 -29.333 0.666992 -53.166 2 -71.499s4.66602 -38.833 9.99902 -61.5c5.33301 -25.333 12.666 -44.333 21.999 -57v-3c8.66699 -10 15.167 -16.833 19.5 -20.5s11.166 -7.83398 20.499 -12.501c8.66699 -4.66699 18.334 -7 29.001 -7
c12.667 0 24.334 2.66699 35.001 8s19 11.666 25 18.999c1.33301 1.33301 5.66602 6 12.999 14s12.666 12 15.999 12c10 0 15 -7.33301 15 -22c0 -9.33301 -5.66699 -18.666 -17 -27.999s-25 -17 -41 -23s-29.667 -9 -41 -9c-14.667 0 -29.667 3 -45 9z" />
    <glyph glyph-name="ordfeminine" unicode="&#xaa;" horiz-adv-x="249" 
d="M174 378.5c-4 1.66699 -6.33594 5.16992 -7.00293 10.5029c-2.66699 26.667 -4.83398 45 -6.50098 55s-2.5 15.667 -2.5 17c-7.33301 2 -16.333 3 -27 3l-21 1l-19 2c-1.33301 0 -2.66602 -1 -3.99902 -3v-2l-1 -11c-1.33301 -11.333 -3.66602 -24.666 -6.99902 -39.999
c-0.666992 -4.66699 -2.66699 -12.334 -6 -23.001c-4.66699 -2.66699 -8.33398 -5 -11.001 -7s-4.66699 -3 -6 -3c-2 0 -4.33301 1 -7 3s-4 4.33301 -4 7l1 2v2c2 7.33301 4.33301 18.333 7 33l10 45c2 7.33301 4 18.666 6 33.999c0.666992 3.33301 1.66699 9 3 17
s3.33301 16.333 6 25c4 14 6 26.333 6 37c0.666992 4 1.83398 9.66699 3.50098 17s3.83398 17.666 6.50098 30.999c4 17.333 7.33301 34.666 10 51.999c0 0.666992 0.5 2.66699 1.5 6s1.5 8 1.5 14c0 3.33301 0.333008 8.5 1 15.5s1.33398 12.5 2.00098 16.5
c1.33301 10 2.33301 15.333 3 16h10h4c4.66699 0 8 1 10 3c11.333 0 17 -2.66699 17 -8c0 -19.333 1.33301 -39.666 4 -60.999l2 -15.5c0.666992 -5 1 -9.83301 1 -14.5c1.33301 -16.667 4 -40.834 8 -72.501s7 -54.167 9 -67.5l17 -129v-1c0 -4 -1.66699 -7 -5 -9
c-6.66699 0 -12 0.833008 -16 2.5zM155.997 481.003l-12 139l-9 93l-31 -149c-8 -42 -12 -67 -12 -75c0 -2 7.16699 -3.83301 21.5 -5.5s26.5 -2.5 36.5 -2.5h6z" />
    <glyph glyph-name="guillemotleft" unicode="&#xab;" horiz-adv-x="391" 
d="M236 -10c-9.33301 12 -17.334 24.6641 -24.001 37.9971c-1.33301 2 -5 9 -11 21l-6 13l-12 23l-62 121c-21.333 42.667 -35.666 72.334 -42.999 89.001c-12 26 -18 41.333 -18 46s9.33301 30 28 76l19 48l20 49.5l22 53.5c23.333 56.667 36 88.334 38 95.001v1
c12.667 34.667 22 52 28 52c12 0 18.667 -4.66699 20 -14c-8.66699 -13.333 -16.667 -29 -24 -47l-11 -28l-9 -24l-14 -38l-53 -141c-18 -52 -29 -80.667 -33 -86c1.33301 -22.667 45.333 -110 132 -262c28.667 -49.333 43 -76.666 43 -81.999
c0 -2.66699 -2.5 -5.16699 -7.5 -7.5s-9.16699 -3.5 -12.5 -3.5c-2.66699 0 -6 2.33301 -10 7zM322.999 0.99707l-6.99902 0.999023h-2c-10.667 16 -24 42 -40 78l-17 38l-50 104l-10 22c-4 6.66699 -6.83301 11.834 -8.5 15.501s-2.83398 6.5 -3.50098 8.5
c-2 5.33301 -9 16.666 -21 33.999c-12.667 15.333 -19 28.333 -19 39c0 7.33301 7.66699 30 23 68l52 119c18 39.333 29.333 66.333 34 81c0 2 2 8.33301 6 19c2.66699 10.667 5.5 20.5 8.5 29.5s6.5 16.833 10.5 23.5c4 7.33301 8.33301 11.666 13 12.999l13 -10
c-2.66699 -20 -10.5 -46.167 -23.5 -78.5s-27.833 -65.166 -44.5 -98.499c-16 -32 -29.5 -63.167 -40.5 -93.5s-16.5 -54.166 -16.5 -71.499c0 -5.33301 22.833 -54.333 68.5 -147s74.167 -149 85.5 -169l9 -7c-0.666992 -4 -2.5 -8.16699 -5.5 -12.5
s-5.83301 -6.5 -8.5 -6.5z" />
    <glyph glyph-name="logicalnot" unicode="&#xac;" horiz-adv-x="391" 
d="M267 248c-4 3.33301 -6.00195 6.66699 -6.00195 10l-2 50c-0.666992 14 -1 29.667 -1 47c0 2 -1.66699 3.66699 -5 5c-1.33301 0 -3.5 0.166992 -6.5 0.5s-7.5 0.5 -13.5 0.5h-16c-3.33301 0 -13.666 -0.666992 -30.999 -2c-9.33301 -0.666992 -19.666 -1 -30.999 -1h-79
l-1 3c-2 6 -3 10.667 -3 14c0 4.66699 2.33301 7 7 7l30 2c12.667 1.33301 24.667 2 36 2l46 2c13.333 0.666992 29 1 47 1c12.667 0 23.667 0.666992 33 2c6 -0.666992 11.333 -2.5 16 -5.5s7 -6.83301 7 -11.5c0 -2.66699 -0.666992 -8.66699 -2 -18l-2 -14
c0 -44 0.333008 -71.667 1 -83c0 -5.33301 -1.33301 -9.33301 -4 -12s-5.66699 -4 -9 -4s-7 1.66699 -11 5z" />
    <glyph glyph-name="uni00AD" unicode="&#xad;" horiz-adv-x="266" 
d="M40.5 357c-4.33301 3.33301 -6.5 7.33301 -6.5 12c0 2 20.667 4 62 6s77.666 3 108.999 3c5.33301 0 10.333 -1.66699 15 -5s7 -7.33301 7 -12c0 -2 -20.5 -4 -61.5 -6s-77.833 -3 -110.5 -3c-5.33301 0 -10.166 1.66699 -14.499 5z" />
    <glyph glyph-name="registered" unicode="&#xae;" horiz-adv-x="635" 
d="M203 -47c-29.333 19.333 -54.334 48.668 -75.001 88.001c-14.667 29.333 -26.667 69 -36 119c-6 32 -9.66699 74.667 -11 128c-0.666992 12 -1 32.333 -1 61v66c0.666992 19.333 1 41.333 1 66c0 302.667 81.667 454 245 454c25.333 0 51.333 -8.33301 78 -25
s48.667 -37.667 66 -63c10 -2.66699 16.333 -10 19 -22c2.66699 -12.667 7.33398 -22 14.001 -28c0 -16.667 9 -74 27 -172c7.33301 -42 12.5 -76 15.5 -102s4.5 -50.667 4.5 -74v-32c0 -14 -0.666992 -50.333 -2 -109l-1 -29c-0.666992 -30.667 -2.66699 -57.667 -6 -81
s-8 -50.666 -14 -81.999c-10 -54.667 -27.667 -95.334 -53 -122.001c-26 -26.667 -49.833 -45.834 -71.5 -57.501s-46.5 -17.5 -74.5 -17.5c-48 0 -89.667 11.333 -125 34zM404.999 -20.998c28.667 19.333 51.334 46.6641 68.001 81.9971
c14.667 29.333 25.667 65.666 33 108.999c5.33301 31.333 8.66602 71 9.99902 119c0.666992 10.667 1 29.334 1 56.001c0 191.333 -20 345 -60 461l7 8c-6 16.667 -15.333 27 -28 31c-12.667 14 -23 24.333 -31 31s-18.333 13.334 -31 20.001c-15.333 6.66699 -29 10 -41 10
c-25.333 0 -49 -4.66699 -71 -14s-40.333 -22.333 -55 -39c-14.667 -16 -27.667 -35.333 -39 -58s-20.333 -46 -27 -70c-12.667 -43.333 -21 -93 -25 -149c-1.33301 -29.333 -2 -51.666 -2 -66.999c0 -23.333 1 -58 3 -104c2.66699 -42 4 -76.667 4 -104
c0 -142 21.333 -240.333 64 -295c8.66699 -12 20.334 -21.333 35.001 -28c14.667 -9.33301 24 -15.666 28 -18.999c12.667 -4.66699 23.667 -7 33 -7l9 -4c45.333 0 83.666 10.333 114.999 31zM242.999 87.5c-4.66699 3.66699 -7.00195 8.49707 -7.00195 14.4971
c0 47.333 -1.33301 90.333 -4 129c-2 16 -4.33301 31.667 -7 47c-4 22 -6 39.333 -6 52v195c0 20.667 -2 51.334 -6 92.001c-4 32 -6 63 -6 93c0 17.333 1.83301 31.166 5.5 41.499s9.5 17.833 17.5 22.5c8 5.33301 17.167 8.83301 27.5 10.5s24.833 2.5 43.5 2.5
c30 0 53 -9 69 -27c16 -18.667 25.667 -40 29 -64c4 -28 6 -53.333 6 -76c0 -21.333 -2.33301 -40.166 -7 -56.499s-10.667 -29.166 -18 -38.499s-14 -16.333 -20 -21c-6 -5.33301 -11.5 -10.666 -16.5 -15.999s-7.5 -10.333 -7.5 -15c0 -6.66699 7.33301 -37 22 -91
l46 -161c14.667 -52.667 22.667 -79 24 -79v-1l4 -13c2.66699 -6 5 -12.667 7 -20c2.66699 -5.33301 4 -9 4 -11c0 -5.33301 -6.33301 -10.333 -19 -15c-6.66699 0 -13.334 5.33301 -20.001 16c-9.33301 15.333 -19.666 45.333 -30.999 90l-11 48
c-1.33301 5.33301 -3.66602 15.333 -6.99902 30c-3.33301 8.66699 -7.66602 24 -12.999 46l-7 28l-21 85c-6 22.667 -10.667 34 -14 34c-4.66699 0 -11.667 -2 -21 -6c-7.33301 -4.66699 -14.666 -7 -21.999 -7l-3 -39v-18c0 -29.333 3.66699 -77 11 -143
s11 -113.667 11 -143c0 -6.66699 -1 -12 -3 -16c-2 -3.33301 -6.33301 -5 -13 -5s-12.334 1.83301 -17.001 5.5zM314.997 506.997c25.333 20.667 39.998 36.666 43.998 47.999c6 18 9 40 9 66c0 16.667 -0.666992 32 -2 46c-2 18.667 -5.33301 35.334 -10 50.001
c-5.33301 14.667 -14.666 25.667 -27.999 33c-8 4 -16 6 -24 6c-18 0 -31.167 -1.66699 -39.5 -5s-13.833 -9.5 -16.5 -18.5s-4 -22.833 -4 -41.5c0 -26.667 1 -67 3 -121c0.666992 -22 2.33398 -44.333 5.00098 -67c2 -18 5 -27 9 -27c10.667 0 28.667 10.333 54 31z" />
    <glyph glyph-name="macron" unicode="&#xaf;" horiz-adv-x="352" 
d="M97 541c-10 1.33301 -16.333 3.66699 -19 7c-1.33301 2.66699 -2 5 -2 7c0 5.33301 21.333 8 64 8h56c23.333 0 40.333 -0.666992 51 -2c8 -0.666992 13.667 -2.16699 17 -4.5s5 -5.5 5 -9.5c-1.33301 -5.33301 -22.666 -8 -63.999 -8h-57h-19
c-16.667 0 -27.334 0.666992 -32.001 2z" />
    <glyph glyph-name="degree" unicode="&#xb0;" horiz-adv-x="262" 
d="M86 484.5c-12.667 9 -22.833 20 -30.5 33s-11.5 24.833 -11.5 35.5c0 40.667 11 73.667 33 99c12 14 26.333 21 43 21c27.333 0 50.5 -9 69.5 -27s28.5 -39.667 28.5 -65c0 -73.333 -31 -110 -93 -110c-13.333 0 -26.333 4.5 -39 13.5zM163.001 498.5
c10 5.66699 17.666 13.5 22.999 23.5c8.66699 18 13 35 13 51c0 22 -7 40.333 -21 55s-32.333 22 -55 22c-11.333 0 -21.666 -5.5 -30.999 -16.5s-16 -24.5 -20 -40.5c-4 -14.667 -6 -29.667 -6 -45c0 -13.333 6 -26.333 18 -39s26.333 -19 43 -19c14 0 26 2.83301 36 8.5z
" />
    <glyph glyph-name="plusminus" unicode="&#xb1;" horiz-adv-x="391" 
d="M176.5 178.5c-5 3 -7.50098 6.16699 -7.50098 9.5v31c0 9.33301 0.333008 18 1 26l1 26c0 6.66699 -0.166992 11.834 -0.5 15.501s-1.5 7.16699 -3.5 10.5s-5 5.33301 -9 6s-11 1 -21 1l-22 -2c-10 -2 -17.333 -3 -22 -3c-19.333 0 -29 7 -29 21
c0 5.33301 0.666992 9 2 11s4.33301 3 9 3l27 -1l26 -2c27.333 0 41 2.66699 41 8l-2 50c-2 22 -3 38.667 -3 50c0 8 1.33301 13.667 4 17s8 5 16 5c12 0 18 -5.66699 18 -17l-4 -10l2 -39c1.33301 -12 2 -25.333 2 -40c0 -9.33301 2.16699 -15.666 6.5 -18.999
s11.5 -5 21.5 -5l30 2l30 1c20.667 0 31 -6 31 -18c0 -10.667 -5.66699 -16 -17 -16c-10.667 0 -20.667 0.666992 -30 2c-8.66699 0.666992 -19 1 -31 1h-5c-15.333 0 -25.166 -1.83301 -29.499 -5.5s-6.5 -12.834 -6.5 -27.501c0 -10 1.66699 -24 5 -42
c2.66699 -22.667 4 -35.334 4 -38.001c0 -4.66699 -2 -8.5 -6 -11.5s-9 -4.5 -15 -4.5c-4 0 -8.5 1.5 -13.5 4.5zM92.499 111c-4.33301 3.33301 -6.50195 7.33301 -6.50195 12c0 2 21.333 4 64 6s78.334 3 107.001 3c5.33301 0 10.333 -1.66699 15 -5s7 -7.33301 7 -12
c0 -2 -21.167 -4 -63.5 -6s-78.5 -3 -108.5 -3c-5.33301 0 -10.166 1.66699 -14.499 5z" />
    <glyph glyph-name="uni00B2" unicode="&#xb2;" horiz-adv-x="273" 
d="M72 343c-2.66699 2 -4 4.66406 -4 7.99707c14.667 40 24.667 65 30 75c22.667 49.333 39 93.333 49 132s15 80.334 15 125.001c0 50.667 -11.667 76 -35 76c-4.66699 -2.66699 -8.66699 -6.66699 -12 -12s-5.33301 -11 -6 -17c-0.666992 -4.66699 -3.66699 -9 -9 -13
s-9.33301 -5 -12 -3c-4.66699 2.66699 -7 4.66699 -7 6v6c0 15.333 4 28.333 12 39c2 2.66699 6.33301 4.83398 13 6.50098s12 2.5 16 2.5c22 0 38.5 -5.5 49.5 -16.5s16.833 -25.5 17.5 -43.5l-1 -1l1 -20c0.666992 -6 1 -12.667 1 -20c0 -30 -4.16699 -65.667 -12.5 -107
s-18.166 -74.666 -29.499 -99.999c-8 -20 -13.333 -32.333 -16 -37l-13 -27l-13 -31c-0.666992 -1.33301 -1 -3.33301 -1 -6c0 -2 1 -3 3 -3c8.66699 2 16.667 3.5 24 4.5s16.666 1.5 27.999 1.5c5.33301 0 8 -2.66699 8 -8c0 -10 -1.66699 -15 -5 -15c-8 0 -21 -1 -39 -3
c-12.667 -1.33301 -26.667 -2 -42 -2c-4 0 -7.33301 1 -10 3z" />
    <glyph glyph-name="uni00B3" unicode="&#xb3;" horiz-adv-x="252" 
d="M91 345c-8 8 -12.0029 15.3311 -12.0029 21.998l4 2c4.66699 0 10.334 -2.66699 17.001 -8l7 -5c14.667 0 25.334 4.16699 32.001 12.5s10 23.833 10 46.5c0 25.333 -1 46 -3 62c-2 20.667 -7.66699 40.667 -17 60c-4 10.667 -10 19.334 -18 26.001h-2h-3
c-4.66699 0 -8.33398 0.666992 -11.001 2v2l-2 3c0 1.33301 2 4 6 8c1.33301 2 4.83301 6.16699 10.5 12.5s10.167 14.166 13.5 23.499c3.33301 10 5 19 5 27c0 16 -1 30.667 -3 44c-2 19.333 -7.33301 34.333 -16 45c-2 2 -4 3 -6 3c-1.33301 0 -2.83301 -0.333008 -4.5 -1
s-3.5 -1 -5.5 -1c-5.33301 0 -10.166 -1.5 -14.499 -4.5s-7.5 -6.5 -9.5 -10.5c-5.33301 -13.333 -9.66602 -18.666 -12.999 -15.999c-10.667 8 -16.334 13.667 -17.001 17c12 23.333 30.333 35 55 35c5.33301 0 12.666 -1.33301 21.999 -4s15.333 -5.66699 18 -9l2 -1
c14.667 -22 22 -57 22 -105v-7c0 -10.667 -1.66699 -18.667 -5 -24c-2 -2 -3.66699 -4.66699 -5 -8s-2.66602 -6 -3.99902 -8c-1.33301 -1.33301 -2.66602 -2.83301 -3.99902 -4.5s-3 -3 -5 -4s-5.33301 -1.83301 -10 -2.5c8 -2.66699 15.167 -7 21.5 -13
s10.833 -12.667 13.5 -20c4 -12 7.66699 -28 11 -48c0 -2.66699 1.33301 -10 4 -22c2 -7.33301 3.16699 -13.5 3.5 -18.5s0.5 -11.5 0.5 -19.5c0 -13.333 -0.666992 -25.333 -2 -36c-0.666992 -10 -3.66699 -22 -9 -36c-2.66699 -7.33301 -9 -13.166 -19 -17.499
s-15.667 -6.83301 -17 -7.5c-8 -2.66699 -14.333 -4 -19 -4c-6.66699 0 -14 4 -22 12z" />
    <glyph glyph-name="acute" unicode="&#xb4;" horiz-adv-x="303" 
d="M96.5 546c-3.66699 2.66699 -5.49805 6 -5.49805 10c0 2 9.33301 10.667 28 26l32 26l27 21c22.667 17.333 35 27 37 29c14.667 0 22 -5 22 -15l-3 -16c-34.667 -16 -76.334 -44.333 -125.001 -85c-4.66699 0 -8.83398 1.33301 -12.501 4z" />
    <glyph glyph-name="uni00B5" unicode="&#xb5;" horiz-adv-x="366" 
d="M142.5 -4.5c-12.333 7 -22.5029 15.1689 -30.5029 24.502c-9.33301 12 -16.666 45.667 -21.999 101s-8.66602 118.666 -9.99902 189.999c0 16 -0.333008 28 -1 36c-1.33301 167.333 -4 266.333 -8 297l6 14c15.333 -2 23 -20.333 23 -55l3 -265
c0 -18.667 1.66699 -54 5 -106c4 -46.667 6 -82 6 -106c0 -76 25 -114 75 -114c30.667 0 50.334 70 59.001 210l1 20c4.66699 183.333 7 319 7 407l-1 9c-0.666992 2.66699 -1 5.66699 -1 9c0 7.33301 5.66699 11 17 11c8 0 13 -2 15 -6
c1.33301 -6.66699 2 -18.334 2 -35.001c0 -50.667 -2 -84.667 -6 -102l1 -6c0 -8.66699 -1 -22 -3 -40l-2 -40v-10c0.666992 -2.66699 1 -6 1 -10c-1.33301 -16 -2 -31.333 -2 -46c-0.666992 -4.66699 -1 -12 -1 -22c-1.33301 -63.333 -2.66602 -118.333 -3.99902 -165
c-2 -58 -10 -107 -24 -147c-14.667 -42.667 -38.334 -64 -71.001 -64c-10.667 0 -22.167 3.5 -34.5 10.5zM43.4971 -139.998c-1 0.666992 -1.5 3 -1.5 7c0 30 2 74.333 6 133c4 58 6 102 6 132c0 47.333 2.66699 129.666 8 246.999s8 200.333 8 249
c0 6.66699 0.333008 12.334 1 17.001c2 6 5 10.333 9 13c2.66699 1.33301 6 2 10 2s6 -3.66699 6 -11c0 -62 -3 -156 -9 -282c-6.66699 -141.333 -10 -236 -10 -284c0 -74 -1 -126 -3 -156v-24l-3 -34c0 -6.66699 -5.66699 -10 -17 -10c-6 0 -9.5 0.333008 -10.5 1z" />
    <glyph glyph-name="paragraph" unicode="&#xb6;" horiz-adv-x="452" 
d="M320 50c0 70.667 1.33105 157.999 3.99805 261.999c3.33301 130 5 217.333 5 262c0 30 -1.33301 66.333 -4 109c-2 48 -3 84.333 -3 109v17c0.666992 4 1 9 1 15c0 17.333 -3.33301 30.166 -10 38.499s-18.667 12.5 -36 12.5c-7.33301 0 -11 -17 -11 -51
c0 -38 2 -95.667 6 -173c4.66699 -72 7 -129.667 7 -173c0 -34 -0.666992 -75.667 -2 -125c-0.666992 -5.33301 -1 -12.666 -1 -21.999l-3 -60c-0.666992 -34 -2 -64 -4 -90l-5 -79.5c-2 -31 -3.33301 -55.5 -4 -73.5l2 -6c0 -4 -2.16699 -7.5 -6.5 -10.5
s-8.5 -4.5 -12.5 -4.5c-12.667 0 -19 6.66699 -19 20c0 54 3.33301 128 10 222c7.33301 102.667 11 176.334 11 221.001l-1 39c-0.666992 11.333 -1 24 -1 38h-84c-10 4 -22 8 -36 12c-26 7.33301 -46.667 15.333 -62 24c-20 12 -33.333 33.333 -40 64l-2 15
c0 6.66699 -1.33301 12 -4 16c0 52 10 96.333 30 133c10.667 19.333 22.167 33 34.5 41s28.833 15 49.5 21c18.667 4.66699 30.334 8 35.001 10c15.333 6 35 9 59 9c20 1.33301 29 2 27 2c4.66699 6.66699 12.667 10 24 10c2 0 8.33301 -1.33301 19 -4
c8 -2.66699 14.667 -4 20 -4c12 0 19.667 0.666992 23 2c4.66699 -4 11.334 -6.66699 20.001 -8c14 -2 23.833 -4 29.5 -6s8.5 -5.33301 8.5 -10c0 -9.33301 -6.66699 -14 -20 -14c-8 0 -14.667 0.666992 -20 2l2 -102l2 -51c2.66699 -59.333 4 -110 4 -152
c0 -47.333 -1 -118.666 -3 -213.999c-2.66699 -84.667 -4 -156 -4 -214c0 -15.333 1.33301 -34 4 -56c2 -24.667 3 -43.334 3 -56.001c0 -4.66699 -1.66699 -8.5 -5 -11.5s-7.33301 -4.5 -12 -4.5c-16.667 0 -25 16.333 -25 49zM237.498 575.999
c3.66699 2.66699 5.49902 8 5.49902 16c0 20.667 -1.66699 60 -5 118c-2.66699 46 -4 85.333 -4 118v14l1 14c-6 6 -23.333 9 -52 9c-24 0 -46.667 -7.5 -68 -22.5s-38.166 -34.5 -50.499 -58.5s-18.5 -48.667 -18.5 -74c0 -54 15.667 -91 47 -111c16 -10 33.333 -17 52 -21
s41.667 -6 69 -6c12 0 19.833 1.33301 23.5 4z" />
    <glyph glyph-name="periodcentered" unicode="&#xb7;" horiz-adv-x="147" 
d="M55.5 347.5c-4.33301 5 -6.49902 10.499 -6.49902 16.499c0 6.66699 2.66699 12.834 8 18.501s11.333 8.5 18 8.5c5.33301 0 10.666 -2.83301 15.999 -8.5s8 -11.5 8 -17.5c0 -16.667 -9.33301 -25 -28 -25c-6 0 -11.167 2.5 -15.5 7.5z" />
    <glyph glyph-name="cedilla" unicode="&#xb8;" horiz-adv-x="303" 
d="M125.5 -211.5c-9 5 -13.499 11.499 -13.499 19.499c0 6.66699 3.66699 10 11 10c2.66699 0 8 -1.66699 16 -5s13.333 -5 16 -5c11.333 0 20.666 6.83301 27.999 20.5s11 29.834 11 48.501c0 22 -5 37 -15 45l-13 -2l-14 -2c-10 0 -19 6.66699 -27 20
c5.33301 14 8 33.333 8 58v11l29 4c-2.66699 -20 -4 -37 -4 -51c48.667 -2.66699 73 -36 73 -100c0 -10.667 -3.5 -22.167 -10.5 -34.5s-16.5 -22.833 -28.5 -31.5s-24.333 -13 -37 -13c-10.667 0 -20.5 2.5 -29.5 7.5z" />
    <glyph glyph-name="uni00B9" unicode="&#xb9;" horiz-adv-x="254" 
d="M61 339c-1.33301 4 -1.99902 8.66602 -1.99902 13.999c0 0.666992 0.333008 1.5 1 2.5s1.66699 1.5 3 1.5h16h16c6 0 9.83301 0.666992 11.5 2s2.5 4.33301 2.5 9c0 62 -4.33301 163.333 -13 304c0 0.666992 0.166992 2.33398 0.5 5.00098s0.5 7 0.5 13v18
c0 8.66699 -1.33301 14 -4 16s-10 3 -22 3l-6 -1h-6c-3.33301 0 -5.83301 1.5 -7.5 4.5s-2.5 5.83301 -2.5 8.5c0 4.66699 4 7 12 7c4.66699 0.666992 19 1 43 1c3.33301 0 7.66602 -1 12.999 -3s8 -4 8 -6v-17v-53l2 -52c0 -10 1.33301 -36 4 -78c2 -40.667 3 -74 3 -100
v-7l2 -31l1 -32v-5l-1 -4l2 -1h13c4 0.666992 8.33301 1 13 1c11.333 0 17 -2.33301 17 -7c0 -3.33301 -1.16699 -6.83301 -3.5 -10.5s-5.5 -5.5 -9.5 -5.5l-44 -1l-57 -2c-2.66699 0 -4.66699 2 -6 6z" />
    <glyph glyph-name="ordmasculine" unicode="&#xba;" horiz-adv-x="259" 
d="M66.5 425c-11.667 33.333 -17.498 84.999 -17.498 154.999v19c0 53.333 3.83301 92.5 11.5 117.5s20.5 37.5 38.5 37.5c0.666992 0 3 -0.666992 7 -2c16.667 -4.66699 28.334 -7 35.001 -7c8 -0.666992 14.333 -2.66699 19 -6s8.66699 -8.66602 12 -15.999
c7.33301 -13.333 13 -30.833 17 -52.5s6 -44.167 6 -67.5l-1 -2c0 -12.667 0.333008 -24 1 -34v-33c0 -18.667 -0.666992 -35.667 -2 -51c-2 -25.333 -5.33301 -45 -10 -59c-6.66699 -20 -16 -34 -28 -42c-2.66699 -2 -7.33398 -3.66699 -14.001 -5s-12.334 -2 -17.001 -2
c-26.667 0 -45.834 16.667 -57.501 50zM154.002 421.999c7.33301 22.667 11.6631 43.667 12.9961 63c0.666992 16.667 1 34.667 1 54l-2 65l-2 21l-2 45l-2 4l1 3c0 16 -4.33301 29.333 -13 40s-19.667 16 -33 16c-9.33301 0 -16.5 -1.5 -21.5 -4.5
s-8.16699 -8.5 -9.5 -16.5l-2 -24c0 -6 -0.166992 -15.167 -0.5 -27.5s-1.16602 -21.833 -2.49902 -28.5l-2 -26c-0.666992 -7.33301 -1 -16 -1 -26v-22c0.666992 -6.66699 1 -14 1 -22c0 -14.667 1.66699 -34.667 5 -60c2.66699 -28 9.33398 -51 20.001 -69
c4.66699 -8.66699 11.334 -13 20.001 -13c14.667 0 25.334 9.33301 32.001 28z" />
    <glyph glyph-name="guillemotright" unicode="&#xbb;" horiz-adv-x="391" 
d="M132.5 -13.5c-5 2.33301 -7.49902 4.83398 -7.49902 7.50098c0 3.33301 14.333 30.666 43 81.999c34.667 60 65.167 115.333 91.5 166s39.833 82.667 40.5 96c-4 5.33301 -15 34 -33 86l-53 141l-14 38l-9 24c-9.33301 24 -16.333 41 -21 51
c-2.66699 6.66699 -7.33398 14.667 -14.001 24c1.33301 9.33301 8 14 20 14c6 0 15.333 -17.333 28 -52v-1l38 -95l22 -53.5l20 -49.5l19 -48c18.667 -46 28 -71.333 28 -76s-6 -20 -18 -46c-22.667 -50 -51.667 -108.333 -87 -175
c-14.667 -29.333 -24.667 -48.666 -30 -57.999l-17 -34c-8.66699 -16.667 -16.667 -29.334 -24 -38.001c-4 -4.66699 -7 -7 -9 -7c-4 0 -8.5 1.16699 -13.5 3.5zM54.501 6.50098c-3 4.33301 -5.16895 8.50098 -6.50195 12.501l9 7c13.333 23.333 42.333 80.5 87 171.5
s67 139.167 67 144.5c0 17.333 -5.33301 41.333 -16 72s-24 61.667 -40 93s-30.667 63.666 -44 96.999s-21.666 60 -24.999 80l13 10c4 -0.666992 8.5 -4.83398 13.5 -12.501s8.83301 -15.834 11.5 -24.501c3.33301 -12.667 6 -22 8 -28l5 -20
c4.66699 -14.667 16 -41.667 34 -81c6 -12.667 20 -44.667 42 -96l10 -23c15.333 -38 23 -60.667 23 -68c0 -10 -6 -23 -18 -39c-13.333 -19.333 -20.666 -30.666 -21.999 -33.999c-2.66699 -7.33301 -6.66699 -15.666 -12 -24.999l-10 -21l-86 -178l-21 -42l-8 -1l-6 -1
c-2.66699 0 -5.5 2.16699 -8.5 6.5z" />
    <glyph glyph-name="onequarter" unicode="&#xbc;" horiz-adv-x="620" 
d="M184 15c0 14 1.66797 29.667 5.00098 47s8.66602 41 15.999 71l14 56c42.667 189.333 84.334 362 125.001 518l2 6c0.666992 4 1.66699 8.16699 3 12.5s2.33301 7.5 3 9.5l5 10c1.33301 2 2.66602 3 3.99902 3c10 0 15 -4.33301 15 -13
c0 -0.666992 -1.66699 -8.66699 -5 -24l-10 -43l-5 -25l-38 -168l-75 -329l-20 -87c-0.666992 -2 -1.66699 -6.66699 -3 -14l-8 -31c-4 -10 -10.333 -15.667 -19 -17c-6 4 -9 10 -9 18zM61.001 339c-1.33301 4 -1.99902 8.66602 -1.99902 13.999
c0 0.666992 0.333008 1.5 1 2.5s1.66699 1.5 3 1.5h16h16c6 0 9.83301 0.666992 11.5 2s2.5 4.33301 2.5 9c0 62 -4.33301 163.333 -13 304c0 0.666992 0.166992 2.33398 0.5 5.00098s0.5 7 0.5 13v18c0 8.66699 -1.33301 14 -4 16s-10 3 -22 3l-6 -1h-6
c-3.33301 0 -5.83301 1.5 -7.5 4.5s-2.5 5.83301 -2.5 8.5c0 4.66699 4 7 12 7c4.66699 0.666992 19 1 43 1c3.33301 0 7.66602 -1 12.999 -3s8 -4 8 -6v-17v-53l2 -52c0 -10 1.33301 -36 4 -78c2 -40.667 3 -74 3 -100v-7l2 -31l1 -32v-5l-1 -4l2 -1h13
c4 0.666992 8.33301 1 13 1c11.333 0 17 -2.33301 17 -7c0 -3.33301 -1.16699 -6.83301 -3.5 -10.5s-5.5 -5.5 -9.5 -5.5l-44 -1l-57 -2c-2.66699 0 -4.66699 2 -6 6zM507.002 -9.00098l0.00292969 20l-1 2c2 6 3 12.333 3 19l-2 29c-2 12 -3 21.333 -3 28
c0 4.66699 0.333008 9 1 13l1 12c0 14 -2 22 -6 24c-0.666992 0 -3.83398 -0.166992 -9.50098 -0.5s-20.834 -0.5 -45.501 -0.5c-4 0 -7.33301 -0.333008 -10 -1s-5 -1 -7 -1l-5 1h-11c-4 0 -6.66699 0.666992 -8 2c-2 2 -3.33301 3 -4 3v2l3 18l-5 11
c0 4.66699 0.666992 9 2 13c2 6 3 10.667 3 14c0 12 1 30 3 54c1.33301 16 2 34.333 2 55v88c0 2.66699 -0.333008 5 -1 7s-1 4.33301 -1 7s1.16699 4.5 3.5 5.5s7.83301 1.5 16.5 1.5c6.66699 0 10 -2.33301 10 -7c0 -8.66699 -0.333008 -16.334 -1 -23.001s-1 -14 -1 -22
c0 -7.33301 0.666992 -13.666 2 -18.999l-2 -1l2 -16c0 -15.333 -1 -38.666 -3 -69.999c-2.66699 -27.333 -4 -47.666 -4 -60.999c0 -3.33301 0.666992 -6 2 -8l2 -8l-2 -8c-1.33301 -2 -2 -4.33301 -2 -7c0 -7.33301 1.66699 -11 5 -11c8.66699 0 21.5 0.666992 38.5 2
s26.5 2.33301 28.5 3l1 39c0 21.333 -1.33301 45.333 -4 72c-0.666992 2 -1 4.83301 -1 8.5s-0.666992 8.16699 -2 13.5l-2 23c0 2 1.16699 3.5 3.5 4.5s4.5 1.5 6.5 1.5l18 -6l2 -39c0.666992 -11.333 1 -24.333 1 -39c0 -14 0.666992 -30 2 -48s2.66602 -28 3.99902 -30
c4 0 7.33301 0.333008 10 1c5.33301 1.33301 9 2 11 2c3.33301 0 5.83301 -1.16699 7.5 -3.5s2.5 -6.5 2.5 -12.5c0 -5.33301 -5 -7.33301 -15 -6h-2c-9.33301 0 -14 -4 -14 -12c0 -14.667 0.666992 -33.334 2 -56.001s2.33301 -35.334 3 -38.001v-10
c0 -4.66699 0.666992 -9 2 -13l-2 -7l2 -4v-7l-9 -7z" />
    <glyph glyph-name="onehalf" unicode="&#xbd;" horiz-adv-x="586" 
d="M61 339c-1.33301 4 -1.99902 8.66602 -1.99902 13.999c0 0.666992 0.333008 1.5 1 2.5s1.66699 1.5 3 1.5h16h16c6 0 9.83301 0.666992 11.5 2s2.5 4.33301 2.5 9c0 62 -4.33301 163.333 -13 304c0 0.666992 0.166992 2.33398 0.5 5.00098s0.5 7 0.5 13v18
c0 8.66699 -1.33301 14 -4 16s-10 3 -22 3l-6 -1h-6c-3.33301 0 -5.83301 1.5 -7.5 4.5s-2.5 5.83301 -2.5 8.5c0 4.66699 4 7 12 7c4.66699 0.666992 19 1 43 1c3.33301 0 7.66602 -1 12.999 -3s8 -4 8 -6v-17v-53l2 -52c0 -10 1.33301 -36 4 -78c2 -40.667 3 -74 3 -100
v-7l2 -31l1 -32v-5l-1 -4l2 -1h13c4 0.666992 8.33301 1 13 1c11.333 0 17 -2.33301 17 -7c0 -3.33301 -1.16699 -6.83301 -3.5 -10.5s-5.5 -5.5 -9.5 -5.5l-44 -1l-57 -2c-2.66699 0 -4.66699 2 -6 6zM191.001 14.999c0 14 1.66797 29.667 5.00098 47s8.66602 41 15.999 71
l14 56c42.667 189.333 84.334 362 125.001 518l2 6c0.666992 4 1.66699 8.16699 3 12.5s2.33301 7.5 3 9.5l5 10c1.33301 2 2.66602 3 3.99902 3c10 0 15 -4.33301 15 -13c0 -0.666992 -1.66699 -8.66699 -5 -24l-10 -43l-5 -25l-38 -168l-75 -329l-20 -87
c-0.666992 -2 -1.66699 -6.66699 -3 -14l-8 -31c-4 -10 -10.333 -15.667 -19 -17c-6 4 -9 10 -9 18zM414.002 -1.00098c-2.66699 2 -4 4.66406 -4 7.99707c14.667 40 24.667 65 30 75c22.667 49.333 39 93.333 49 132s15 80.334 15 125.001c0 50.667 -11.667 76 -35 76
c-4.66699 -2.66699 -8.66699 -6.66699 -12 -12s-5.33301 -11 -6 -17c-0.666992 -4.66699 -3.66699 -9 -9 -13s-9.33301 -5 -12 -3c-4.66699 2.66699 -7 4.66699 -7 6v6c0 15.333 4 28.333 12 39c2 2.66699 6.33301 4.83398 13 6.50098s12 2.5 16 2.5
c22 0 38.5 -5.5 49.5 -16.5s16.833 -25.5 17.5 -43.5l-1 -1l1 -20c0.666992 -6 1 -12.667 1 -20c0 -30 -4.16699 -65.667 -12.5 -107s-18.166 -74.666 -29.499 -99.999c-8 -20 -13.333 -32.333 -16 -37l-13 -27l-13 -31c-0.666992 -1.33301 -1 -3.33301 -1 -6
c0 -2 1 -3 3 -3c8.66699 2 16.667 3.5 24 4.5s16.666 1.5 27.999 1.5c5.33301 0 8 -2.66699 8 -8c0 -10 -1.66699 -15 -5 -15c-8 0 -21 -1 -39 -3c-12.667 -1.33301 -26.667 -2 -42 -2c-4 0 -7.33301 1 -10 3z" />
    <glyph glyph-name="threequarters" unicode="&#xbe;" horiz-adv-x="620" 
d="M91 345c-8 8 -12.0029 15.3311 -12.0029 21.998l4 2c4.66699 0 10.334 -2.66699 17.001 -8l7 -5c14.667 0 25.334 4.16699 32.001 12.5s10 23.833 10 46.5c0 25.333 -1 46 -3 62c-2 20.667 -7.66699 40.667 -17 60c-4 10.667 -10 19.334 -18 26.001h-2h-3
c-4.66699 0 -8.33398 0.666992 -11.001 2v2l-2 3c0 1.33301 2 4 6 8c1.33301 2 4.83301 6.16699 10.5 12.5s10.167 14.166 13.5 23.499c3.33301 10 5 19 5 27c0 16 -1 30.667 -3 44c-2 19.333 -7.33301 34.333 -16 45c-2 2 -4 3 -6 3c-1.33301 0 -2.83301 -0.333008 -4.5 -1
s-3.5 -1 -5.5 -1c-5.33301 0 -10.166 -1.5 -14.499 -4.5s-7.5 -6.5 -9.5 -10.5c-5.33301 -13.333 -9.66602 -18.666 -12.999 -15.999c-10.667 8 -16.334 13.667 -17.001 17c12 23.333 30.333 35 55 35c5.33301 0 12.666 -1.33301 21.999 -4s15.333 -5.66699 18 -9l2 -1
c14.667 -22 22 -57 22 -105v-7c0 -10.667 -1.66699 -18.667 -5 -24c-2 -2 -3.66699 -4.66699 -5 -8s-2.66602 -6 -3.99902 -8c-1.33301 -1.33301 -2.66602 -2.83301 -3.99902 -4.5s-3 -3 -5 -4s-5.33301 -1.83301 -10 -2.5c8 -2.66699 15.167 -7 21.5 -13
s10.833 -12.667 13.5 -20c4 -12 7.66699 -28 11 -48c0 -2.66699 1.33301 -10 4 -22c2 -7.33301 3.16699 -13.5 3.5 -18.5s0.5 -11.5 0.5 -19.5c0 -13.333 -0.666992 -25.333 -2 -36c-0.666992 -10 -3.66699 -22 -9 -36c-2.66699 -7.33301 -9 -13.166 -19 -17.499
s-15.667 -6.83301 -17 -7.5c-8 -2.66699 -14.333 -4 -19 -4c-6.66699 0 -14 4 -22 12zM192.997 14.998c0 14 1.66797 29.667 5.00098 47s8.66602 41 15.999 71l14 56c42.667 189.333 84.334 362 125.001 518l2 6c0.666992 4 1.66699 8.16699 3 12.5s2.33301 7.5 3 9.5l5 10
c1.33301 2 2.66602 3 3.99902 3c10 0 15 -4.33301 15 -13c0 -0.666992 -1.66699 -8.66699 -5 -24l-10 -43l-5 -25l-38 -168l-75 -329l-20 -87c-0.666992 -2 -1.66699 -6.66699 -3 -14l-8 -31c-4 -10 -10.333 -15.667 -19 -17c-6 4 -9 10 -9 18zM506.998 -9.00195
l0.00292969 20l-1 2c2 6 3 12.333 3 19l-2 29c-2 12 -3 21.333 -3 28c0 4.66699 0.333008 9 1 13l1 12c0 14 -2 22 -6 24c-0.666992 0 -3.83398 -0.166992 -9.50098 -0.5s-20.834 -0.5 -45.501 -0.5c-4 0 -7.33301 -0.333008 -10 -1s-5 -1 -7 -1l-5 1h-11
c-4 0 -6.66699 0.666992 -8 2c-2 2 -3.33301 3 -4 3v2l3 18l-5 11c0 4.66699 0.666992 9 2 13c2 6 3 10.667 3 14c0 12 1 30 3 54c1.33301 16 2 34.333 2 55v88c0 2.66699 -0.333008 5 -1 7s-1 4.33301 -1 7s1.16699 4.5 3.5 5.5s7.83301 1.5 16.5 1.5
c6.66699 0 10 -2.33301 10 -7c0 -8.66699 -0.333008 -16.334 -1 -23.001s-1 -14 -1 -22c0 -7.33301 0.666992 -13.666 2 -18.999l-2 -1l2 -16c0 -15.333 -1 -38.666 -3 -69.999c-2.66699 -27.333 -4 -47.666 -4 -60.999c0 -3.33301 0.666992 -6 2 -8l2 -8l-2 -8
c-1.33301 -2 -2 -4.33301 -2 -7c0 -7.33301 1.66699 -11 5 -11c8.66699 0 21.5 0.666992 38.5 2s26.5 2.33301 28.5 3l1 39c0 21.333 -1.33301 45.333 -4 72c-0.666992 2 -1 4.83301 -1 8.5s-0.666992 8.16699 -2 13.5l-2 23c0 2 1.16699 3.5 3.5 4.5s4.5 1.5 6.5 1.5l18 -6
l2 -39c0.666992 -11.333 1 -24.333 1 -39c0 -14 0.666992 -30 2 -48s2.66602 -28 3.99902 -30c4 0 7.33301 0.333008 10 1c5.33301 1.33301 9 2 11 2c3.33301 0 5.83301 -1.16699 7.5 -3.5s2.5 -6.5 2.5 -12.5c0 -5.33301 -5 -7.33301 -15 -6h-2c-9.33301 0 -14 -4 -14 -12
c0 -14.667 0.666992 -33.334 2 -56.001s2.33301 -35.334 3 -38.001v-10c0 -4.66699 0.666992 -9 2 -13l-2 -7l2 -4v-7l-9 -7z" />
    <glyph glyph-name="questiondown" unicode="&#xbf;" horiz-adv-x="241" 
d="M113.5 637.5c-5 5.66699 -7.5 11.501 -7.5 17.501c0 16.667 9.33301 25 28 25c6 0 11.167 -2.5 15.5 -7.5s6.5 -10.5 6.5 -16.5c0 -6.66699 -2.66699 -12.834 -8 -18.501s-11.333 -8.5 -18 -8.5c-6 0 -11.5 2.83301 -16.5 8.5zM80 -72.999
c-6.66699 13.333 -11.8359 30.334 -15.5029 51.001s-5.5 41 -5.5 61c0 59.333 10.667 125.666 32 198.999c8.66699 30.667 16.167 69.667 22.5 117s9.5 96 9.5 146l-1 57c0 -1.33301 0.666992 -1.33301 2 0c2 2 5.33301 3 10 3c6.66699 0 10.334 -4 11.001 -12
c0 -102 -6.33301 -193 -19 -273c-3.33301 -20.667 -8.66602 -45 -15.999 -73c-8.66699 -36 -15 -66.667 -19 -92s-6 -49 -6 -71c0 -17.333 0.666992 -32.5 2 -45.5s4.66602 -26.833 9.99902 -41.5c6 -17.333 14 -26 24 -26h11c23.333 0 35 20.667 35 62
c0 12 -2.33301 32 -7 60c6.66699 3.33301 12.334 5 17.001 5s7.33398 -1.66699 8.00098 -5c4.66699 -29.333 7 -50 7 -62c0 -20 -4 -38 -12 -54c-10 -18.667 -25.333 -28 -46 -28c-28.667 0 -46.667 7.33301 -54 22z" />
    <glyph glyph-name="Agrave" unicode="&#xc0;" horiz-adv-x="353" 
d="M249.5 5c-3.66699 3.33301 -5.50195 7.33398 -5.50195 12.001v131c0 8 -17 15.333 -51 22s-62 10 -84 10c-1.33301 0 -3.5 -5 -6.5 -15l-6.5 -22c-8.66699 -34.667 -17.334 -71.667 -26.001 -111l-5 -22c-1.33301 -5.33301 -4.66602 -8 -9.99902 -8
s-10.166 1.66699 -14.499 5s-6.5 7.33301 -6.5 12l1 2v1l11 50c8 31.333 15 62 21 92c6.66699 34 11.667 56 15 66c5.33301 22 16 77 32 165l6 33c17.333 102.667 29.333 167.334 36 194.001c3.33301 16 9.33301 39.667 18 71c3.33301 13.333 8 26.666 14 39.999
c6 11.333 11 17 15 17c10.667 0 18.334 -3.33301 23.001 -10c3.33301 -6 8.5 -39 15.5 -99s13.167 -120.667 18.5 -182l13 -166c0 -28.667 2 -72 6 -130c4 -58.667 6 -102.334 6 -131.001v-4c0 -7.33301 -1 -14 -3 -20c-2.66699 -5.33301 -9 -8 -19 -8
c-5.33301 0 -9.83301 1.66699 -13.5 5zM242.998 203.001c0 41.333 -2.33301 97.8311 -7 169.498s-9.66699 134.834 -15 189.501c-1.33301 23.333 -4 49 -8 77l-4 39c0 -0.666992 -0.666992 3 -2 11l-2 12c-5.33301 -14.667 -10.5 -35 -15.5 -61s-10.167 -56.667 -15.5 -92
c-16 -99.333 -29.667 -174 -41 -224l-9 -34c-10 -33.333 -15 -58.666 -15 -75.999v-6c29.333 -9.33301 63 -14 101 -14h6c2 -0.666992 4.33301 -1 7 -1c13.333 0 20 3.33301 20 10zM216.998 798.499l-48 27.501l-16 1c-20 4 -30 11.667 -30 23s3.33301 19.333 10 24l6 -2
c20 -2.66699 32 -8.33398 36 -17.001c0 -0.666992 4 -2.66699 12 -6l36 -22c14.667 -9.33301 27 -18 37 -26c10.667 -8.66699 16 -15.667 16 -21c0 -4.66699 -4.33301 -7 -13 -7z" />
    <glyph glyph-name="Aacute" unicode="&#xc1;" horiz-adv-x="353" 
d="M249.5 5c-3.66699 3.33301 -5.50195 7.33398 -5.50195 12.001v131c0 8 -17 15.333 -51 22s-62 10 -84 10c-1.33301 0 -3.5 -5 -6.5 -15l-6.5 -22c-8.66699 -34.667 -17.334 -71.667 -26.001 -111l-5 -22c-1.33301 -5.33301 -4.66602 -8 -9.99902 -8
s-10.166 1.66699 -14.499 5s-6.5 7.33301 -6.5 12l1 2v1l11 50c8 31.333 15 62 21 92c6.66699 34 11.667 56 15 66c5.33301 22 16 77 32 165l6 33c17.333 102.667 29.333 167.334 36 194.001c3.33301 16 9.33301 39.667 18 71c3.33301 13.333 8 26.666 14 39.999
c6 11.333 11 17 15 17c10.667 0 18.334 -3.33301 23.001 -10c3.33301 -6 8.5 -39 15.5 -99s13.167 -120.667 18.5 -182l13 -166c0 -28.667 2 -72 6 -130c4 -58.667 6 -102.334 6 -131.001v-4c0 -7.33301 -1 -14 -3 -20c-2.66699 -5.33301 -9 -8 -19 -8
c-5.33301 0 -9.83301 1.66699 -13.5 5zM242.998 203.001c0 41.333 -2.33301 97.8311 -7 169.498s-9.66699 134.834 -15 189.501c-1.33301 23.333 -4 49 -8 77l-4 39c0 -0.666992 -0.666992 3 -2 11l-2 12c-5.33301 -14.667 -10.5 -35 -15.5 -61s-10.167 -56.667 -15.5 -92
c-16 -99.333 -29.667 -174 -41 -224l-9 -34c-10 -33.333 -15 -58.666 -15 -75.999v-6c29.333 -9.33301 63 -14 101 -14h6c2 -0.666992 4.33301 -1 7 -1c13.333 0 20 3.33301 20 10zM211.498 804.999c-3.66699 2.66699 -5.49805 6 -5.49805 10c0 2 9.33301 10.667 28 26
l32 26l27 21c22.667 17.333 35 27 37 29c14.667 0 22 -5 22 -15l-3 -16c-34.667 -16 -76.334 -44.333 -125.001 -85c-4.66699 0 -8.83398 1.33301 -12.501 4z" />
    <glyph glyph-name="Acircumflex" unicode="&#xc2;" horiz-adv-x="353" 
d="M249.5 5c-3.66699 3.33301 -5.50195 7.33398 -5.50195 12.001v131c0 8 -17 15.333 -51 22s-62 10 -84 10c-1.33301 0 -3.5 -5 -6.5 -15l-6.5 -22c-8.66699 -34.667 -17.334 -71.667 -26.001 -111l-5 -22c-1.33301 -5.33301 -4.66602 -8 -9.99902 -8
s-10.166 1.66699 -14.499 5s-6.5 7.33301 -6.5 12l1 2v1l11 50c8 31.333 15 62 21 92c6.66699 34 11.667 56 15 66c5.33301 22 16 77 32 165l6 33c17.333 102.667 29.333 167.334 36 194.001c3.33301 16 9.33301 39.667 18 71c3.33301 13.333 8 26.666 14 39.999
c6 11.333 11 17 15 17c10.667 0 18.334 -3.33301 23.001 -10c3.33301 -6 8.5 -39 15.5 -99s13.167 -120.667 18.5 -182l13 -166c0 -28.667 2 -72 6 -130c4 -58.667 6 -102.334 6 -131.001v-4c0 -7.33301 -1 -14 -3 -20c-2.66699 -5.33301 -9 -8 -19 -8
c-5.33301 0 -9.83301 1.66699 -13.5 5zM242.998 203.001c0 41.333 -2.33301 97.8311 -7 169.498s-9.66699 134.834 -15 189.501c-1.33301 23.333 -4 49 -8 77l-4 39c0 -0.666992 -0.666992 3 -2 11l-2 12c-5.33301 -14.667 -10.5 -35 -15.5 -61s-10.167 -56.667 -15.5 -92
c-16 -99.333 -29.667 -174 -41 -224l-9 -34c-10 -33.333 -15 -58.666 -15 -75.999v-6c29.333 -9.33301 63 -14 101 -14h6c2 -0.666992 4.33301 -1 7 -1c13.333 0 20 3.33301 20 10zM257.998 779.999c-3.33301 42.667 -12.666 92.667 -27.999 150
c-2.66699 -4 -14 -36 -34 -96c-5.33301 -17.333 -8 -28.666 -8 -33.999l-17 -23l-19 13c0.666992 10 6.66699 29 18 57s23.666 53.667 36.999 77s23 35 29 35c10 0 15 -7 15 -21c0 -22 6 -49 18 -81l11 -36l-1 -6l8 -15l-1 -5c0.666992 -2.66699 1.5 -4.83398 2.5 -6.50098
s1.5 -3.16699 1.5 -4.5c0 -6 -6 -10 -18 -12z" />
    <glyph glyph-name="Atilde" unicode="&#xc3;" horiz-adv-x="353" 
d="M249.5 5c-3.66699 3.33301 -5.50195 7.33398 -5.50195 12.001v131c0 8 -17 15.333 -51 22s-62 10 -84 10c-1.33301 0 -3.5 -5 -6.5 -15l-6.5 -22c-8.66699 -34.667 -17.334 -71.667 -26.001 -111l-5 -22c-1.33301 -5.33301 -4.66602 -8 -9.99902 -8
s-10.166 1.66699 -14.499 5s-6.5 7.33301 -6.5 12l1 2v1l11 50c8 31.333 15 62 21 92c6.66699 34 11.667 56 15 66c5.33301 22 16 77 32 165l6 33c17.333 102.667 29.333 167.334 36 194.001c3.33301 16 9.33301 39.667 18 71c3.33301 13.333 8 26.666 14 39.999
c6 11.333 11 17 15 17c10.667 0 18.334 -3.33301 23.001 -10c3.33301 -6 8.5 -39 15.5 -99s13.167 -120.667 18.5 -182l13 -166c0 -28.667 2 -72 6 -130c4 -58.667 6 -102.334 6 -131.001v-4c0 -7.33301 -1 -14 -3 -20c-2.66699 -5.33301 -9 -8 -19 -8
c-5.33301 0 -9.83301 1.66699 -13.5 5zM242.998 203.001c0 41.333 -2.33301 97.8311 -7 169.498s-9.66699 134.834 -15 189.501c-1.33301 23.333 -4 49 -8 77l-4 39c0 -0.666992 -0.666992 3 -2 11l-2 12c-5.33301 -14.667 -10.5 -35 -15.5 -61s-10.167 -56.667 -15.5 -92
c-16 -99.333 -29.667 -174 -41 -224l-9 -34c-10 -33.333 -15 -58.666 -15 -75.999v-6c29.333 -9.33301 63 -14 101 -14h6c2 -0.666992 4.33301 -1 7 -1c13.333 0 20 3.33301 20 10zM126.498 790.499c-4.33301 3.66699 -6.49902 7.49805 -6.49902 11.498
c0 20.667 5.66699 37.334 17 50.001s25.333 19 42 19s30.667 -6.66699 42 -20c5.33301 -10 13.666 -19 24.999 -27s22 -12 32 -12c17.333 0 26 12 26 36l-2 10l-4 9c2 4 5.33301 6 10 6c7.33301 0 13 -3.33301 17 -10s6 -14.667 6 -24c0 -14 -5.33301 -26.333 -16 -37
s-23 -16 -37 -16c-10.667 0 -22 3.33301 -34 10s-21.667 13.667 -29 21c-5.33301 4.66699 -14 14 -26 28l-7 3c-10 0 -18.667 -2.66699 -26 -8s-11 -11.666 -11 -18.999l5 -21l-11 -15c-4 0 -8.16699 1.83301 -12.5 5.5z" />
    <glyph glyph-name="Adieresis" unicode="&#xc4;" horiz-adv-x="353" 
d="M249.5 5c-3.66699 3.33301 -5.50195 7.33398 -5.50195 12.001v131c0 8 -17 15.333 -51 22s-62 10 -84 10c-1.33301 0 -3.5 -5 -6.5 -15l-6.5 -22c-8.66699 -34.667 -17.334 -71.667 -26.001 -111l-5 -22c-1.33301 -5.33301 -4.66602 -8 -9.99902 -8
s-10.166 1.66699 -14.499 5s-6.5 7.33301 -6.5 12l1 2v1l11 50c8 31.333 15 62 21 92c6.66699 34 11.667 56 15 66c5.33301 22 16 77 32 165l6 33c17.333 102.667 29.333 167.334 36 194.001c3.33301 16 9.33301 39.667 18 71c3.33301 13.333 8 26.666 14 39.999
c6 11.333 11 17 15 17c10.667 0 18.334 -3.33301 23.001 -10c3.33301 -6 8.5 -39 15.5 -99s13.167 -120.667 18.5 -182l13 -166c0 -28.667 2 -72 6 -130c4 -58.667 6 -102.334 6 -131.001v-4c0 -7.33301 -1 -14 -3 -20c-2.66699 -5.33301 -9 -8 -19 -8
c-5.33301 0 -9.83301 1.66699 -13.5 5zM242.998 203.001c0 41.333 -2.33301 97.8311 -7 169.498s-9.66699 134.834 -15 189.501c-1.33301 23.333 -4 49 -8 77l-4 39c0 -0.666992 -0.666992 3 -2 11l-2 12c-5.33301 -14.667 -10.5 -35 -15.5 -61s-10.167 -56.667 -15.5 -92
c-16 -99.333 -29.667 -174 -41 -224l-9 -34c-10 -33.333 -15 -58.666 -15 -75.999v-6c29.333 -9.33301 63 -14 101 -14h6c2 -0.666992 4.33301 -1 7 -1c13.333 0 20 3.33301 20 10zM276.998 815.999c-4 4.66699 -6 9.66602 -6 14.999c0 6 2.5 11.667 7.5 17s10.5 8 16.5 8
s11.167 -2.66699 15.5 -8s6.5 -10.666 6.5 -15.999c0 -15.333 -8.66699 -23 -26 -23c-5.33301 0 -10 2.33301 -14 7zM144.498 812.998c-3.66699 5.33301 -5.5 11.001 -5.5 17.001s2.5 11.667 7.5 17s10.5 8 16.5 8c6.66699 0 11.667 -3.33301 15 -10s5 -14.334 5 -23.001
c0 -5.33301 -2.5 -9.5 -7.5 -12.5s-10.833 -4.5 -17.5 -4.5c-5.33301 0 -9.83301 2.66699 -13.5 8z" />
    <glyph glyph-name="Aring" unicode="&#xc5;" horiz-adv-x="353" 
d="M249.5 5c-3.66699 3.33301 -5.50195 7.33398 -5.50195 12.001v131c0 8 -17 15.333 -51 22s-62 10 -84 10c-1.33301 0 -3.5 -5 -6.5 -15l-6.5 -22c-8.66699 -34.667 -17.334 -71.667 -26.001 -111l-5 -22c-1.33301 -5.33301 -4.66602 -8 -9.99902 -8
s-10.166 1.66699 -14.499 5s-6.5 7.33301 -6.5 12l1 2v1l11 50c8 31.333 15 62 21 92c6.66699 34 11.667 56 15 66c5.33301 22 16 77 32 165l6 33c17.333 102.667 29.333 167.334 36 194.001c3.33301 16 9.33301 39.667 18 71c3.33301 13.333 8 26.666 14 39.999
c6 11.333 11 17 15 17c10.667 0 18.334 -3.33301 23.001 -10c3.33301 -6 8.5 -39 15.5 -99s13.167 -120.667 18.5 -182l13 -166c0 -28.667 2 -72 6 -130c4 -58.667 6 -102.334 6 -131.001v-4c0 -7.33301 -1 -14 -3 -20c-2.66699 -5.33301 -9 -8 -19 -8
c-5.33301 0 -9.83301 1.66699 -13.5 5zM242.998 203.001c0 41.333 -2.33301 97.8311 -7 169.498s-9.66699 134.834 -15 189.501c-1.33301 23.333 -4 49 -8 77l-4 39c0 -0.666992 -0.666992 3 -2 11l-2 12c-5.33301 -14.667 -10.5 -35 -15.5 -61s-10.167 -56.667 -15.5 -92
c-16 -99.333 -29.667 -174 -41 -224l-9 -34c-10 -33.333 -15 -58.666 -15 -75.999v-6c29.333 -9.33301 63 -14 101 -14h6c2 -0.666992 4.33301 -1 7 -1c13.333 0 20 3.33301 20 10zM183.998 800.499c-10 11 -15 23.167 -15 36.5c0 15.333 6 29.5 18 42.5
s25.333 19.5 40 19.5c12.667 0 25 -6.33301 37 -19s18 -25.667 18 -39c0 -18 -5.83301 -32 -17.5 -42s-27.167 -15 -46.5 -15c-12.667 0 -24 5.5 -34 16.5zM241.498 811.499c9.66699 5.66699 14.499 12.166 14.499 19.499c0 13.333 -2.5 24.833 -7.5 34.5
s-12.167 14.5 -21.5 14.5c-8 0 -15.833 -4.16699 -23.5 -12.5s-11.5 -16.833 -11.5 -25.5c0 -13.333 2.66699 -23.666 8 -30.999c3.33301 -5.33301 8 -8 14 -8c8.66699 0 17.834 2.83301 27.501 8.5z" />
    <glyph glyph-name="AE" unicode="&#xc6;" horiz-adv-x="408" 
d="M222 -6c5.33301 32.667 8.00098 72.002 8.00098 118.002l-2 96l-2 95l-6 7l-31 -3c-15.333 -0.666992 -31.666 -2.33398 -48.999 -5.00098c-14.667 -3.33301 -22.334 -6.33301 -23.001 -9l-50 -191c-1.33301 -6 -3.83301 -18.333 -7.5 -37s-7.5 -33.334 -11.5 -44.001
c-5.33301 -13.333 -10.666 -20 -15.999 -20c-2 0 -3.83301 1.5 -5.5 4.5s-2.5 5.5 -2.5 7.5c0.666992 28.667 14 94.667 40 198c40.667 160.667 84.334 317 131.001 469c8.66699 30 16.667 50 24 60c7.33301 9.33301 14.666 14 21.999 14l38 2c17.333 2 30.333 3 39 3
c21.333 0 32 -5.33301 32 -16l-7 -12c-32 0 -64.667 -2 -98 -6c0 -16 1 -40.667 3 -74c2 -32.667 3 -57.667 3 -75c0 -43.333 -0.333008 -82.333 -1 -117c-0.666992 -34 -1 -72.667 -1 -116l4 -6c8 0 21.333 1.66699 40 5c14 3.33301 27.333 5 40 5l13 -17
c0 -11.333 -23.667 -17 -71 -17h-26c0 -44 0.333008 -83.667 1 -119c1.33301 -34.667 2 -74.334 2 -119.001v-20c-0.666992 -6.66699 -1 -13.667 -1 -21c0 -11.333 3 -17 9 -17c10 0 29 1.66699 57 5c25.333 4 44.333 6 57 6c5.33301 0 10.333 -1.16699 15 -3.5
s7 -5.5 7 -9.5c0 -7.33301 -10 -12 -30 -14c-26.667 -2.66699 -48.334 -4 -65.001 -4c-24.667 -1.33301 -38.667 -2.66602 -42 -3.99902l-9 -7c-4.66699 -4 -9.33398 -6 -14.001 -6zM225.001 336.002l2 105.001l2 122c0 47.333 -2.33301 86.333 -7 117
c-6 -6.66699 -23.333 -63.334 -52 -170.001s-43.667 -168.667 -45 -186c42 2 75.333 6 100 12z" />
    <glyph glyph-name="Ccedilla" unicode="&#xc7;" horiz-adv-x="330" 
d="M143 6c-20.667 14.667 -35.335 31.3369 -44.002 50.0039c-8 17.333 -16.167 72.333 -24.5 165s-12.5 161.667 -12.5 207v53c-0.666992 15.333 -1 32.333 -1 51c0 34.667 2 69 6 103c2.66699 16.667 6.16699 31 10.5 43s10.5 23.667 18.5 35
c14.667 22.667 36.667 37.667 66 45c15.333 4 32.333 6 51 6c12.667 0 25.5 -3.66699 38.5 -11s19.5 -16 19.5 -26c0 -7.33301 -5.33301 -11 -16 -11c-4 0 -11.667 2.33301 -23 7c-10 4.66699 -19 7 -27 7c-18.667 0 -35.5 -3.83301 -50.5 -11.5
s-26.833 -17.834 -35.5 -30.501c-7.33301 -10.667 -13.666 -25.334 -18.999 -44.001s-8.66602 -37.334 -9.99902 -56.001c-2 -16.667 -3 -36.667 -3 -60l1 -56c0.666992 -16 1 -33.333 1 -52c0 -46 4.66699 -113.667 14 -203s18.333 -141 27 -155
c8 -12.667 19.833 -22.334 35.5 -29.001s32.167 -10 49.5 -10c30.667 0 54 9.66699 70 29c6 8 12.333 12 19 12c6 0 9 -4.66699 9 -14c0 -12 -3.66699 -22.5 -11 -31.5s-17.333 -15.833 -30 -20.5c-21.333 -9.33301 -44.666 -14 -69.999 -14
c-18.667 0 -38.334 7.33301 -59.001 22zM177.499 -211.497c-9 5 -13.499 11.499 -13.499 19.499c0 6.66699 3.66699 10 11 10c2.66699 0 8 -1.66699 16 -5s13.333 -5 16 -5c11.333 0 20.666 6.83301 27.999 20.5s11 29.834 11 48.501c0 22 -5 37 -15 45l-13 -2l-14 -2
c-10 0 -19 6.66699 -27 20c5.33301 14 8 33.333 8 58v11l29 4c-2.66699 -20 -4 -37 -4 -51c48.667 -2.66699 73 -36 73 -100c0 -10.667 -3.5 -22.167 -10.5 -34.5s-16.5 -22.833 -28.5 -31.5s-24.333 -13 -37 -13c-10.667 0 -20.5 2.5 -29.5 7.5z" />
    <glyph glyph-name="Egrave" unicode="&#xc8;" horiz-adv-x="249" 
d="M80.5 -1.5c-6.33301 3 -9.49902 8.83203 -9.49902 17.499v19c-0.666992 5.33301 -1 11.333 -1 18v2l1 146l-1 413c0 42.667 -0.666992 79.667 -2 111c0 8 1.66699 14.667 5 20s7.66602 8 12.999 8h62c9.33301 0 16.333 -0.666992 21 -2c6.66699 -2 10 -7.66699 10 -17
c0 -5.33301 -2 -9.66602 -6 -12.999s-8.33301 -5.33301 -13 -6h-17l-16 1l-16 1c-4.66699 0 -7.83398 -0.833008 -9.50098 -2.5s-2.5 -4.83398 -2.5 -9.50098c0 -31.333 0.333008 -59.666 1 -84.999v-85v-125c0 -1.33301 0.666992 -2 2 -2h1h1c16.667 1.33301 34.667 2 54 2
c10.667 0 16 -4.66699 16 -14c0 -6.66699 -1.16699 -11.167 -3.5 -13.5s-6.16602 -3.5 -11.499 -3.5h-57c-2.66699 0 -4 -1.66699 -4 -5l2 -148c1.33301 -46 2 -99 2 -159v-37h43h42h9c12 0 18 -4.33301 18 -13c0 -10.667 -3 -17 -9 -19c-8 -2.66699 -24.333 -4 -49 -4h-42
c-16 0 -27.167 1.5 -33.5 4.5zM116.001 798.499l-48 27.501l-16 1c-20 4 -30 11.667 -30 23s3.33301 19.333 10 24l6 -2c20 -2.66699 32 -8.33398 36 -17.001c0 -0.666992 4 -2.66699 12 -6l36 -22c14.667 -9.33301 27 -18 37 -26c10.667 -8.66699 16 -15.667 16 -21
c0 -4.66699 -4.33301 -7 -13 -7z" />
    <glyph glyph-name="Eacute" unicode="&#xc9;" horiz-adv-x="249" 
d="M80.5 -1.5c-6.33301 3 -9.49902 8.83203 -9.49902 17.499v19c-0.666992 5.33301 -1 11.333 -1 18v2l1 146l-1 413c0 42.667 -0.666992 79.667 -2 111c0 8 1.66699 14.667 5 20s7.66602 8 12.999 8h62c9.33301 0 16.333 -0.666992 21 -2c6.66699 -2 10 -7.66699 10 -17
c0 -5.33301 -2 -9.66602 -6 -12.999s-8.33301 -5.33301 -13 -6h-17l-16 1l-16 1c-4.66699 0 -7.83398 -0.833008 -9.50098 -2.5s-2.5 -4.83398 -2.5 -9.50098c0 -31.333 0.333008 -59.666 1 -84.999v-85v-125c0 -1.33301 0.666992 -2 2 -2h1h1c16.667 1.33301 34.667 2 54 2
c10.667 0 16 -4.66699 16 -14c0 -6.66699 -1.16699 -11.167 -3.5 -13.5s-6.16602 -3.5 -11.499 -3.5h-57c-2.66699 0 -4 -1.66699 -4 -5l2 -148c1.33301 -46 2 -99 2 -159v-37h43h42h9c12 0 18 -4.33301 18 -13c0 -10.667 -3 -17 -9 -19c-8 -2.66699 -24.333 -4 -49 -4h-42
c-16 0 -27.167 1.5 -33.5 4.5zM110.501 804.999c-3.66699 2.66699 -5.49805 6 -5.49805 10c0 2 9.33301 10.667 28 26l32 26l27 21c22.667 17.333 35 27 37 29c14.667 0 22 -5 22 -15l-3 -16c-34.667 -16 -76.334 -44.333 -125.001 -85
c-4.66699 0 -8.83398 1.33301 -12.501 4z" />
    <glyph glyph-name="Ecircumflex" unicode="&#xca;" horiz-adv-x="249" 
d="M80.5 -1.5c-6.33301 3 -9.49902 8.83203 -9.49902 17.499v19c-0.666992 5.33301 -1 11.333 -1 18v2l1 146l-1 413c0 42.667 -0.666992 79.667 -2 111c0 8 1.66699 14.667 5 20s7.66602 8 12.999 8h62c9.33301 0 16.333 -0.666992 21 -2c6.66699 -2 10 -7.66699 10 -17
c0 -5.33301 -2 -9.66602 -6 -12.999s-8.33301 -5.33301 -13 -6h-17l-16 1l-16 1c-4.66699 0 -7.83398 -0.833008 -9.50098 -2.5s-2.5 -4.83398 -2.5 -9.50098c0 -31.333 0.333008 -59.666 1 -84.999v-85v-125c0 -1.33301 0.666992 -2 2 -2h1h1c16.667 1.33301 34.667 2 54 2
c10.667 0 16 -4.66699 16 -14c0 -6.66699 -1.16699 -11.167 -3.5 -13.5s-6.16602 -3.5 -11.499 -3.5h-57c-2.66699 0 -4 -1.66699 -4 -5l2 -148c1.33301 -46 2 -99 2 -159v-37h43h42h9c12 0 18 -4.33301 18 -13c0 -10.667 -3 -17 -9 -19c-8 -2.66699 -24.333 -4 -49 -4h-42
c-16 0 -27.167 1.5 -33.5 4.5zM157.001 779.999c-3.33301 42.667 -12.666 92.667 -27.999 150c-2.66699 -4 -14 -36 -34 -96c-5.33301 -17.333 -8 -28.666 -8 -33.999l-17 -23l-19 13c0.666992 10 6.66699 29 18 57s23.666 53.667 36.999 77s23 35 29 35c10 0 15 -7 15 -21
c0 -22 6 -49 18 -81l11 -36l-1 -6l8 -15l-1 -5c0.666992 -2.66699 1.5 -4.83398 2.5 -6.50098s1.5 -3.16699 1.5 -4.5c0 -6 -6 -10 -18 -12z" />
    <glyph glyph-name="Edieresis" unicode="&#xcb;" horiz-adv-x="249" 
d="M80.5 -1.5c-6.33301 3 -9.49902 8.83203 -9.49902 17.499v19c-0.666992 5.33301 -1 11.333 -1 18v2l1 146l-1 413c0 42.667 -0.666992 79.667 -2 111c0 8 1.66699 14.667 5 20s7.66602 8 12.999 8h62c9.33301 0 16.333 -0.666992 21 -2c6.66699 -2 10 -7.66699 10 -17
c0 -5.33301 -2 -9.66602 -6 -12.999s-8.33301 -5.33301 -13 -6h-17l-16 1l-16 1c-4.66699 0 -7.83398 -0.833008 -9.50098 -2.5s-2.5 -4.83398 -2.5 -9.50098c0 -31.333 0.333008 -59.666 1 -84.999v-85v-125c0 -1.33301 0.666992 -2 2 -2h1h1c16.667 1.33301 34.667 2 54 2
c10.667 0 16 -4.66699 16 -14c0 -6.66699 -1.16699 -11.167 -3.5 -13.5s-6.16602 -3.5 -11.499 -3.5h-57c-2.66699 0 -4 -1.66699 -4 -5l2 -148c1.33301 -46 2 -99 2 -159v-37h43h42h9c12 0 18 -4.33301 18 -13c0 -10.667 -3 -17 -9 -19c-8 -2.66699 -24.333 -4 -49 -4h-42
c-16 0 -27.167 1.5 -33.5 4.5zM176.001 815.999c-4 4.66699 -6 9.66602 -6 14.999c0 6 2.5 11.667 7.5 17s10.5 8 16.5 8s11.167 -2.66699 15.5 -8s6.5 -10.666 6.5 -15.999c0 -15.333 -8.66699 -23 -26 -23c-5.33301 0 -10 2.33301 -14 7zM43.501 812.998
c-3.66699 5.33301 -5.5 11.001 -5.5 17.001s2.5 11.667 7.5 17s10.5 8 16.5 8c6.66699 0 11.667 -3.33301 15 -10s5 -14.334 5 -23.001c0 -5.33301 -2.5 -9.5 -7.5 -12.5s-10.833 -4.5 -17.5 -4.5c-5.33301 0 -9.83301 2.66699 -13.5 8z" />
    <glyph glyph-name="Igrave" unicode="&#xcc;" horiz-adv-x="270" 
d="M82 5c-4.66699 0 -8.83105 1.66797 -12.498 5.00098s-5.5 7 -5.5 11c0 8.66699 5.66699 13 17 13h39c0 76.667 -2.33301 173.334 -7 290.001c-2.66699 93.333 -5.33398 166.666 -8.00098 219.999l1 51v66c0 33.333 -0.666992 54.666 -2 63.999h-35
c-6.66699 0 -10 4.66699 -10 14c0 6 2.66699 10.667 8 14c4.66699 2 17 3 37 3h28c10 -0.666992 22.667 -1 38 -1c5.33301 0 9.66602 -1.16699 12.999 -3.5s5 -5.83301 5 -10.5c0 -4 -1 -7.66699 -3 -11s-5 -5 -9 -5c-4.66699 0 -8.66699 0.333008 -12 1h-12h-10
c-6.66699 0 -10.667 -0.666992 -12 -2l-2 -4c0 -52 4.33301 -157 13 -315c8 -146 12 -251 12 -315v-28c-0.666992 -8.66699 -1 -17.667 -1 -27h36c15.333 0 23 -4.66699 23 -14c0 -4 -1.5 -7.83301 -4.5 -11.5s-6.16699 -5.5 -9.5 -5.5h-54c-16 0.666992 -36.333 1 -61 1z
M126.003 798.501l-48 27.501l-16 1c-20 4 -30 11.667 -30 23s3.33301 19.333 10 24l6 -2c20 -2.66699 32 -8.33398 36 -17.001c0 -0.666992 4 -2.66699 12 -6l36 -22c14.667 -9.33301 27 -18 37 -26c10.667 -8.66699 16 -15.667 16 -21c0 -4.66699 -4.33301 -7 -13 -7z" />
    <glyph glyph-name="Iacute" unicode="&#xcd;" horiz-adv-x="270" 
d="M82 5c-4.66699 0 -8.83105 1.66797 -12.498 5.00098s-5.5 7 -5.5 11c0 8.66699 5.66699 13 17 13h39c0 76.667 -2.33301 173.334 -7 290.001c-2.66699 93.333 -5.33398 166.666 -8.00098 219.999l1 51v66c0 33.333 -0.666992 54.666 -2 63.999h-35
c-6.66699 0 -10 4.66699 -10 14c0 6 2.66699 10.667 8 14c4.66699 2 17 3 37 3h28c10 -0.666992 22.667 -1 38 -1c5.33301 0 9.66602 -1.16699 12.999 -3.5s5 -5.83301 5 -10.5c0 -4 -1 -7.66699 -3 -11s-5 -5 -9 -5c-4.66699 0 -8.66699 0.333008 -12 1h-12h-10
c-6.66699 0 -10.667 -0.666992 -12 -2l-2 -4c0 -52 4.33301 -157 13 -315c8 -146 12 -251 12 -315v-28c-0.666992 -8.66699 -1 -17.667 -1 -27h36c15.333 0 23 -4.66699 23 -14c0 -4 -1.5 -7.83301 -4.5 -11.5s-6.16699 -5.5 -9.5 -5.5h-54c-16 0.666992 -36.333 1 -61 1z
M120.503 805.001c-3.66699 2.66699 -5.49805 6 -5.49805 10c0 2 9.33301 10.667 28 26l32 26l27 21c22.667 17.333 35 27 37 29c14.667 0 22 -5 22 -15l-3 -16c-34.667 -16 -76.334 -44.333 -125.001 -85c-4.66699 0 -8.83398 1.33301 -12.501 4z" />
    <glyph glyph-name="Icircumflex" unicode="&#xce;" horiz-adv-x="270" 
d="M82 5c-4.66699 0 -8.83105 1.66797 -12.498 5.00098s-5.5 7 -5.5 11c0 8.66699 5.66699 13 17 13h39c0 76.667 -2.33301 173.334 -7 290.001c-2.66699 93.333 -5.33398 166.666 -8.00098 219.999l1 51v66c0 33.333 -0.666992 54.666 -2 63.999h-35
c-6.66699 0 -10 4.66699 -10 14c0 6 2.66699 10.667 8 14c4.66699 2 17 3 37 3h28c10 -0.666992 22.667 -1 38 -1c5.33301 0 9.66602 -1.16699 12.999 -3.5s5 -5.83301 5 -10.5c0 -4 -1 -7.66699 -3 -11s-5 -5 -9 -5c-4.66699 0 -8.66699 0.333008 -12 1h-12h-10
c-6.66699 0 -10.667 -0.666992 -12 -2l-2 -4c0 -52 4.33301 -157 13 -315c8 -146 12 -251 12 -315v-28c-0.666992 -8.66699 -1 -17.667 -1 -27h36c15.333 0 23 -4.66699 23 -14c0 -4 -1.5 -7.83301 -4.5 -11.5s-6.16699 -5.5 -9.5 -5.5h-54c-16 0.666992 -36.333 1 -61 1z
M167.003 780.001c-3.33301 42.667 -12.666 92.667 -27.999 150c-2.66699 -4 -14 -36 -34 -96c-5.33301 -17.333 -8 -28.666 -8 -33.999l-17 -23l-19 13c0.666992 10 6.66699 29 18 57s23.666 53.667 36.999 77s23 35 29 35c10 0 15 -7 15 -21c0 -22 6 -49 18 -81l11 -36
l-1 -6l8 -15l-1 -5c0.666992 -2.66699 1.5 -4.83398 2.5 -6.50098s1.5 -3.16699 1.5 -4.5c0 -6 -6 -10 -18 -12z" />
    <glyph glyph-name="Idieresis" unicode="&#xcf;" horiz-adv-x="270" 
d="M82 5c-4.66699 0 -8.83105 1.66797 -12.498 5.00098s-5.5 7 -5.5 11c0 8.66699 5.66699 13 17 13h39c0 76.667 -2.33301 173.334 -7 290.001c-2.66699 93.333 -5.33398 166.666 -8.00098 219.999l1 51v66c0 33.333 -0.666992 54.666 -2 63.999h-35
c-6.66699 0 -10 4.66699 -10 14c0 6 2.66699 10.667 8 14c4.66699 2 17 3 37 3h28c10 -0.666992 22.667 -1 38 -1c5.33301 0 9.66602 -1.16699 12.999 -3.5s5 -5.83301 5 -10.5c0 -4 -1 -7.66699 -3 -11s-5 -5 -9 -5c-4.66699 0 -8.66699 0.333008 -12 1h-12h-10
c-6.66699 0 -10.667 -0.666992 -12 -2l-2 -4c0 -52 4.33301 -157 13 -315c8 -146 12 -251 12 -315v-28c-0.666992 -8.66699 -1 -17.667 -1 -27h36c15.333 0 23 -4.66699 23 -14c0 -4 -1.5 -7.83301 -4.5 -11.5s-6.16699 -5.5 -9.5 -5.5h-54c-16 0.666992 -36.333 1 -61 1z
M186.003 816.001c-4 4.66699 -6 9.66602 -6 14.999c0 6 2.5 11.667 7.5 17s10.5 8 16.5 8s11.167 -2.66699 15.5 -8s6.5 -10.666 6.5 -15.999c0 -15.333 -8.66699 -23 -26 -23c-5.33301 0 -10 2.33301 -14 7zM53.5029 813c-3.66699 5.33301 -5.5 11.001 -5.5 17.001
s2.5 11.667 7.5 17s10.5 8 16.5 8c6.66699 0 11.667 -3.33301 15 -10s5 -14.334 5 -23.001c0 -5.33301 -2.5 -9.5 -7.5 -12.5s-10.833 -4.5 -17.5 -4.5c-5.33301 0 -9.83301 2.66699 -13.5 8z" />
    <glyph glyph-name="Eth" unicode="&#xd0;" horiz-adv-x="430" 
d="M136 -39c-5.33301 1.33301 -9.16699 2.99902 -11.5 4.99902s-4.5 5.33301 -6.5 10h-1c0 88 -3 194 -9 318c-1.33301 12 -2 20.667 -2 26c-0.666992 8 -1.66699 17.333 -3 28s-2.33301 17.334 -3 20.001c-7.33301 0 -17.666 -1 -30.999 -3c-14 -2 -24 -3 -30 -3
s-9.83301 1.16699 -11.5 3.5s-2.5 6.83301 -2.5 13.5c0 12 20.667 18 62 18h9l4 2v2l1 3c0 13.333 -2.33301 43.333 -7 90c-4.66699 37.333 -7 67.333 -7 90l-2 60l-2 30c-2.66699 34.667 -4 64.334 -4 89.001c0 3.33301 2 7.66602 6 12.999s7.33301 8 10 8
c20 0 40.833 -5.66699 62.5 -17s41.5 -26.666 59.5 -45.999c34 -36 62 -74.333 84 -115v-2c31.333 -88.667 47 -184.334 47 -287.001c0 -44.667 -8.33301 -91 -25 -139s-40.334 -92.333 -71.001 -133c-32 -42 -67 -71.333 -105 -88c-6 2 -9.66699 3.33301 -11 4z
M166.999 9.99902c2 1.33301 6.3291 5.33496 12.9961 12.002l7 7c34 34 63.333 77.167 88 129.5s37 99.833 37 142.5c0 39.333 -0.333008 67.666 -1 84.999s-2.66699 39.333 -6 66c-2.66699 24.667 -7.33398 51 -14.001 79c-11.333 54 -32.166 100.833 -62.499 140.5
s-68.166 66.167 -113.499 79.5l-2 -2c0 -52 2.5 -121 7.5 -207s10.5 -133 16.5 -141c8 0 19.333 2 34 6c18 3.33301 29.667 5 35 5s9.83301 -2.5 13.5 -7.5s6.16699 -10.5 7.5 -16.5l-10 -12c-35.333 0 -62.666 -2.33301 -81.999 -7
c0.666992 -20.667 1.83398 -49.667 3.50098 -87s2.83398 -58 3.50098 -62l-1 -1c0 -17.333 1.66699 -53.333 5 -108c3.33301 -53.333 5 -89.333 5 -108c6 1.33301 11.333 3.66602 16 6.99902z" />
    <glyph glyph-name="Ntilde" unicode="&#xd1;" horiz-adv-x="380" 
d="M259 -4c-4 4.66699 -6.66504 9.99902 -7.99805 15.999l-3 19c-2 8 -3 13 -3 15c-74.667 267.333 -115.667 417.333 -123 450c-6 24 -19.667 90.667 -41 200c-0.666992 -4 -1 -17.667 -1 -41v-362l2 -143l2 -142l-6 -8h-23l-3 8c1.33301 6.66699 2 20 2 40l-1 174l-2 174
v131v95c-0.666992 28 -1 59.333 -1 94c0 4 -0.333008 7.66699 -1 11v10c0 8 2.16699 13.5 6.5 16.5s11.166 4.5 20.499 4.5c4 0 8.5 -2 13.5 -6s8.16699 -8.33301 9.5 -13l21 -98c9.33301 -46.667 17.333 -82 24 -106l72 -272c19.333 -82.667 36.666 -146 51.999 -190
c4 10 6 26 6 48c0 64.667 0.666992 122.667 2 174l2 174c0 28.667 0.333008 54.667 1 78v77l-1 141c3.33301 9.33301 10.333 14 21 14c5.33301 0 8 -9.66699 8 -29c0 -8.66699 -0.333008 -15.667 -1 -21c0 -5.33301 -0.166992 -9.16602 -0.5 -11.499
s-0.5 -3.83301 -0.5 -4.5v-64c0 -88.667 -0.333008 -167.667 -1 -237c-0.666992 -70 -1 -148.667 -1 -236c0 -16.667 -1 -43 -3 -79l-2 -79c0 -19.333 -8.66699 -29 -26 -29c-4.66699 0 -9 2.33301 -13 7zM90.502 790.499
c-4.33301 3.66699 -6.49902 7.49805 -6.49902 11.498c0 20.667 5.66699 37.334 17 50.001s25.333 19 42 19s30.667 -6.66699 42 -20c5.33301 -10 13.666 -19 24.999 -27s22 -12 32 -12c17.333 0 26 12 26 36l-2 10l-4 9c2 4 5.33301 6 10 6c7.33301 0 13 -3.33301 17 -10
s6 -14.667 6 -24c0 -14 -5.33301 -26.333 -16 -37s-23 -16 -37 -16c-10.667 0 -22 3.33301 -34 10s-21.667 13.667 -29 21c-5.33301 4.66699 -14 14 -26 28l-7 3c-10 0 -18.667 -2.66699 -26 -8s-11 -11.666 -11 -18.999l5 -21l-11 -15c-4 0 -8.16699 1.83301 -12.5 5.5z
" />
    <glyph glyph-name="Ograve" unicode="&#xd2;" horiz-adv-x="368" 
d="M61 460v39.998c0 56 3.33301 104.667 10 146c4 26 9.5 47.333 16.5 64s16.5 30 28.5 40c11.333 11.333 26 17 44 17c16 0 30.667 -3.16699 44 -9.5s24.333 -14.5 33 -24.5c7.33301 -9.33301 14 -21.666 20 -36.999s10.667 -30 14 -44l8 -47c16 -114 24 -215 24 -303v-3
c0 -33.333 -0.666992 -64 -2 -92c-1.33301 -33.333 -5 -68.333 -11 -105c-2.66699 -18 -6.5 -33.667 -11.5 -47s-11.5 -26.666 -19.5 -39.999c-14 -24 -33.667 -36 -59 -36c-92.667 0 -139 160.333 -139 481zM231 25.498c8.66699 12.333 15.332 29.5 19.999 51.5
c10.667 46.667 17.334 92.334 20.001 137.001c1.33301 36 2 71 2 105v4l-1 100c-1.33301 36 -5.33301 82.667 -12 140c-5.33301 40.667 -16.333 82.334 -33 125.001c-6.66699 16.667 -15.5 29.667 -26.5 39s-22.833 14 -35.5 14c-11.333 0 -21.333 -5.33301 -30 -16
s-15.667 -25.667 -21 -45c-12 -44.667 -18.667 -86 -20 -124c-2 -32.667 -3 -66.334 -3 -101.001v-49c0 -44.667 4.33301 -101.334 13 -170.001c5.33301 -43.333 12 -81 20 -113s18.667 -59 32 -81c13.333 -23.333 28.666 -35 45.999 -35
c10.667 0 20.334 6.16699 29.001 18.5zM150.998 813.498l-48 27.501l-16 1c-20 4 -30 11.667 -30 23s3.33301 19.333 10 24l6 -2c20 -2.66699 32 -8.33398 36 -17.001c0 -0.666992 4 -2.66699 12 -6l36 -22c14.667 -9.33301 27 -18 37 -26
c10.667 -8.66699 16 -15.667 16 -21c0 -4.66699 -4.33301 -7 -13 -7z" />
    <glyph glyph-name="Oacute" unicode="&#xd3;" horiz-adv-x="368" 
d="M61 460v39.998c0 56 3.33301 104.667 10 146c4 26 9.5 47.333 16.5 64s16.5 30 28.5 40c11.333 11.333 26 17 44 17c16 0 30.667 -3.16699 44 -9.5s24.333 -14.5 33 -24.5c7.33301 -9.33301 14 -21.666 20 -36.999s10.667 -30 14 -44l8 -47c16 -114 24 -215 24 -303v-3
c0 -33.333 -0.666992 -64 -2 -92c-1.33301 -33.333 -5 -68.333 -11 -105c-2.66699 -18 -6.5 -33.667 -11.5 -47s-11.5 -26.666 -19.5 -39.999c-14 -24 -33.667 -36 -59 -36c-92.667 0 -139 160.333 -139 481zM231 25.498c8.66699 12.333 15.332 29.5 19.999 51.5
c10.667 46.667 17.334 92.334 20.001 137.001c1.33301 36 2 71 2 105v4l-1 100c-1.33301 36 -5.33301 82.667 -12 140c-5.33301 40.667 -16.333 82.334 -33 125.001c-6.66699 16.667 -15.5 29.667 -26.5 39s-22.833 14 -35.5 14c-11.333 0 -21.333 -5.33301 -30 -16
s-15.667 -25.667 -21 -45c-12 -44.667 -18.667 -86 -20 -124c-2 -32.667 -3 -66.334 -3 -101.001v-49c0 -44.667 4.33301 -101.334 13 -170.001c5.33301 -43.333 12 -81 20 -113s18.667 -59 32 -81c13.333 -23.333 28.666 -35 45.999 -35
c10.667 0 20.334 6.16699 29.001 18.5zM145.498 819.998c-3.66699 2.66699 -5.49805 6 -5.49805 10c0 2 9.33301 10.667 28 26l32 26l27 21c22.667 17.333 35 27 37 29c14.667 0 22 -5 22 -15l-3 -16c-34.667 -16 -76.334 -44.333 -125.001 -85
c-4.66699 0 -8.83398 1.33301 -12.501 4z" />
    <glyph glyph-name="Ocircumflex" unicode="&#xd4;" horiz-adv-x="368" 
d="M61 460v39.998c0 56 3.33301 104.667 10 146c4 26 9.5 47.333 16.5 64s16.5 30 28.5 40c11.333 11.333 26 17 44 17c16 0 30.667 -3.16699 44 -9.5s24.333 -14.5 33 -24.5c7.33301 -9.33301 14 -21.666 20 -36.999s10.667 -30 14 -44l8 -47c16 -114 24 -215 24 -303v-3
c0 -33.333 -0.666992 -64 -2 -92c-1.33301 -33.333 -5 -68.333 -11 -105c-2.66699 -18 -6.5 -33.667 -11.5 -47s-11.5 -26.666 -19.5 -39.999c-14 -24 -33.667 -36 -59 -36c-92.667 0 -139 160.333 -139 481zM231 25.498c8.66699 12.333 15.332 29.5 19.999 51.5
c10.667 46.667 17.334 92.334 20.001 137.001c1.33301 36 2 71 2 105v4l-1 100c-1.33301 36 -5.33301 82.667 -12 140c-5.33301 40.667 -16.333 82.334 -33 125.001c-6.66699 16.667 -15.5 29.667 -26.5 39s-22.833 14 -35.5 14c-11.333 0 -21.333 -5.33301 -30 -16
s-15.667 -25.667 -21 -45c-12 -44.667 -18.667 -86 -20 -124c-2 -32.667 -3 -66.334 -3 -101.001v-49c0 -44.667 4.33301 -101.334 13 -170.001c5.33301 -43.333 12 -81 20 -113s18.667 -59 32 -81c13.333 -23.333 28.666 -35 45.999 -35
c10.667 0 20.334 6.16699 29.001 18.5zM191.998 794.998c-3.33301 42.667 -12.666 92.667 -27.999 150c-2.66699 -4 -14 -36 -34 -96c-5.33301 -17.333 -8 -28.666 -8 -33.999l-17 -23l-19 13c0.666992 10 6.66699 29 18 57s23.666 53.667 36.999 77s23 35 29 35
c10 0 15 -7 15 -21c0 -22 6 -49 18 -81l11 -36l-1 -6l8 -15l-1 -5c0.666992 -2.66699 1.5 -4.83398 2.5 -6.50098s1.5 -3.16699 1.5 -4.5c0 -6 -6 -10 -18 -12z" />
    <glyph glyph-name="Otilde" unicode="&#xd5;" horiz-adv-x="368" 
d="M61 460v39.998c0 56 3.33301 104.667 10 146c4 26 9.5 47.333 16.5 64s16.5 30 28.5 40c11.333 11.333 26 17 44 17c16 0 30.667 -3.16699 44 -9.5s24.333 -14.5 33 -24.5c7.33301 -9.33301 14 -21.666 20 -36.999s10.667 -30 14 -44l8 -47c16 -114 24 -215 24 -303v-3
c0 -33.333 -0.666992 -64 -2 -92c-1.33301 -33.333 -5 -68.333 -11 -105c-2.66699 -18 -6.5 -33.667 -11.5 -47s-11.5 -26.666 -19.5 -39.999c-14 -24 -33.667 -36 -59 -36c-92.667 0 -139 160.333 -139 481zM231 25.498c8.66699 12.333 15.332 29.5 19.999 51.5
c10.667 46.667 17.334 92.334 20.001 137.001c1.33301 36 2 71 2 105v4l-1 100c-1.33301 36 -5.33301 82.667 -12 140c-5.33301 40.667 -16.333 82.334 -33 125.001c-6.66699 16.667 -15.5 29.667 -26.5 39s-22.833 14 -35.5 14c-11.333 0 -21.333 -5.33301 -30 -16
s-15.667 -25.667 -21 -45c-12 -44.667 -18.667 -86 -20 -124c-2 -32.667 -3 -66.334 -3 -101.001v-49c0 -44.667 4.33301 -101.334 13 -170.001c5.33301 -43.333 12 -81 20 -113s18.667 -59 32 -81c13.333 -23.333 28.666 -35 45.999 -35
c10.667 0 20.334 6.16699 29.001 18.5zM60.498 805.498c-4.33301 3.66699 -6.49902 7.49805 -6.49902 11.498c0 20.667 5.66699 37.334 17 50.001s25.333 19 42 19s30.667 -6.66699 42 -20c5.33301 -10 13.666 -19 24.999 -27s22 -12 32 -12c17.333 0 26 12 26 36l-2 10
l-4 9c2 4 5.33301 6 10 6c7.33301 0 13 -3.33301 17 -10s6 -14.667 6 -24c0 -14 -5.33301 -26.333 -16 -37s-23 -16 -37 -16c-10.667 0 -22 3.33301 -34 10s-21.667 13.667 -29 21c-5.33301 4.66699 -14 14 -26 28l-7 3c-10 0 -18.667 -2.66699 -26 -8
s-11 -11.666 -11 -18.999l5 -21l-11 -15c-4 0 -8.16699 1.83301 -12.5 5.5z" />
    <glyph glyph-name="Odieresis" unicode="&#xd6;" horiz-adv-x="368" 
d="M61 460v39.998c0 56 3.33301 104.667 10 146c4 26 9.5 47.333 16.5 64s16.5 30 28.5 40c11.333 11.333 26 17 44 17c16 0 30.667 -3.16699 44 -9.5s24.333 -14.5 33 -24.5c7.33301 -9.33301 14 -21.666 20 -36.999s10.667 -30 14 -44l8 -47c16 -114 24 -215 24 -303v-3
c0 -33.333 -0.666992 -64 -2 -92c-1.33301 -33.333 -5 -68.333 -11 -105c-2.66699 -18 -6.5 -33.667 -11.5 -47s-11.5 -26.666 -19.5 -39.999c-14 -24 -33.667 -36 -59 -36c-92.667 0 -139 160.333 -139 481zM231 25.498c8.66699 12.333 15.332 29.5 19.999 51.5
c10.667 46.667 17.334 92.334 20.001 137.001c1.33301 36 2 71 2 105v4l-1 100c-1.33301 36 -5.33301 82.667 -12 140c-5.33301 40.667 -16.333 82.334 -33 125.001c-6.66699 16.667 -15.5 29.667 -26.5 39s-22.833 14 -35.5 14c-11.333 0 -21.333 -5.33301 -30 -16
s-15.667 -25.667 -21 -45c-12 -44.667 -18.667 -86 -20 -124c-2 -32.667 -3 -66.334 -3 -101.001v-49c0 -44.667 4.33301 -101.334 13 -170.001c5.33301 -43.333 12 -81 20 -113s18.667 -59 32 -81c13.333 -23.333 28.666 -35 45.999 -35
c10.667 0 20.334 6.16699 29.001 18.5zM210.998 830.998c-4 4.66699 -6 9.66602 -6 14.999c0 6 2.5 11.667 7.5 17s10.5 8 16.5 8s11.167 -2.66699 15.5 -8s6.5 -10.666 6.5 -15.999c0 -15.333 -8.66699 -23 -26 -23c-5.33301 0 -10 2.33301 -14 7zM78.498 827.997
c-3.66699 5.33301 -5.5 11.001 -5.5 17.001s2.5 11.667 7.5 17s10.5 8 16.5 8c6.66699 0 11.667 -3.33301 15 -10s5 -14.334 5 -23.001c0 -5.33301 -2.5 -9.5 -7.5 -12.5s-10.833 -4.5 -17.5 -4.5c-5.33301 0 -9.83301 2.66699 -13.5 8z" />
    <glyph glyph-name="multiply" unicode="&#xd7;" horiz-adv-x="361" 
d="M258 210l-21.9961 20.998c-2.66699 2 -9.33398 9 -20.001 21c-7.33301 9.33301 -15 17.333 -23 24c-6 6 -11 9 -15 9c-5.33301 0 -11.333 -3 -18 -9s-12.334 -13.333 -17.001 -22c-15.333 -20.667 -28.333 -31 -39 -31c-4 0 -8.33301 1.66699 -13 5
s-7 6.66602 -7 9.99902c0 2.66699 2.66699 6.66699 8 12c8 8 15 14.333 21 19c7.33301 6 13 11.167 17 15.5s8.33301 9.5 13 15.5c5.33301 8.66699 8 14 8 16c-7.33301 7.33301 -17.666 16.333 -30.999 27c-2 1.33301 -14.333 12.333 -37 33c-10 10 -15 17.667 -15 23
c0 3.33301 2.33301 7.5 7 12.5s9 7.5 13 7.5c4.66699 0 8.66699 -1.66699 12 -5l5 -10c40.667 -41.333 65.667 -62 75 -62c6.66699 0 15 5.66699 25 17c2.66699 2.66699 8.5 9.33398 17.5 20.001s17.167 18.834 24.5 24.501s13.333 8.5 18 8.5
c3.33301 0 6.66602 -1.66699 9.99902 -5s5 -6.66602 5 -9.99902c0 -4 -3.33301 -9.66699 -10 -17s-14.334 -15.166 -23.001 -23.499s-15.334 -14.5 -20.001 -18.5c-12 -10 -18 -18 -18 -24c0 -5.33301 4 -12 12 -20s17.667 -15.667 29 -23
c26.667 -18.667 40 -32.334 40 -41.001c0 -6 -2.33301 -11.333 -7 -16s-10.667 -7 -18 -7c-2.66699 0 -5 1 -7 3z" />
    <glyph glyph-name="Oslash" unicode="&#xd8;" horiz-adv-x="318" 
d="M62 -117c0.666992 10 2.16406 21.502 4.49707 34.502s5.83301 29.833 10.5 50.5c2.66699 11.333 7.33398 40 14.001 86c0 5.33301 -1.33301 11.666 -4 18.999c-1.33301 4 -3 9.66699 -5 17c-14 87.333 -21 212.333 -21 375v63c0 158.667 24.333 238 73 238
c3.33301 0 8.33301 -1.66699 15 -5c6.66699 -4 11.334 -6 14.001 -6l4 2l5 -5c6.66699 18 12.334 42.333 17.001 73c2.66699 14 4.66699 25.5 6 34.5s2.33301 15.167 3 18.5h18l-1 -29l-21 -121c0 -8 5 -17.667 15 -29l-1 -2c0.666992 -6 4 -13.333 10 -22
c3.33301 -4.66699 5 -7.33398 5 -8.00098c7.33301 -18.667 11 -41 11 -67l-2 -1c0 -16.667 2.66699 -47.334 8 -92.001c4.66699 -38 7 -68.667 7 -92v-6l2 -3l2 -95c0.666992 -28 1 -59.333 1 -94c0 -23.333 -0.333008 -44.666 -1 -63.999c-1.33301 -24 -5 -49 -11 -75
c-4.66699 -22.667 -14.667 -43 -30 -61c-12.667 -18 -31.667 -27 -57 -27c-22.667 0 -39 6.66699 -49 20h-1c-3.33301 -22.667 -12 -69 -26 -139zM111.997 181.002c4 32 9.66699 82.333 17 151l9 82l2 22l4.5 42c1.66699 16 3.16699 34 4.5 54l4 45l2 22l5 35
c4.66699 36 7 61.667 7 77c0 8 -3.33301 14.667 -10 20s-14 8 -22 8l-4 -1l-7 -3l-5 -2l-6 2c-20.667 -12.667 -31 -119 -31 -319v-6c0 -30 3 -52 9 -66c0 -22.667 2 -57.667 6 -105c4 -46.667 6 -81.667 6 -105c2 2 5 17.667 9 47zM225.997 195.002
c0 275.333 -12 436.333 -36 483c-8.66699 -56.667 -18.667 -149.667 -30 -279c-10.667 -128.667 -22.667 -226.667 -36 -294c-4.66699 -29.333 -7 -45 -7 -47c0 -16.667 3.33301 -28.667 10 -36s18 -11 34 -11c43.333 0 65 61.333 65 184z" />
    <glyph glyph-name="Ugrave" unicode="&#xd9;" horiz-adv-x="372" 
d="M164 -9c-13.333 6.66699 -24.333 15.334 -33 26.001c-8.66699 10 -16.334 22.333 -23.001 37s-12 29.334 -16 44.001c-6.66699 22.667 -11.667 51 -15 85l-2 31c0 6.66699 -0.166992 11 -0.5 13s-0.5 3.33301 -0.5 4c-3.33301 32.667 -7.5 104.667 -12.5 216
s-7.5 198 -7.5 260v7v8c0 17.333 5 26 15 26c14 0 21 -8 21 -24v-7l-1 -8c0 -77.333 2.33301 -168.833 7 -274.5s9.33398 -181.834 14.001 -228.501c3.33301 -29.333 9 -59.333 17 -90c5.33301 -20.667 11.166 -38 17.499 -52s14.5 -25.667 24.5 -35
c12 -10.667 23.667 -16 35 -16s21.5 2.66699 30.5 8s15.833 12.333 20.5 21c4.66699 7.33301 8.5 16.833 11.5 28.5s4.83301 22.834 5.5 33.501c0.666992 6.66699 1 17.667 1 33v114c0 50.667 -1.33301 113 -4 187l-4 128l-2 85c-2 37.333 -3 65.666 -3 84.999
c0 7.33301 2 13 6 17s8.66699 6 14 6s9.83301 -2 13.5 -6s5.5 -9.66699 5.5 -17v-76c0 -33.333 0.333008 -63.333 1 -90v-90c0 -64.667 0.666992 -121.334 2 -170.001c0.666992 -49.333 1 -104.666 1 -165.999c0 -16.667 -0.666992 -31.334 -2 -44.001s-4 -26 -8 -40
c-4 -16 -9.5 -29.5 -16.5 -40.5s-16.167 -20.167 -27.5 -27.5c-12.667 -7.33301 -26.667 -11 -42 -11s-29.666 3.33301 -42.999 10zM148 798.5l-48 27.501l-16 1c-20 4 -30 11.667 -30 23s3.33301 19.333 10 24l6 -2c20 -2.66699 32 -8.33398 36 -17.001
c0 -0.666992 4 -2.66699 12 -6l36 -22c14.667 -9.33301 27 -18 37 -26c10.667 -8.66699 16 -15.667 16 -21c0 -4.66699 -4.33301 -7 -13 -7z" />
    <glyph glyph-name="Uacute" unicode="&#xda;" horiz-adv-x="372" 
d="M164 -9c-13.333 6.66699 -24.333 15.334 -33 26.001c-8.66699 10 -16.334 22.333 -23.001 37s-12 29.334 -16 44.001c-6.66699 22.667 -11.667 51 -15 85l-2 31c0 6.66699 -0.166992 11 -0.5 13s-0.5 3.33301 -0.5 4c-3.33301 32.667 -7.5 104.667 -12.5 216
s-7.5 198 -7.5 260v7v8c0 17.333 5 26 15 26c14 0 21 -8 21 -24v-7l-1 -8c0 -77.333 2.33301 -168.833 7 -274.5s9.33398 -181.834 14.001 -228.501c3.33301 -29.333 9 -59.333 17 -90c5.33301 -20.667 11.166 -38 17.499 -52s14.5 -25.667 24.5 -35
c12 -10.667 23.667 -16 35 -16s21.5 2.66699 30.5 8s15.833 12.333 20.5 21c4.66699 7.33301 8.5 16.833 11.5 28.5s4.83301 22.834 5.5 33.501c0.666992 6.66699 1 17.667 1 33v114c0 50.667 -1.33301 113 -4 187l-4 128l-2 85c-2 37.333 -3 65.666 -3 84.999
c0 7.33301 2 13 6 17s8.66699 6 14 6s9.83301 -2 13.5 -6s5.5 -9.66699 5.5 -17v-76c0 -33.333 0.333008 -63.333 1 -90v-90c0 -64.667 0.666992 -121.334 2 -170.001c0.666992 -49.333 1 -104.666 1 -165.999c0 -16.667 -0.666992 -31.334 -2 -44.001s-4 -26 -8 -40
c-4 -16 -9.5 -29.5 -16.5 -40.5s-16.167 -20.167 -27.5 -27.5c-12.667 -7.33301 -26.667 -11 -42 -11s-29.666 3.33301 -42.999 10zM142.5 805c-3.66699 2.66699 -5.49805 6 -5.49805 10c0 2 9.33301 10.667 28 26l32 26l27 21c22.667 17.333 35 27 37 29
c14.667 0 22 -5 22 -15l-3 -16c-34.667 -16 -76.334 -44.333 -125.001 -85c-4.66699 0 -8.83398 1.33301 -12.501 4z" />
    <glyph glyph-name="Ucircumflex" unicode="&#xdb;" horiz-adv-x="372" 
d="M164 -9c-13.333 6.66699 -24.333 15.334 -33 26.001c-8.66699 10 -16.334 22.333 -23.001 37s-12 29.334 -16 44.001c-6.66699 22.667 -11.667 51 -15 85l-2 31c0 6.66699 -0.166992 11 -0.5 13s-0.5 3.33301 -0.5 4c-3.33301 32.667 -7.5 104.667 -12.5 216
s-7.5 198 -7.5 260v7v8c0 17.333 5 26 15 26c14 0 21 -8 21 -24v-7l-1 -8c0 -77.333 2.33301 -168.833 7 -274.5s9.33398 -181.834 14.001 -228.501c3.33301 -29.333 9 -59.333 17 -90c5.33301 -20.667 11.166 -38 17.499 -52s14.5 -25.667 24.5 -35
c12 -10.667 23.667 -16 35 -16s21.5 2.66699 30.5 8s15.833 12.333 20.5 21c4.66699 7.33301 8.5 16.833 11.5 28.5s4.83301 22.834 5.5 33.501c0.666992 6.66699 1 17.667 1 33v114c0 50.667 -1.33301 113 -4 187l-4 128l-2 85c-2 37.333 -3 65.666 -3 84.999
c0 7.33301 2 13 6 17s8.66699 6 14 6s9.83301 -2 13.5 -6s5.5 -9.66699 5.5 -17v-76c0 -33.333 0.333008 -63.333 1 -90v-90c0 -64.667 0.666992 -121.334 2 -170.001c0.666992 -49.333 1 -104.666 1 -165.999c0 -16.667 -0.666992 -31.334 -2 -44.001s-4 -26 -8 -40
c-4 -16 -9.5 -29.5 -16.5 -40.5s-16.167 -20.167 -27.5 -27.5c-12.667 -7.33301 -26.667 -11 -42 -11s-29.666 3.33301 -42.999 10zM189 780c-3.33301 42.667 -12.666 92.667 -27.999 150c-2.66699 -4 -14 -36 -34 -96c-5.33301 -17.333 -8 -28.666 -8 -33.999l-17 -23
l-19 13c0.666992 10 6.66699 29 18 57s23.666 53.667 36.999 77s23 35 29 35c10 0 15 -7 15 -21c0 -22 6 -49 18 -81l11 -36l-1 -6l8 -15l-1 -5c0.666992 -2.66699 1.5 -4.83398 2.5 -6.50098s1.5 -3.16699 1.5 -4.5c0 -6 -6 -10 -18 -12z" />
    <glyph glyph-name="Udieresis" unicode="&#xdc;" horiz-adv-x="372" 
d="M164 -9c-13.333 6.66699 -24.333 15.334 -33 26.001c-8.66699 10 -16.334 22.333 -23.001 37s-12 29.334 -16 44.001c-6.66699 22.667 -11.667 51 -15 85l-2 31c0 6.66699 -0.166992 11 -0.5 13s-0.5 3.33301 -0.5 4c-3.33301 32.667 -7.5 104.667 -12.5 216
s-7.5 198 -7.5 260v7v8c0 17.333 5 26 15 26c14 0 21 -8 21 -24v-7l-1 -8c0 -77.333 2.33301 -168.833 7 -274.5s9.33398 -181.834 14.001 -228.501c3.33301 -29.333 9 -59.333 17 -90c5.33301 -20.667 11.166 -38 17.499 -52s14.5 -25.667 24.5 -35
c12 -10.667 23.667 -16 35 -16s21.5 2.66699 30.5 8s15.833 12.333 20.5 21c4.66699 7.33301 8.5 16.833 11.5 28.5s4.83301 22.834 5.5 33.501c0.666992 6.66699 1 17.667 1 33v114c0 50.667 -1.33301 113 -4 187l-4 128l-2 85c-2 37.333 -3 65.666 -3 84.999
c0 7.33301 2 13 6 17s8.66699 6 14 6s9.83301 -2 13.5 -6s5.5 -9.66699 5.5 -17v-76c0 -33.333 0.333008 -63.333 1 -90v-90c0 -64.667 0.666992 -121.334 2 -170.001c0.666992 -49.333 1 -104.666 1 -165.999c0 -16.667 -0.666992 -31.334 -2 -44.001s-4 -26 -8 -40
c-4 -16 -9.5 -29.5 -16.5 -40.5s-16.167 -20.167 -27.5 -27.5c-12.667 -7.33301 -26.667 -11 -42 -11s-29.666 3.33301 -42.999 10zM208 816c-4 4.66699 -6 9.66602 -6 14.999c0 6 2.5 11.667 7.5 17s10.5 8 16.5 8s11.167 -2.66699 15.5 -8s6.5 -10.666 6.5 -15.999
c0 -15.333 -8.66699 -23 -26 -23c-5.33301 0 -10 2.33301 -14 7zM75.5 812.999c-3.66699 5.33301 -5.5 11.001 -5.5 17.001s2.5 11.667 7.5 17s10.5 8 16.5 8c6.66699 0 11.667 -3.33301 15 -10s5 -14.334 5 -23.001c0 -5.33301 -2.5 -9.5 -7.5 -12.5
s-10.833 -4.5 -17.5 -4.5c-5.33301 0 -9.83301 2.66699 -13.5 8z" />
    <glyph glyph-name="Yacute" unicode="&#xdd;" horiz-adv-x="252" 
d="M119 -4.5c-2.66699 5 -3.99902 10.4971 -3.99902 16.4971c0 21.333 1 53.333 3 96l2 97c0 9.33301 -1 23 -3 41c-2.66699 16 -4 29.333 -4 40c0 11.333 -2 27 -6 47c-4 21.333 -6 36.666 -6 45.999c0 8 -3.33301 27 -10 57c-2 6 -3.33301 10.833 -4 14.5
s-1.33398 6.16699 -2.00098 7.5c-2.66699 18.667 -7 41.667 -13 69c-11.333 62 -22.333 111 -33 147c-10 32 -15 53.667 -15 65c0 4.66699 2 8.5 6 11.5s8.66699 4.5 14 4.5l12 -8c2 -30 11 -83.5 27 -160.5s28 -121.167 36 -132.5
c1.33301 3.33301 4.66602 32.333 9.99902 87c4.66699 48.667 11.334 97 20.001 145c8 44 17.667 66 29 66c3.33301 0 6 -0.166992 8 -0.5s3.66699 -1.16602 5 -2.49902s2 -4 2 -8c0 -6 -1.33301 -13 -4 -21l-4 -20l-26 -149c-3.33301 -19.333 -6.33301 -43.166 -9 -71.499
s-4 -53.166 -4 -74.499c0 -6 0.333008 -11.333 1 -16c0.666992 -5.33301 1 -11 1 -17l-6 -15v-8l2 -39l2 -21c2 -26.667 3 -46.667 3 -60c0 -105.333 -0.666992 -172.666 -2 -201.999l3 -3c0 -1.33301 0.333008 -2.33301 1 -3v-4c0 -8 -1.83301 -14.833 -5.5 -20.5
s-9.16699 -8.5 -16.5 -8.5c-4 0 -7.33301 2.5 -10 7.5zM91.501 804.997c-3.66699 2.66699 -5.49805 6 -5.49805 10c0 2 9.33301 10.667 28 26l32 26l27 21c22.667 17.333 35 27 37 29c14.667 0 22 -5 22 -15l-3 -16c-34.667 -16 -76.334 -44.333 -125.001 -85
c-4.66699 0 -8.83398 1.33301 -12.501 4z" />
    <glyph glyph-name="Thorn" unicode="&#xde;" horiz-adv-x="318" 
d="M86 29c0 27.333 0.333008 48.334 1 63.001v63c0 25.333 -0.333008 45.666 -1 60.999l-1 62c0 37.333 -1.66699 97 -5 179c0 13.333 -0.666992 29.333 -2 48l-1 32l-2 34l-2 24c-2.66699 27.333 -4 51.333 -4 72l-1 14c0 1.33301 0.166992 4 0.5 8s0.5 10.333 0.5 19l1 32
v5l-1 2c0 3.33301 2.66699 6 8 8c1.33301 0 6 -1 14 -3h2c1.33301 -8.66699 2.33301 -30.667 3 -66c0 -32.667 0.666992 -55 2 -67v-1c24 0 46.167 -3.66699 66.5 -11s37.166 -17.333 50.499 -30c12.667 -12 23.334 -26 32.001 -42s14.667 -32.667 18 -50
c3.33301 -18 5 -35.333 5 -52c0 -33.333 -7.33301 -70 -22 -110s-32.334 -68.333 -53.001 -85c-5.33301 -3.33301 -9.66602 -5.66602 -12.999 -6.99902c-6.66699 -2.66699 -11 -5 -13 -7c-6.66699 -4 -24.667 -9.33301 -54 -16c0 -36.667 1 -67 3 -91
c2 -24.667 3 -55.334 3 -92.001c0 -10.667 -1.5 -18.5 -4.5 -23.5s-8.83301 -7.5 -17.5 -7.5s-13 11.667 -13 35zM149 254.501c14 5 23.333 9.49902 28 13.499c43.333 44.667 65 99 65 163c0 105.333 -46.667 158 -140 158v-26c0 -36 2 -89.667 6 -161
c4.66699 -81.333 7 -133.666 7 -156.999c8.66699 1.33301 20 4.5 34 9.5z" />
    <glyph glyph-name="germandbls" unicode="&#xdf;" horiz-adv-x="352" 
d="M90 8l1.99805 126.996c2 56 3 98 3 126c0 49.333 -1.33301 109 -4 179c-2 79.333 -3 138.666 -3 177.999c0 88 25.333 132 76 132c25.333 0 45 -14.5 59 -43.5s21 -66.833 21 -113.5c0 -36 -5.33301 -69.333 -16 -100s-26.667 -56 -48 -76
c30.667 -16 54.334 -40.167 71.001 -72.5s25 -70.166 25 -113.499v-23c0 -25.333 -0.833008 -45.666 -2.5 -60.999s-5.16699 -31.666 -10.5 -48.999c-11.333 -37.333 -36.333 -65.666 -75 -84.999l-8 -2c-5.33301 0 -10.166 1.5 -14.499 4.5s-6.5 6.5 -6.5 10.5
c0 5.33301 4 11 12 17c12.667 6 25.834 14.333 39.501 25s21.5 20 23.5 28c9.33301 17.333 14 44 14 80v5c0 41.333 -6 82 -18 122c-6 21.333 -15.167 40.333 -27.5 57s-26.5 28.667 -42.5 36c-4.66699 2 -8.5 5.33301 -11.5 10s-4.5 9 -4.5 13
c0 3.33301 0.666992 6.33301 2 9s3.33301 4 6 4c1.33301 1.33301 3.66602 2 6.99902 2c13.333 4 26.5 22.833 39.5 56.5s19.5 63.834 19.5 90.501c0 38 -5.33301 70.333 -16 97c-10 25.333 -22.333 38 -37 38c-30.667 0 -46 -34.333 -46 -103
c0 -33.333 0.666992 -63.333 2 -90l2 -90v-38l2 -186l2 -185c0 -20 -6 -30 -18 -30h-1c-12 0 -18 4.66699 -18 14z" />
    <glyph glyph-name="agrave" unicode="&#xe0;" horiz-adv-x="313" 
d="M250 -5.5c-2.66699 2.33301 -4.66602 8.5 -5.99902 18.5c-6 48.667 -9.66699 79 -11 91l-5 40c-14.667 3.33301 -31.334 5 -50.001 5l-36 2c-16 2 -27.667 3 -35 3c-4 0 -6.33301 -1.66699 -7 -5c0 -2 -0.333008 -3 -1 -3l-2 -20c-0.666992 -12 -4.33398 -36 -11.001 -72
c-3.33301 -18 -7.33301 -32 -12 -42c-5.33301 -11.333 -10.333 -17 -15 -17c-4 0 -8.33301 1.83301 -13 5.5s-7 7.5 -7 11.5l1 3l1 3c12 47.333 22 94.333 30 141l12 62l12 76l11 66c3.33301 18 9.33301 47 18 87c9.33301 45.333 15 76.333 17 93c0.666992 2 2 14.333 4 37
c2.66699 25.333 5 44 7 56c2 17.333 4 27.333 6 30h7c2 -0.666992 4.33301 -1 7 -1c8 0 14 2 18 6c4.66699 0 8.83398 -1.5 12.501 -4.5s5.5 -6.5 5.5 -10.5c0 -32 2.33301 -68.667 7 -110c2.66699 -21.333 4.66699 -39 6 -53c7.33301 -86 26 -247.333 56 -484v-3
c0 -6.66699 -2.66699 -11.667 -8 -15c-10 0 -16.333 1.16699 -19 3.5zM223.001 171c-6.66699 96 -19.332 237.667 -37.999 425l-54 -267c-15.333 -76.667 -23 -125 -23 -145c0 -3.33301 12.667 -6.33301 38 -9s47.666 -4 66.999 -4h10zM170.503 721
c-27 9.33301 -41.832 15 -44.499 17c-4 -1.33301 -9.33301 -2 -16 -2c-22.667 0 -34 6.66699 -34 20c0 12 2 19.333 6 22h6c20 0 33 -3.66699 39 -11c0 -0.666992 4 -2 12 -4c6.66699 -2 20 -7 40 -15c16 -6.66699 29.667 -13 41 -19c12.667 -7.33301 19 -13.666 19 -18.999
c0 -2 -1.33301 -3.83301 -4 -5.5s-5.33398 -2.5 -8.00098 -2.5c-10.667 3.33301 -29.5 9.66602 -56.5 18.999z" />
    <glyph glyph-name="aacute" unicode="&#xe1;" horiz-adv-x="313" 
d="M250 -5.5c-2.66699 2.33301 -4.66602 8.5 -5.99902 18.5c-6 48.667 -9.66699 79 -11 91l-5 40c-14.667 3.33301 -31.334 5 -50.001 5l-36 2c-16 2 -27.667 3 -35 3c-4 0 -6.33301 -1.66699 -7 -5c0 -2 -0.333008 -3 -1 -3l-2 -20c-0.666992 -12 -4.33398 -36 -11.001 -72
c-3.33301 -18 -7.33301 -32 -12 -42c-5.33301 -11.333 -10.333 -17 -15 -17c-4 0 -8.33301 1.83301 -13 5.5s-7 7.5 -7 11.5l1 3l1 3c12 47.333 22 94.333 30 141l12 62l12 76l11 66c3.33301 18 9.33301 47 18 87c9.33301 45.333 15 76.333 17 93c0.666992 2 2 14.333 4 37
c2.66699 25.333 5 44 7 56c2 17.333 4 27.333 6 30h7c2 -0.666992 4.33301 -1 7 -1c8 0 14 2 18 6c4.66699 0 8.83398 -1.5 12.501 -4.5s5.5 -6.5 5.5 -10.5c0 -32 2.33301 -68.667 7 -110c2.66699 -21.333 4.66699 -39 6 -53c7.33301 -86 26 -247.333 56 -484v-3
c0 -6.66699 -2.66699 -11.667 -8 -15c-10 0 -16.333 1.16699 -19 3.5zM223.001 171c-6.66699 96 -19.332 237.667 -37.999 425l-54 -267c-15.333 -76.667 -23 -125 -23 -145c0 -3.33301 12.667 -6.33301 38 -9s47.666 -4 66.999 -4h10zM173.503 697
c-3.66699 2.66699 -5.49805 6 -5.49805 10c0 2 9.33301 10.667 28 26l32 26l27 21c22.667 17.333 35 27 37 29c14.667 0 22 -5 22 -15l-3 -16c-34.667 -16 -76.334 -44.333 -125.001 -85c-4.66699 0 -8.83398 1.33301 -12.501 4z" />
    <glyph glyph-name="acircumflex" unicode="&#xe2;" horiz-adv-x="313" 
d="M250 -5.5c-2.66699 2.33301 -4.66602 8.5 -5.99902 18.5c-6 48.667 -9.66699 79 -11 91l-5 40c-14.667 3.33301 -31.334 5 -50.001 5l-36 2c-16 2 -27.667 3 -35 3c-4 0 -6.33301 -1.66699 -7 -5c0 -2 -0.333008 -3 -1 -3l-2 -20c-0.666992 -12 -4.33398 -36 -11.001 -72
c-3.33301 -18 -7.33301 -32 -12 -42c-5.33301 -11.333 -10.333 -17 -15 -17c-4 0 -8.33301 1.83301 -13 5.5s-7 7.5 -7 11.5l1 3l1 3c12 47.333 22 94.333 30 141l12 62l12 76l11 66c3.33301 18 9.33301 47 18 87c9.33301 45.333 15 76.333 17 93c0.666992 2 2 14.333 4 37
c2.66699 25.333 5 44 7 56c2 17.333 4 27.333 6 30h7c2 -0.666992 4.33301 -1 7 -1c8 0 14 2 18 6c4.66699 0 8.83398 -1.5 12.501 -4.5s5.5 -6.5 5.5 -10.5c0 -32 2.33301 -68.667 7 -110c2.66699 -21.333 4.66699 -39 6 -53c7.33301 -86 26 -247.333 56 -484v-3
c0 -6.66699 -2.66699 -11.667 -8 -15c-10 0 -16.333 1.16699 -19 3.5zM223.001 171c-6.66699 96 -19.332 237.667 -37.999 425l-54 -267c-15.333 -76.667 -23 -125 -23 -145c0 -3.33301 12.667 -6.33301 38 -9s47.666 -4 66.999 -4h10zM223.003 682
c-3.33301 42.667 -12.666 92.667 -27.999 150c-2.66699 -4 -14 -36 -34 -96c-5.33301 -17.333 -8 -28.666 -8 -33.999l-17 -23l-19 13c0.666992 10 6.66699 29 18 57s23.666 53.667 36.999 77s23 35 29 35c10 0 15 -7 15 -21c0 -22 6 -49 18 -81l11 -36l-1 -6l8 -15l-1 -5
c0.666992 -2.66699 1.5 -4.83398 2.5 -6.50098s1.5 -3.16699 1.5 -4.5c0 -6 -6 -10 -18 -12z" />
    <glyph glyph-name="atilde" unicode="&#xe3;" horiz-adv-x="313" 
d="M250 -5.5c-2.66699 2.33301 -4.66602 8.5 -5.99902 18.5c-6 48.667 -9.66699 79 -11 91l-5 40c-14.667 3.33301 -31.334 5 -50.001 5l-36 2c-16 2 -27.667 3 -35 3c-4 0 -6.33301 -1.66699 -7 -5c0 -2 -0.333008 -3 -1 -3l-2 -20c-0.666992 -12 -4.33398 -36 -11.001 -72
c-3.33301 -18 -7.33301 -32 -12 -42c-5.33301 -11.333 -10.333 -17 -15 -17c-4 0 -8.33301 1.83301 -13 5.5s-7 7.5 -7 11.5l1 3l1 3c12 47.333 22 94.333 30 141l12 62l12 76l11 66c3.33301 18 9.33301 47 18 87c9.33301 45.333 15 76.333 17 93c0.666992 2 2 14.333 4 37
c2.66699 25.333 5 44 7 56c2 17.333 4 27.333 6 30h7c2 -0.666992 4.33301 -1 7 -1c8 0 14 2 18 6c4.66699 0 8.83398 -1.5 12.501 -4.5s5.5 -6.5 5.5 -10.5c0 -32 2.33301 -68.667 7 -110c2.66699 -21.333 4.66699 -39 6 -53c7.33301 -86 26 -247.333 56 -484v-3
c0 -6.66699 -2.66699 -11.667 -8 -15c-10 0 -16.333 1.16699 -19 3.5zM223.001 171c-6.66699 96 -19.332 237.667 -37.999 425l-54 -267c-15.333 -76.667 -23 -125 -23 -145c0 -3.33301 12.667 -6.33301 38 -9s47.666 -4 66.999 -4h10zM86.5029 697.5
c-4.33301 3.66699 -6.49902 7.49805 -6.49902 11.498c0 20.667 5.66699 37.334 17 50.001s25.333 19 42 19s30.667 -6.66699 42 -20c5.33301 -10 13.666 -19 24.999 -27s22 -12 32 -12c17.333 0 26 12 26 36l-2 10l-4 9c2 4 5.33301 6 10 6c7.33301 0 13 -3.33301 17 -10
s6 -14.667 6 -24c0 -14 -5.33301 -26.333 -16 -37s-23 -16 -37 -16c-10.667 0 -22 3.33301 -34 10s-21.667 13.667 -29 21c-5.33301 4.66699 -14 14 -26 28l-7 3c-10 0 -18.667 -2.66699 -26 -8s-11 -11.666 -11 -18.999l5 -21l-11 -15c-4 0 -8.16699 1.83301 -12.5 5.5z
" />
    <glyph glyph-name="adieresis" unicode="&#xe4;" horiz-adv-x="313" 
d="M250 -5.5c-2.66699 2.33301 -4.66602 8.5 -5.99902 18.5c-6 48.667 -9.66699 79 -11 91l-5 40c-14.667 3.33301 -31.334 5 -50.001 5l-36 2c-16 2 -27.667 3 -35 3c-4 0 -6.33301 -1.66699 -7 -5c0 -2 -0.333008 -3 -1 -3l-2 -20c-0.666992 -12 -4.33398 -36 -11.001 -72
c-3.33301 -18 -7.33301 -32 -12 -42c-5.33301 -11.333 -10.333 -17 -15 -17c-4 0 -8.33301 1.83301 -13 5.5s-7 7.5 -7 11.5l1 3l1 3c12 47.333 22 94.333 30 141l12 62l12 76l11 66c3.33301 18 9.33301 47 18 87c9.33301 45.333 15 76.333 17 93c0.666992 2 2 14.333 4 37
c2.66699 25.333 5 44 7 56c2 17.333 4 27.333 6 30h7c2 -0.666992 4.33301 -1 7 -1c8 0 14 2 18 6c4.66699 0 8.83398 -1.5 12.501 -4.5s5.5 -6.5 5.5 -10.5c0 -32 2.33301 -68.667 7 -110c2.66699 -21.333 4.66699 -39 6 -53c7.33301 -86 26 -247.333 56 -484v-3
c0 -6.66699 -2.66699 -11.667 -8 -15c-10 0 -16.333 1.16699 -19 3.5zM223.001 171c-6.66699 96 -19.332 237.667 -37.999 425l-54 -267c-15.333 -76.667 -23 -125 -23 -145c0 -3.33301 12.667 -6.33301 38 -9s47.666 -4 66.999 -4h10zM237.003 747
c-4 4.66699 -6 9.66602 -6 14.999c0 6 2.5 11.667 7.5 17s10.5 8 16.5 8s11.167 -2.66699 15.5 -8s6.5 -10.666 6.5 -15.999c0 -15.333 -8.66699 -23 -26 -23c-5.33301 0 -10 2.33301 -14 7zM104.503 743.999c-3.66699 5.33301 -5.5 11.001 -5.5 17.001s2.5 11.667 7.5 17
s10.5 8 16.5 8c6.66699 0 11.667 -3.33301 15 -10s5 -14.334 5 -23.001c0 -5.33301 -2.5 -9.5 -7.5 -12.5s-10.833 -4.5 -17.5 -4.5c-5.33301 0 -9.83301 2.66699 -13.5 8z" />
    <glyph glyph-name="aring" unicode="&#xe5;" horiz-adv-x="313" 
d="M250 -5.5c-2.66699 2.33301 -4.66602 8.5 -5.99902 18.5c-6 48.667 -9.66699 79 -11 91l-5 40c-14.667 3.33301 -31.334 5 -50.001 5l-36 2c-16 2 -27.667 3 -35 3c-4 0 -6.33301 -1.66699 -7 -5c0 -2 -0.333008 -3 -1 -3l-2 -20c-0.666992 -12 -4.33398 -36 -11.001 -72
c-3.33301 -18 -7.33301 -32 -12 -42c-5.33301 -11.333 -10.333 -17 -15 -17c-4 0 -8.33301 1.83301 -13 5.5s-7 7.5 -7 11.5l1 3l1 3c12 47.333 22 94.333 30 141l12 62l12 76l11 66c3.33301 18 9.33301 47 18 87c9.33301 45.333 15 76.333 17 93c0.666992 2 2 14.333 4 37
c2.66699 25.333 5 44 7 56c2 17.333 4 27.333 6 30h7c2 -0.666992 4.33301 -1 7 -1c8 0 14 2 18 6c4.66699 0 8.83398 -1.5 12.501 -4.5s5.5 -6.5 5.5 -10.5c0 -32 2.33301 -68.667 7 -110c2.66699 -21.333 4.66699 -39 6 -53c7.33301 -86 26 -247.333 56 -484v-3
c0 -6.66699 -2.66699 -11.667 -8 -15c-10 0 -16.333 1.16699 -19 3.5zM223.001 171c-6.66699 96 -19.332 237.667 -37.999 425l-54 -267c-15.333 -76.667 -23 -125 -23 -145c0 -3.33301 12.667 -6.33301 38 -9s47.666 -4 66.999 -4h10zM144.003 699.5
c-10 11 -15 23.167 -15 36.5c0 15.333 6 29.5 18 42.5s25.333 19.5 40 19.5c12.667 0 25 -6.33301 37 -19s18 -25.667 18 -39c0 -18 -5.83301 -32 -17.5 -42s-27.167 -15 -46.5 -15c-12.667 0 -24 5.5 -34 16.5zM201.503 710.5c9.66699 5.66699 14.499 12.166 14.499 19.499
c0 13.333 -2.5 24.833 -7.5 34.5s-12.167 14.5 -21.5 14.5c-8 0 -15.833 -4.16699 -23.5 -12.5s-11.5 -16.833 -11.5 -25.5c0 -13.333 2.66699 -23.666 8 -30.999c3.33301 -5.33301 8 -8 14 -8c8.66699 0 17.834 2.83301 27.501 8.5z" />
    <glyph glyph-name="ae" unicode="&#xe6;" horiz-adv-x="403" 
d="M222 7c5.33301 27.333 8 62.334 8 105.001l-2 91l-2 90l-6 7c-2 -1.33301 -12.333 -2.33301 -31 -3c-14 -0.666992 -30 -2.33398 -48 -5.00098c-14.667 -2 -22.667 -5 -24 -9l-50 -181c-1.33301 -6 -3.83301 -18.333 -7.5 -37s-7.5 -33.334 -11.5 -44.001
c-5.33301 -13.333 -10.666 -20 -15.999 -20c-2 0 -3.83301 1.5 -5.5 4.5s-2.5 5.5 -2.5 7.5c0.666992 28.667 14 94.667 40 198c33.333 106.667 77 231 131 373l2 6l1 2v2c12 42.667 26.333 64 43 64c14 0 26.667 0.333008 38 1h39c21.333 0 32 -5.33301 32 -16l-7 -12h-50
c-18.667 0 -34.667 -0.666992 -48 -2c0 -28 0.333008 -53.333 1 -76l2 -77v-71c0.666992 -20.667 1 -44.667 1 -72l4 -6c20 6.66699 46.667 10 80 10l13 -17c0 -11.333 -23.667 -17 -71 -17h-26c0 -42 0.333008 -80 1 -114c1.33301 -33.333 2 -71.333 2 -114v-20
c-0.666992 -6.66699 -1 -13.667 -1 -21c0 -11.333 3 -17 9 -17c10 0 29 1.66699 57 5c25.333 4 44.333 6 57 6c5.33301 0 10.333 -1.16699 15 -3.5s7 -5.5 7 -9.5c0 -7.33301 -10 -12 -30 -14c-26.667 -2.66699 -48.334 -4 -65.001 -4
c-24.667 -1.33301 -38.667 -2.66602 -42 -3.99902c-1.33301 0.666992 -4 1 -8 1h-6c-2.66699 -0.666992 -5.66699 -1 -9 -1zM225 326.001v137v33c0.666992 10 1 21.333 1 34v38l-1 36c-6 -6 -23.833 -52.333 -53.5 -139s-45.167 -137 -46.5 -151c28.667 0 62 4 100 12z" />
    <glyph glyph-name="ccedilla" unicode="&#xe7;" horiz-adv-x="285" 
d="M146 -7c-12.667 4 -23.501 9.66699 -32.501 17s-17.5 18.333 -25.5 33c-14 26.667 -22.333 65 -25 115c-1.33301 22.667 -2 42.667 -2 60v114c0 43.333 1.33301 85.333 4 126c2 30 5 55.333 9 76s10.333 41.334 19 62.001c9.33301 21.333 19.666 36.333 30.999 45
c4.66699 4 13.667 8.66699 27 14c8.66699 3.33301 17 7 25 11h40h3c0.666992 -0.666992 1.66699 -1 3 -1l5 -1l4 -3c2 -2 3 -3.33301 3 -4c0.666992 -1.33301 1 -3.33301 1 -6l-13 -15h-42c-12.667 0 -24.167 -6.16699 -34.5 -18.5s-18.166 -27.833 -23.499 -46.5
c-5.33301 -16.667 -9.66602 -36.334 -12.999 -59.001s-5.33301 -42.334 -6 -59.001c-1.33301 -21.333 -2 -36 -2 -44l-2 -5c0 -37.333 -0.666992 -71 -2 -101l-2 -101c0 -29.333 2 -56.333 6 -81c3.33301 -26.667 13 -50.667 29 -72c15.333 -21.333 39 -32 71 -32
c10 0 18.333 3 25 9c10 0 15 -3.66699 15 -11c0 -4.66699 -4.16699 -10.167 -12.5 -16.5s-16.833 -11.166 -25.5 -14.499h-33zM121.499 -211.5c-9 5 -13.499 11.499 -13.499 19.499c0 6.66699 3.66699 10 11 10c2.66699 0 8 -1.66699 16 -5s13.333 -5 16 -5
c11.333 0 20.666 6.83301 27.999 20.5s11 29.834 11 48.501c0 22 -5 37 -15 45l-13 -2l-14 -2c-10 0 -19 6.66699 -27 20c5.33301 14 8 33.333 8 58v11l29 4c-2.66699 -20 -4 -37 -4 -51c48.667 -2.66699 73 -36 73 -100c0 -10.667 -3.5 -22.167 -10.5 -34.5
s-16.5 -22.833 -28.5 -31.5s-24.333 -13 -37 -13c-10.667 0 -20.5 2.5 -29.5 7.5z" />
    <glyph glyph-name="egrave" unicode="&#xe8;" horiz-adv-x="256" 
d="M71 8v13.002c0.666992 3.33301 1 7.33301 1 12l-4 4c5.33301 14 8 27.667 8 41c0 15.333 -1 37.333 -3 66l-2 66c0 33.333 1 83.333 3 150c2.66699 59.333 4 109.666 4 150.999l-2 60c-1.33301 18 -2 38 -2 60c0 10 2.33301 17.167 7 21.5s12 6.5 22 6.5
c6.66699 0 12 -2 16 -6c1.33301 -0.666992 11 -2 29 -4c16.667 -2 31 -5 43 -9c12.667 -4 19 -9 19 -15c0 -6.66699 -6.33301 -13.334 -19 -20.001c-38 12.667 -65 19 -81 19l-5 -6c0.666992 -6 1 -20.333 1 -43c0 -28.667 -0.666992 -54.334 -2 -77.001
c-0.666992 -23.333 -1 -49.333 -1 -78c0 -18.667 4.66699 -28 14 -28l16 1c5.33301 0.666992 11 1 17 1c26 0 39 -6 39 -18c0 -7.33301 -1.66699 -13.5 -5 -18.5s-8.33301 -7.5 -15 -7.5c-10 0 -17.667 2.66699 -23 8l-32 5h-5l-5 -5v-3
c1.33301 -11.333 2 -37.666 2 -78.999c0 -26 -0.333008 -49.667 -1 -71l-1 -71c0 -26 1 -52.667 3 -80c0.666992 -15.333 4 -25.5 10 -30.5s17 -7.5 33 -7.5l18 1c6 0.666992 12.667 1 20 1c19.333 0 29 -4.33301 29 -13c0 -12 -14.667 -18 -44 -18h-82
c-12 0 -18.667 7 -20 21zM124.5 712.002c-27 9.33301 -41.832 15 -44.499 17c-4 -1.33301 -9.33301 -2 -16 -2c-22.667 0 -34 6.66699 -34 20c0 12 2 19.333 6 22h6c20 0 33 -3.66699 39 -11c0 -0.666992 4 -2 12 -4c6.66699 -2 20 -7 40 -15c16 -6.66699 29.667 -13 41 -19
c12.667 -7.33301 19 -13.666 19 -18.999c0 -2 -1.33301 -3.83301 -4 -5.5s-5.33398 -2.5 -8.00098 -2.5c-10.667 3.33301 -29.5 9.66602 -56.5 18.999z" />
    <glyph glyph-name="eacute" unicode="&#xe9;" horiz-adv-x="256" 
d="M71 8v13.002c0.666992 3.33301 1 7.33301 1 12l-4 4c5.33301 14 8 27.667 8 41c0 15.333 -1 37.333 -3 66l-2 66c0 33.333 1 83.333 3 150c2.66699 59.333 4 109.666 4 150.999l-2 60c-1.33301 18 -2 38 -2 60c0 10 2.33301 17.167 7 21.5s12 6.5 22 6.5
c6.66699 0 12 -2 16 -6c1.33301 -0.666992 11 -2 29 -4c16.667 -2 31 -5 43 -9c12.667 -4 19 -9 19 -15c0 -6.66699 -6.33301 -13.334 -19 -20.001c-38 12.667 -65 19 -81 19l-5 -6c0.666992 -6 1 -20.333 1 -43c0 -28.667 -0.666992 -54.334 -2 -77.001
c-0.666992 -23.333 -1 -49.333 -1 -78c0 -18.667 4.66699 -28 14 -28l16 1c5.33301 0.666992 11 1 17 1c26 0 39 -6 39 -18c0 -7.33301 -1.66699 -13.5 -5 -18.5s-8.33301 -7.5 -15 -7.5c-10 0 -17.667 2.66699 -23 8l-32 5h-5l-5 -5v-3
c1.33301 -11.333 2 -37.666 2 -78.999c0 -26 -0.333008 -49.667 -1 -71l-1 -71c0 -26 1 -52.667 3 -80c0.666992 -15.333 4 -25.5 10 -30.5s17 -7.5 33 -7.5l18 1c6 0.666992 12.667 1 20 1c19.333 0 29 -4.33301 29 -13c0 -12 -14.667 -18 -44 -18h-82
c-12 0 -18.667 7 -20 21zM127.5 688.002c-3.66699 2.66699 -5.49805 6 -5.49805 10c0 2 9.33301 10.667 28 26l32 26l27 21c22.667 17.333 35 27 37 29c14.667 0 22 -5 22 -15l-3 -16c-34.667 -16 -76.334 -44.333 -125.001 -85c-4.66699 0 -8.83398 1.33301 -12.501 4z" />
    </font>
</defs>
</svg>
